<?xml version="1.0"?>

<svg xmlns="http://www.w3.org/2000/svg"> 
  <g transform="scale(0.8)">
    <text x="10" y="20">Not aligned</text>
	  <path d="M10,350 l 50,-25
	        a25,25  -30 0,1 50,-25 l 50,-25
	        a25,50  -30 0,1 50,-25 l 50,-25
	        a25,75  -30 0,1 50,-25 l 50,-25
	        a25,100 -30 0,1 50,-25 l 50,-25"
	        fill="none" stroke="red" stroke-width="2"
	        stroke-dasharray="25,10"/>
  </g>
  <g transform="scale(0.8) translate(400, 0)">
	<text x="10" y="20">Aligned to corners</text>
	  <path d="M10,350 l 50,-25
	        a25,25  -30 0,1 50,-25 l 50,-25
	        a25,50  -30 0,1 50,-25 l 50,-25
	        a25,75  -30 0,1 50,-25 l 50,-25
	        a25,100 -30 0,1 50,-25 l 50,-25"
	        fill="none" stroke="red" stroke-width="2"
	        stroke-dasharray="25,10" stroke-dashalign="corners"/>
  </g>
</svg>