<?xml version="1.0" encoding="UTF-8" standalone="no"?>
<!-- Created with Inkscape (http://www.inkscape.org/) -->

<svg
   xmlns:dc="http://purl.org/dc/elements/1.1/"
   xmlns:cc="http://creativecommons.org/ns#"
   xmlns:rdf="http://www.w3.org/1999/02/22-rdf-syntax-ns#"
   xmlns:svg="http://www.w3.org/2000/svg"
   xmlns="http://www.w3.org/2000/svg"
   xmlns:sodipodi="http://sodipodi.sourceforge.net/DTD/sodipodi-0.dtd"
   xmlns:inkscape="http://www.inkscape.org/namespaces/inkscape"
   width="800px"
   height="600px"
   id="svg3025"
   version="1.1"
   inkscape:version="0.48.4 r9939"
   sodipodi:docname="inheritance.svg">
  <defs
     id="defs3027">
    <filter
       inkscape:collect="always"
       id="filter4915"
       x="-0.12"
       width="1.24"
       y="-0.12"
       height="1.24">
      <feGaussianBlur
         inkscape:collect="always"
         stdDeviation="4"
         id="feGaussianBlur4917" />
    </filter>
    <filter
       inkscape:collect="always"
       id="filter4919"
       x="-0.24"
       width="1.48"
       y="-0.24"
       height="1.48">
      <feGaussianBlur
         inkscape:collect="always"
         stdDeviation="8"
         id="feGaussianBlur4921" />
    </filter>
    <filter
       inkscape:collect="always"
       id="filter4923"
       x="-0.36"
       width="1.72"
       y="-0.36"
       height="1.72">
      <feGaussianBlur
         inkscape:collect="always"
         stdDeviation="12"
         id="feGaussianBlur4925" />
    </filter>
    <filter
       inkscape:collect="always"
       id="filter4927"
       x="-0.48"
       width="1.96"
       y="-0.48"
       height="1.96">
      <feGaussianBlur
         inkscape:collect="always"
         stdDeviation="16"
         id="feGaussianBlur4929" />
    </filter>
    <filter
       inkscape:collect="always"
       id="filter4931"
       x="-0.6"
       width="2.2"
       y="-0.6"
       height="2.2">
      <feGaussianBlur
         inkscape:collect="always"
         stdDeviation="20"
         id="feGaussianBlur4933" />
    </filter>
    <filter
       inkscape:collect="always"
       id="filter4935"
       x="-0.72"
       width="2.44"
       y="-0.72"
       height="2.44">
      <feGaussianBlur
         inkscape:collect="always"
         stdDeviation="24"
         id="feGaussianBlur4937" />
    </filter>
    <filter
       inkscape:collect="always"
       id="filter4939"
       x="-0.84"
       width="2.68"
       y="-0.84"
       height="2.68">
      <feGaussianBlur
         inkscape:collect="always"
         stdDeviation="28"
         id="feGaussianBlur4941" />
    </filter>
    <filter
       inkscape:collect="always"
       id="filter4943"
       x="-0.96"
       width="2.92"
       y="-0.96"
       height="2.92">
      <feGaussianBlur
         inkscape:collect="always"
         stdDeviation="32"
         id="feGaussianBlur4945" />
    </filter>
    <filter
       inkscape:collect="always"
       id="filter4947"
       x="-1.08"
       width="3.16"
       y="-1.08"
       height="3.16">
      <feGaussianBlur
         inkscape:collect="always"
         stdDeviation="36"
         id="feGaussianBlur4949" />
    </filter>
    <filter
       inkscape:collect="always"
       id="filter4951"
       x="-1.2"
       width="3.4"
       y="-1.2"
       height="3.4">
      <feGaussianBlur
         inkscape:collect="always"
         stdDeviation="40"
         id="feGaussianBlur4953" />
    </filter>
  </defs>
  <sodipodi:namedview
     id="base"
     pagecolor="#ffffff"
     bordercolor="#666666"
     borderopacity="1.0"
     inkscape:pageopacity="0.0"
     inkscape:pageshadow="2"
     inkscape:zoom="0.70710678"
     inkscape:cx="474.50034"
     inkscape:cy="264.24139"
     inkscape:current-layer="layer1"
     inkscape:document-units="px"
     showgrid="false"
     inkscape:window-width="1280"
     inkscape:window-height="972"
     inkscape:window-x="-8"
     inkscape:window-y="-8"
     inkscape:window-maximized="1"
     inkscape:snap-bbox="true"
     inkscape:bbox-nodes="true"
     inkscape:bbox-paths="true"
     inkscape:snap-bbox-edge-midpoints="true"
     inkscape:snap-bbox-midpoints="true">
    <inkscape:grid
       type="xygrid"
       id="grid3033" />
  </sodipodi:namedview>
  <metadata
     id="metadata3030">
    <rdf:RDF>
      <cc:Work
         rdf:about="">
        <dc:format>image/svg+xml</dc:format>
        <dc:type
           rdf:resource="http://purl.org/dc/dcmitype/StillImage" />
        <dc:title></dc:title>
      </cc:Work>
    </rdf:RDF>
  </metadata>
  <g
     id="layer1"
     inkscape:label="Layer 1"
     inkscape:groupmode="layer"
     style="display:inline">
    <path
       style="color:#000000;fill:#808080;fill-opacity:1;fill-rule:nonzero;stroke:none;stroke-width:5;marker:none;visibility:visible;display:inline;overflow:visible;enable-background:accumulate"
       d="M 0,0 0,10 10,10 10,0 0,0 z m 10,10 0,10 10,0 0,-10 -10,0 z m 10,0 10,0 0,-10 -10,0 0,10 z m 10,0 0,10 10,0 0,-10 -10,0 z m 10,0 10,0 0,-10 -10,0 0,10 z m 10,0 0,10 10,0 0,-10 -10,0 z m 10,0 10,0 0,-10 -10,0 0,10 z m 10,0 0,10 10,0 0,-10 -10,0 z m 10,0 10,0 0,-10 -10,0 0,10 z m 10,0 0,10 10,0 0,-10 -10,0 z m 10,0 10,0 0,-10 -10,0 0,10 z m 10,0 0,10 10,0 0,-10 -10,0 z m 10,0 10,0 0,-10 -10,0 0,10 z m 10,0 0,10 10,0 0,-10 -10,0 z m 10,0 10,0 0,-10 -10,0 0,10 z m 10,0 0,10 10,0 0,-10 -10,0 z m 10,0 10,0 0,-10 -10,0 0,10 z m 10,0 0,10 10,0 0,-10 -10,0 z m 10,0 10,0 0,-10 -10,0 0,10 z m 10,0 0,10 10,0 0,-10 -10,0 z m 10,0 10,0 0,-10 -10,0 0,10 z m 10,0 0,10 10,0 0,-10 -10,0 z m 10,0 10,0 0,-10 -10,0 0,10 z m 10,0 0,10 10,0 0,-10 -10,0 z m 10,0 10,0 0,-10 -10,0 0,10 z m 10,0 0,10 10,0 0,-10 -10,0 z m 10,0 10,0 0,-10 -10,0 0,10 z m 10,0 0,10 10,0 0,-10 -10,0 z m 10,0 10,0 0,-10 -10,0 0,10 z m 10,0 0,10 10,0 0,-10 -10,0 z m 10,0 10,0 0,-10 -10,0 0,10 z m 10,0 0,10 10,0 0,-10 -10,0 z m 10,0 10,0 0,-10 -10,0 0,10 z m 10,0 0,10 10,0 0,-10 -10,0 z m 10,0 10,0 0,-10 -10,0 0,10 z m 10,0 0,10 10,0 0,-10 -10,0 z m 10,0 10,0 0,-10 -10,0 0,10 z m 10,0 0,10 10,0 0,-10 -10,0 z m 10,0 10,0 0,-10 -10,0 0,10 z m 10,0 0,10 10,0 0,-10 -10,0 z m 10,0 10,0 0,-10 -10,0 0,10 z m 10,0 0,10 10,0 0,-10 -10,0 z m 10,0 10,0 0,-10 -10,0 0,10 z m 10,0 0,10 10,0 0,-10 -10,0 z m 10,0 10,0 0,-10 -10,0 0,10 z m 10,0 0,10 10,0 0,-10 -10,0 z m 10,0 10,0 0,-10 -10,0 0,10 z m 10,0 0,10 10,0 0,-10 -10,0 z m 10,0 10,0 0,-10 -10,0 0,10 z m 10,0 0,10 10,0 0,-10 -10,0 z m 10,0 10,0 0,-10 -10,0 0,10 z m 10,0 0,10 10,0 0,-10 -10,0 z m 10,0 10,0 0,-10 -10,0 0,10 z m 10,0 0,10 10,0 0,-10 -10,0 z m 10,0 10,0 0,-10 -10,0 0,10 z m 10,0 0,10 10,0 0,-10 -10,0 z m 10,0 10,0 0,-10 -10,0 0,10 z m 10,0 0,10 10,0 0,-10 -10,0 z m 10,0 10,0 0,-10 -10,0 0,10 z m 10,0 0,10 10,0 0,-10 -10,0 z m 10,0 10,0 0,-10 -10,0 0,10 z m 10,0 0,10 10,0 0,-10 -10,0 z m 10,0 10,0 0,-10 -10,0 0,10 z m 10,0 0,10 10,0 0,-10 -10,0 z m 10,0 10,0 0,-10 -10,0 0,10 z m 10,0 0,10 10,0 0,-10 -10,0 z m 10,0 10,0 0,-10 -10,0 0,10 z m 10,0 0,10 10,0 0,-10 -10,0 z m 10,0 10,0 0,-10 -10,0 0,10 z m 10,0 0,10 10,0 0,-10 -10,0 z m 10,0 10,0 0,-10 -10,0 0,10 z m 10,0 0,10 10,0 0,-10 -10,0 z m 10,0 10,0 0,-10 -10,0 0,10 z m 10,0 0,10 10,0 0,-10 -10,0 z m 10,0 10,0 0,-10 -10,0 0,10 z m 10,0 0,10 10,0 0,-10 -10,0 z m 10,0 10,0 0,-10 -10,0 0,10 z m 10,0 0,10 10,0 0,-10 -10,0 z m 10,0 10,0 0,-10 -10,0 0,10 z m 10,0 0,10 10,0 0,-10 -10,0 z m 0,10 -10,0 0,10 10,0 0,-10 z m 0,10 0,10 10,0 0,-10 -10,0 z m 0,10 -10,0 0,10 10,0 0,-10 z m 0,10 0,10 10,0 0,-10 -10,0 z m 0,10 -10,0 0,10 10,0 0,-10 z m 0,10 0,10 10,0 0,-10 -10,0 z m 0,10 -10,0 0,10 10,0 0,-10 z m 0,10 0,10 10,0 0,-10 -10,0 z m 0,10 -10,0 0,10 10,0 0,-10 z m 0,10 0,10 10,0 0,-10 -10,0 z m 0,10 -10,0 0,10 10,0 0,-10 z m 0,10 0,10 10,0 0,-10 -10,0 z m 0,10 -10,0 0,10 10,0 0,-10 z m 0,10 0,10 10,0 0,-10 -10,0 z m 0,10 -10,0 0,10 10,0 0,-10 z m 0,10 0,10 10,0 0,-10 -10,0 z m 0,10 -10,0 0,10 10,0 0,-10 z m 0,10 0,10 10,0 0,-10 -10,0 z m 0,10 -10,0 0,10 10,0 0,-10 z m 0,10 0,10 10,0 0,-10 -10,0 z m 0,10 -10,0 0,10 10,0 0,-10 z m 0,10 0,10 10,0 0,-10 -10,0 z m 0,10 -10,0 0,10 10,0 0,-10 z m 0,10 0,10 10,0 0,-10 -10,0 z m 0,10 -10,0 0,10 10,0 0,-10 z m 0,10 0,10 10,0 0,-10 -10,0 z m 0,10 -10,0 0,10 10,0 0,-10 z m 0,10 0,10 10,0 0,-10 -10,0 z m 0,10 -10,0 0,10 10,0 0,-10 z m 0,10 0,10 10,0 0,-10 -10,0 z m 0,10 -10,0 0,10 10,0 0,-10 z m 0,10 0,10 10,0 0,-10 -10,0 z m 0,10 -10,0 0,10 10,0 0,-10 z m 0,10 0,10 10,0 0,-10 -10,0 z m 0,10 -10,0 0,10 10,0 0,-10 z m 0,10 0,10 10,0 0,-10 -10,0 z m 0,10 -10,0 0,10 10,0 0,-10 z m 0,10 0,10 10,0 0,-10 -10,0 z m 0,10 -10,0 0,10 10,0 0,-10 z m 0,10 0,10 10,0 0,-10 -10,0 z m 0,10 -10,0 0,10 10,0 0,-10 z m 0,10 0,10 10,0 0,-10 -10,0 z m 0,10 -10,0 0,10 10,0 0,-10 z m 0,10 0,10 10,0 0,-10 -10,0 z m 0,10 -10,0 0,10 10,0 0,-10 z m 0,10 0,10 10,0 0,-10 -10,0 z m 0,10 -10,0 0,10 10,0 0,-10 z m 0,10 0,10 10,0 0,-10 -10,0 z m 0,10 -10,0 0,10 10,0 0,-10 z m 0,10 0,10 10,0 0,-10 -10,0 z m 0,10 -10,0 0,10 10,0 0,-10 z m 0,10 0,10 10,0 0,-10 -10,0 z m 0,10 -10,0 0,10 10,0 0,-10 z m 0,10 0,10 10,0 0,-10 -10,0 z m 0,10 -10,0 0,10 10,0 0,-10 z m 0,10 0,10 10,0 0,-10 -10,0 z m 0,10 -10,0 0,10 10,0 0,-10 z m 0,10 0,10 10,0 0,-10 -10,0 z m -10,0 -10,0 0,10 10,0 0,-10 z m -10,0 0,-10 -10,0 0,10 10,0 z m -10,0 -10,0 0,10 10,0 0,-10 z m -10,0 0,-10 -10,0 0,10 10,0 z m -10,0 -10,0 0,10 10,0 0,-10 z m -10,0 0,-10 -10,0 0,10 10,0 z m -10,0 -10,0 0,10 10,0 0,-10 z m -10,0 0,-10 -10,0 0,10 10,0 z m -10,0 -10,0 0,10 10,0 0,-10 z m -10,0 0,-10 -10,0 0,10 10,0 z m -10,0 -10,0 0,10 10,0 0,-10 z m -10,0 0,-10 -10,0 0,10 10,0 z m -10,0 -10,0 0,10 10,0 0,-10 z m -10,0 0,-10 -10,0 0,10 10,0 z m -10,0 -10,0 0,10 10,0 0,-10 z m -10,0 0,-10 -10,0 0,10 10,0 z m -10,0 -10,0 0,10 10,0 0,-10 z m -10,0 0,-10 -10,0 0,10 10,0 z m -10,0 -10,0 0,10 10,0 0,-10 z m -10,0 0,-10 -10,0 0,10 10,0 z m -10,0 -10,0 0,10 10,0 0,-10 z m -10,0 0,-10 -10,0 0,10 10,0 z m -10,0 -10,0 0,10 10,0 0,-10 z m -10,0 0,-10 -10,0 0,10 10,0 z m -10,0 -10,0 0,10 10,0 0,-10 z m -10,0 0,-10 -10,0 0,10 10,0 z m -10,0 -10,0 0,10 10,0 0,-10 z m -10,0 0,-10 -10,0 0,10 10,0 z m -10,0 -10,0 0,10 10,0 0,-10 z m -10,0 0,-10 -10,0 0,10 10,0 z m -10,0 -10,0 0,10 10,0 0,-10 z m -10,0 0,-10 -10,0 0,10 10,0 z m -10,0 -10,0 0,10 10,0 0,-10 z m -10,0 0,-10 -10,0 0,10 10,0 z m -10,0 -10,0 0,10 10,0 0,-10 z m -10,0 0,-10 -10,0 0,10 10,0 z m -10,0 -10,0 0,10 10,0 0,-10 z m -10,0 0,-10 -10,0 0,10 10,0 z m -10,0 -10,0 0,10 10,0 0,-10 z m -10,0 0,-10 -10,0 0,10 10,0 z m -10,0 -10,0 0,10 10,0 0,-10 z m -10,0 0,-10 -10,0 0,10 10,0 z m -10,0 -10,0 0,10 10,0 0,-10 z m -10,0 0,-10 -10,0 0,10 10,0 z m -10,0 -10,0 0,10 10,0 0,-10 z m -10,0 0,-10 -10,0 0,10 10,0 z m -10,0 -10,0 0,10 10,0 0,-10 z m -10,0 0,-10 -10,0 0,10 10,0 z m -10,0 -10,0 0,10 10,0 0,-10 z m -10,0 0,-10 -10,0 0,10 10,0 z m -10,0 -10,0 0,10 10,0 0,-10 z m -10,0 0,-10 -10,0 0,10 10,0 z m -10,0 -10,0 0,10 10,0 0,-10 z m -10,0 0,-10 -10,0 0,10 10,0 z m -10,0 -10,0 0,10 10,0 0,-10 z m -10,0 0,-10 -10,0 0,10 10,0 z m -10,0 -10,0 0,10 10,0 0,-10 z m -10,0 0,-10 -10,0 0,10 10,0 z m -10,0 -10,0 0,10 10,0 0,-10 z m -10,0 0,-10 -10,0 0,10 10,0 z m -10,0 -10,0 0,10 10,0 0,-10 z m -10,0 0,-10 -10,0 0,10 10,0 z m -10,0 -10,0 0,10 10,0 0,-10 z m -10,0 0,-10 -10,0 0,10 10,0 z m -10,0 -10,0 0,10 10,0 0,-10 z m -10,0 0,-10 -10,0 0,10 10,0 z m -10,0 -10,0 0,10 10,0 0,-10 z m -10,0 0,-10 -10,0 0,10 10,0 z m -10,0 -10,0 0,10 10,0 0,-10 z m -10,0 0,-10 -10,0 0,10 10,0 z m -10,0 -10,0 0,10 10,0 0,-10 z m -10,0 0,-10 -10,0 0,10 10,0 z m -10,0 -10,0 0,10 10,0 0,-10 z m -10,0 0,-10 -10,0 0,10 10,0 z m -10,0 -10,0 0,10 10,0 0,-10 z m -10,0 0,-10 -10,0 0,10 10,0 z m -10,0 -10,0 0,10 10,0 0,-10 z m -10,0 0,-10 -10,0 0,10 10,0 z m 0,-10 10,0 0,-10 -10,0 0,10 z m 0,-10 0,-10 -10,0 0,10 10,0 z m 0,-10 10,0 0,-10 -10,0 0,10 z m 0,-10 0,-10 -10,0 0,10 10,0 z m 0,-10 10,0 0,-10 -10,0 0,10 z m 0,-10 0,-10 -10,0 0,10 10,0 z m 0,-10 10,0 0,-10 -10,0 0,10 z m 0,-10 0,-10 -10,0 0,10 10,0 z m 0,-10 10,0 0,-10 -10,0 0,10 z m 0,-10 0,-10 -10,0 0,10 10,0 z m 0,-10 10,0 0,-10 -10,0 0,10 z m 0,-10 0,-10 -10,0 0,10 10,0 z m 0,-10 10,0 0,-10 -10,0 0,10 z m 0,-10 0,-10 -10,0 0,10 10,0 z m 0,-10 10,0 0,-10 -10,0 0,10 z m 0,-10 0,-10 -10,0 0,10 10,0 z m 0,-10 10,0 0,-10 -10,0 0,10 z m 0,-10 0,-10 -10,0 0,10 10,0 z m 0,-10 10,0 0,-10 -10,0 0,10 z m 0,-10 0,-10 -10,0 0,10 10,0 z m 0,-10 10,0 0,-10 -10,0 0,10 z m 0,-10 0,-10 -10,0 0,10 10,0 z m 0,-10 10,0 0,-10 -10,0 0,10 z m 0,-10 0,-10 -10,0 0,10 10,0 z m 0,-10 10,0 0,-10 -10,0 0,10 z m 0,-10 0,-10 -10,0 0,10 10,0 z m 0,-10 10,0 0,-10 -10,0 0,10 z m 0,-10 0,-10 -10,0 0,10 10,0 z m 0,-10 10,0 0,-10 -10,0 0,10 z m 0,-10 0,-10 -10,0 0,10 10,0 z m 0,-10 10,0 0,-10 -10,0 0,10 z m 0,-10 0,-10 -10,0 0,10 10,0 z m 0,-10 10,0 0,-10 -10,0 0,10 z m 0,-10 0,-10 -10,0 0,10 10,0 z m 0,-10 10,0 0,-10 -10,0 0,10 z m 0,-10 0,-10 -10,0 0,10 10,0 z m 0,-10 10,0 0,-10 -10,0 0,10 z m 0,-10 0,-10 -10,0 0,10 10,0 z m 0,-10 10,0 0,-10 -10,0 0,10 z m 0,-10 0,-10 -10,0 0,10 10,0 z m 0,-10 10,0 0,-10 -10,0 0,10 z m 0,-10 0,-10 -10,0 0,10 10,0 z m 0,-10 10,0 0,-10 -10,0 0,10 z m 0,-10 0,-10 -10,0 0,10 10,0 z m 0,-10 10,0 0,-10 -10,0 0,10 z m 0,-10 0,-10 -10,0 0,10 10,0 z m 0,-10 10,0 0,-10 -10,0 0,10 z m 0,-10 0,-10 -10,0 0,10 10,0 z m 0,-10 10,0 0,-10 -10,0 0,10 z m 0,-10 0,-10 -10,0 0,10 10,0 z m 0,-10 10,0 0,-10 -10,0 0,10 z m 0,-10 0,-10 -10,0 0,10 10,0 z m 0,-10 10,0 0,-10 -10,0 0,10 z m 0,-10 0,-10 -10,0 0,10 10,0 z m 0,-10 10,0 0,-10 -10,0 0,10 z m 0,-10 0,-10 -10,0 0,10 10,0 z m 10,0 10,0 0,-10 -10,0 0,10 z m 10,0 0,10 10,0 0,-10 -10,0 z m 10,0 10,0 0,-10 -10,0 0,10 z m 10,0 0,10 10,0 0,-10 -10,0 z m 10,0 10,0 0,-10 -10,0 0,10 z m 10,0 0,10 10,0 0,-10 -10,0 z m 10,0 10,0 0,-10 -10,0 0,10 z m 10,0 0,10 10,0 0,-10 -10,0 z m 10,0 10,0 0,-10 -10,0 0,10 z m 10,0 0,10 10,0 0,-10 -10,0 z m 10,0 10,0 0,-10 -10,0 0,10 z m 10,0 0,10 10,0 0,-10 -10,0 z m 10,0 10,0 0,-10 -10,0 0,10 z m 10,0 0,10 10,0 0,-10 -10,0 z m 10,0 10,0 0,-10 -10,0 0,10 z m 10,0 0,10 10,0 0,-10 -10,0 z m 10,0 10,0 0,-10 -10,0 0,10 z m 10,0 0,10 10,0 0,-10 -10,0 z m 10,0 10,0 0,-10 -10,0 0,10 z m 10,0 0,10 10,0 0,-10 -10,0 z m 10,0 10,0 0,-10 -10,0 0,10 z m 10,0 0,10 10,0 0,-10 -10,0 z m 10,0 10,0 0,-10 -10,0 0,10 z m 10,0 0,10 10,0 0,-10 -10,0 z m 10,0 10,0 0,-10 -10,0 0,10 z m 10,0 0,10 10,0 0,-10 -10,0 z m 10,0 10,0 0,-10 -10,0 0,10 z m 10,0 0,10 10,0 0,-10 -10,0 z m 10,0 10,0 0,-10 -10,0 0,10 z m 10,0 0,10 10,0 0,-10 -10,0 z m 10,0 10,0 0,-10 -10,0 0,10 z m 10,0 0,10 10,0 0,-10 -10,0 z m 10,0 10,0 0,-10 -10,0 0,10 z m 10,0 0,10 10,0 0,-10 -10,0 z m 10,0 10,0 0,-10 -10,0 0,10 z m 10,0 0,10 10,0 0,-10 -10,0 z m 10,0 10,0 0,-10 -10,0 0,10 z m 10,0 0,10 10,0 0,-10 -10,0 z m 10,0 10,0 0,-10 -10,0 0,10 z m 10,0 0,10 10,0 0,-10 -10,0 z m 10,0 10,0 0,-10 -10,0 0,10 z m 10,0 0,10 10,0 0,-10 -10,0 z m 10,0 10,0 0,-10 -10,0 0,10 z m 10,0 0,10 10,0 0,-10 -10,0 z m 10,0 10,0 0,-10 -10,0 0,10 z m 10,0 0,10 10,0 0,-10 -10,0 z m 10,0 10,0 0,-10 -10,0 0,10 z m 10,0 0,10 10,0 0,-10 -10,0 z m 10,0 10,0 0,-10 -10,0 0,10 z m 10,0 0,10 10,0 0,-10 -10,0 z m 10,0 10,0 0,-10 -10,0 0,10 z m 10,0 0,10 10,0 0,-10 -10,0 z m 10,0 10,0 0,-10 -10,0 0,10 z m 10,0 0,10 10,0 0,-10 -10,0 z m 10,0 10,0 0,-10 -10,0 0,10 z m 10,0 0,10 10,0 0,-10 -10,0 z m 10,0 10,0 0,-10 -10,0 0,10 z m 10,0 0,10 10,0 0,-10 -10,0 z m 10,0 10,0 0,-10 -10,0 0,10 z m 10,0 0,10 10,0 0,-10 -10,0 z m 10,0 10,0 0,-10 -10,0 0,10 z m 10,0 0,10 10,0 0,-10 -10,0 z m 10,0 10,0 0,-10 -10,0 0,10 z m 10,0 0,10 10,0 0,-10 -10,0 z m 10,0 10,0 0,-10 -10,0 0,10 z m 10,0 0,10 10,0 0,-10 -10,0 z m 10,0 10,0 0,-10 -10,0 0,10 z m 10,0 0,10 10,0 0,-10 -10,0 z m 10,0 10,0 0,-10 -10,0 0,10 z m 10,0 0,10 10,0 0,-10 -10,0 z m 10,0 10,0 0,-10 -10,0 0,10 z m 10,0 0,10 10,0 0,-10 -10,0 z m 10,0 10,0 0,-10 -10,0 0,10 z m 10,0 0,10 10,0 0,-10 -10,0 z m 10,0 10,0 0,-10 -10,0 0,10 z m 10,0 0,10 10,0 0,-10 -10,0 z m 0,10 -10,0 0,10 10,0 0,-10 z m 0,10 0,10 10,0 0,-10 -10,0 z m 0,10 -10,0 0,10 10,0 0,-10 z m 0,10 0,10 10,0 0,-10 -10,0 z m 0,10 -10,0 0,10 10,0 0,-10 z m 0,10 0,10 10,0 0,-10 -10,0 z m 0,10 -10,0 0,10 10,0 0,-10 z m 0,10 0,10 10,0 0,-10 -10,0 z m 0,10 -10,0 0,10 10,0 0,-10 z m 0,10 0,10 10,0 0,-10 -10,0 z m 0,10 -10,0 0,10 10,0 0,-10 z m 0,10 0,10 10,0 0,-10 -10,0 z m 0,10 -10,0 0,10 10,0 0,-10 z m 0,10 0,10 10,0 0,-10 -10,0 z m 0,10 -10,0 0,10 10,0 0,-10 z m 0,10 0,10 10,0 0,-10 -10,0 z m 0,10 -10,0 0,10 10,0 0,-10 z m 0,10 0,10 10,0 0,-10 -10,0 z m 0,10 -10,0 0,10 10,0 0,-10 z m 0,10 0,10 10,0 0,-10 -10,0 z m 0,10 -10,0 0,10 10,0 0,-10 z m 0,10 0,10 10,0 0,-10 -10,0 z m 0,10 -10,0 0,10 10,0 0,-10 z m 0,10 0,10 10,0 0,-10 -10,0 z m 0,10 -10,0 0,10 10,0 0,-10 z m 0,10 0,10 10,0 0,-10 -10,0 z m 0,10 -10,0 0,10 10,0 0,-10 z m 0,10 0,10 10,0 0,-10 -10,0 z m 0,10 -10,0 0,10 10,0 0,-10 z m 0,10 0,10 10,0 0,-10 -10,0 z m 0,10 -10,0 0,10 10,0 0,-10 z m 0,10 0,10 10,0 0,-10 -10,0 z m 0,10 -10,0 0,10 10,0 0,-10 z m 0,10 0,10 10,0 0,-10 -10,0 z m 0,10 -10,0 0,10 10,0 0,-10 z m 0,10 0,10 10,0 0,-10 -10,0 z m 0,10 -10,0 0,10 10,0 0,-10 z m 0,10 0,10 10,0 0,-10 -10,0 z m 0,10 -10,0 0,10 10,0 0,-10 z m 0,10 0,10 10,0 0,-10 -10,0 z m 0,10 -10,0 0,10 10,0 0,-10 z m 0,10 0,10 10,0 0,-10 -10,0 z m 0,10 -10,0 0,10 10,0 0,-10 z m 0,10 0,10 10,0 0,-10 -10,0 z m 0,10 -10,0 0,10 10,0 0,-10 z m 0,10 0,10 10,0 0,-10 -10,0 z m 0,10 -10,0 0,10 10,0 0,-10 z m 0,10 0,10 10,0 0,-10 -10,0 z m 0,10 -10,0 0,10 10,0 0,-10 z m 0,10 0,10 10,0 0,-10 -10,0 z m 0,10 -10,0 0,10 10,0 0,-10 z m 0,10 0,10 10,0 0,-10 -10,0 z m 0,10 -10,0 0,10 10,0 0,-10 z m 0,10 0,10 10,0 0,-10 -10,0 z m -10,0 -10,0 0,10 10,0 0,-10 z m -10,0 0,-10 -10,0 0,10 10,0 z m -10,0 -10,0 0,10 10,0 0,-10 z m -10,0 0,-10 -10,0 0,10 10,0 z m -10,0 -10,0 0,10 10,0 0,-10 z m -10,0 0,-10 -10,0 0,10 10,0 z m -10,0 -10,0 0,10 10,0 0,-10 z m -10,0 0,-10 -10,0 0,10 10,0 z m -10,0 -10,0 0,10 10,0 0,-10 z m -10,0 0,-10 -10,0 0,10 10,0 z m -10,0 -10,0 0,10 10,0 0,-10 z m -10,0 0,-10 -10,0 0,10 10,0 z m -10,0 -10,0 0,10 10,0 0,-10 z m -10,0 0,-10 -10,0 0,10 10,0 z m -10,0 -10,0 0,10 10,0 0,-10 z m -10,0 0,-10 -10,0 0,10 10,0 z m -10,0 -10,0 0,10 10,0 0,-10 z m -10,0 0,-10 -10,0 0,10 10,0 z m -10,0 -10,0 0,10 10,0 0,-10 z m -10,0 0,-10 -10,0 0,10 10,0 z m -10,0 -10,0 0,10 10,0 0,-10 z m -10,0 0,-10 -10,0 0,10 10,0 z m -10,0 -10,0 0,10 10,0 0,-10 z m -10,0 0,-10 -10,0 0,10 10,0 z m -10,0 -10,0 0,10 10,0 0,-10 z m -10,0 0,-10 -10,0 0,10 10,0 z m -10,0 -10,0 0,10 10,0 0,-10 z m -10,0 0,-10 -10,0 0,10 10,0 z m -10,0 -10,0 0,10 10,0 0,-10 z m -10,0 0,-10 -10,0 0,10 10,0 z m -10,0 -10,0 0,10 10,0 0,-10 z m -10,0 0,-10 -10,0 0,10 10,0 z m -10,0 -10,0 0,10 10,0 0,-10 z m -10,0 0,-10 -10,0 0,10 10,0 z m -10,0 -10,0 0,10 10,0 0,-10 z m -10,0 0,-10 -10,0 0,10 10,0 z m -10,0 -10,0 0,10 10,0 0,-10 z m -10,0 0,-10 -10,0 0,10 10,0 z m -10,0 -10,0 0,10 10,0 0,-10 z m -10,0 0,-10 -10,0 0,10 10,0 z m -10,0 -10,0 0,10 10,0 0,-10 z m -10,0 0,-10 -10,0 0,10 10,0 z m -10,0 -10,0 0,10 10,0 0,-10 z m -10,0 0,-10 -10,0 0,10 10,0 z m -10,0 -10,0 0,10 10,0 0,-10 z m -10,0 0,-10 -10,0 0,10 10,0 z m -10,0 -10,0 0,10 10,0 0,-10 z m -10,0 0,-10 -10,0 0,10 10,0 z m -10,0 -10,0 0,10 10,0 0,-10 z m -10,0 0,-10 -10,0 0,10 10,0 z m -10,0 -10,0 0,10 10,0 0,-10 z m -10,0 0,-10 -10,0 0,10 10,0 z m -10,0 -10,0 0,10 10,0 0,-10 z m -10,0 0,-10 -10,0 0,10 10,0 z m -10,0 -10,0 0,10 10,0 0,-10 z m -10,0 0,-10 -10,0 0,10 10,0 z m -10,0 -10,0 0,10 10,0 0,-10 z m -10,0 0,-10 -10,0 0,10 10,0 z m -10,0 -10,0 0,10 10,0 0,-10 z m -10,0 0,-10 -10,0 0,10 10,0 z m -10,0 -10,0 0,10 10,0 0,-10 z m -10,0 0,-10 -10,0 0,10 10,0 z m -10,0 -10,0 0,10 10,0 0,-10 z m -10,0 0,-10 -10,0 0,10 10,0 z m -10,0 -10,0 0,10 10,0 0,-10 z m -10,0 0,-10 -10,0 0,10 10,0 z m -10,0 -10,0 0,10 10,0 0,-10 z m -10,0 0,-10 -10,0 0,10 10,0 z m -10,0 -10,0 0,10 10,0 0,-10 z m -10,0 0,-10 -10,0 0,10 10,0 z m -10,0 -10,0 0,10 10,0 0,-10 z m -10,0 0,-10 -10,0 0,10 10,0 z m -10,0 -10,0 0,10 10,0 0,-10 z m -10,0 0,-10 -10,0 0,10 10,0 z m 0,-10 10,0 0,-10 -10,0 0,10 z m 0,-10 0,-10 -10,0 0,10 10,0 z m 0,-10 10,0 0,-10 -10,0 0,10 z m 0,-10 0,-10 -10,0 0,10 10,0 z m 0,-10 10,0 0,-10 -10,0 0,10 z m 0,-10 0,-10 -10,0 0,10 10,0 z m 0,-10 10,0 0,-10 -10,0 0,10 z m 0,-10 0,-10 -10,0 0,10 10,0 z m 0,-10 10,0 0,-10 -10,0 0,10 z m 0,-10 0,-10 -10,0 0,10 10,0 z m 0,-10 10,0 0,-10 -10,0 0,10 z m 0,-10 0,-10 -10,0 0,10 10,0 z m 0,-10 10,0 0,-10 -10,0 0,10 z m 0,-10 0,-10 -10,0 0,10 10,0 z m 0,-10 10,0 0,-10 -10,0 0,10 z m 0,-10 0,-10 -10,0 0,10 10,0 z m 0,-10 10,0 0,-10 -10,0 0,10 z m 0,-10 0,-10 -10,0 0,10 10,0 z m 0,-10 10,0 0,-10 -10,0 0,10 z m 0,-10 0,-10 -10,0 0,10 10,0 z m 0,-10 10,0 0,-10 -10,0 0,10 z m 0,-10 0,-10 -10,0 0,10 10,0 z m 0,-10 10,0 0,-10 -10,0 0,10 z m 0,-10 0,-10 -10,0 0,10 10,0 z m 0,-10 10,0 0,-10 -10,0 0,10 z m 0,-10 0,-10 -10,0 0,10 10,0 z m 0,-10 10,0 0,-10 -10,0 0,10 z m 0,-10 0,-10 -10,0 0,10 10,0 z m 0,-10 10,0 0,-10 -10,0 0,10 z m 0,-10 0,-10 -10,0 0,10 10,0 z m 0,-10 10,0 0,-10 -10,0 0,10 z m 0,-10 0,-10 -10,0 0,10 10,0 z m 0,-10 10,0 0,-10 -10,0 0,10 z m 0,-10 0,-10 -10,0 0,10 10,0 z m 0,-10 10,0 0,-10 -10,0 0,10 z m 0,-10 0,-10 -10,0 0,10 10,0 z m 0,-10 10,0 0,-10 -10,0 0,10 z m 0,-10 0,-10 -10,0 0,10 10,0 z m 0,-10 10,0 0,-10 -10,0 0,10 z m 0,-10 0,-10 -10,0 0,10 10,0 z m 0,-10 10,0 0,-10 -10,0 0,10 z m 0,-10 0,-10 -10,0 0,10 10,0 z m 0,-10 10,0 0,-10 -10,0 0,10 z m 0,-10 0,-10 -10,0 0,10 10,0 z m 0,-10 10,0 0,-10 -10,0 0,10 z m 0,-10 0,-10 -10,0 0,10 10,0 z m 0,-10 10,0 0,-10 -10,0 0,10 z m 0,-10 0,-10 -10,0 0,10 10,0 z m 0,-10 10,0 0,-10 -10,0 0,10 z m 0,-10 0,-10 -10,0 0,10 10,0 z m 0,-10 10,0 0,-10 -10,0 0,10 z m 0,-10 0,-10 -10,0 0,10 10,0 z m 10,0 10,0 0,-10 -10,0 0,10 z m 10,0 0,10 10,0 0,-10 -10,0 z m 10,0 10,0 0,-10 -10,0 0,10 z m 10,0 0,10 10,0 0,-10 -10,0 z m 10,0 10,0 0,-10 -10,0 0,10 z m 10,0 0,10 10,0 0,-10 -10,0 z m 10,0 10,0 0,-10 -10,0 0,10 z m 10,0 0,10 10,0 0,-10 -10,0 z m 10,0 10,0 0,-10 -10,0 0,10 z m 10,0 0,10 10,0 0,-10 -10,0 z m 10,0 10,0 0,-10 -10,0 0,10 z m 10,0 0,10 10,0 0,-10 -10,0 z m 10,0 10,0 0,-10 -10,0 0,10 z m 10,0 0,10 10,0 0,-10 -10,0 z m 10,0 10,0 0,-10 -10,0 0,10 z m 10,0 0,10 10,0 0,-10 -10,0 z m 10,0 10,0 0,-10 -10,0 0,10 z m 10,0 0,10 10,0 0,-10 -10,0 z m 10,0 10,0 0,-10 -10,0 0,10 z m 10,0 0,10 10,0 0,-10 -10,0 z m 10,0 10,0 0,-10 -10,0 0,10 z m 10,0 0,10 10,0 0,-10 -10,0 z m 10,0 10,0 0,-10 -10,0 0,10 z m 10,0 0,10 10,0 0,-10 -10,0 z m 10,0 10,0 0,-10 -10,0 0,10 z m 10,0 0,10 10,0 0,-10 -10,0 z m 10,0 10,0 0,-10 -10,0 0,10 z m 10,0 0,10 10,0 0,-10 -10,0 z m 10,0 10,0 0,-10 -10,0 0,10 z m 10,0 0,10 10,0 0,-10 -10,0 z m 10,0 10,0 0,-10 -10,0 0,10 z m 10,0 0,10 10,0 0,-10 -10,0 z m 10,0 10,0 0,-10 -10,0 0,10 z m 10,0 0,10 10,0 0,-10 -10,0 z m 10,0 10,0 0,-10 -10,0 0,10 z m 10,0 0,10 10,0 0,-10 -10,0 z m 10,0 10,0 0,-10 -10,0 0,10 z m 10,0 0,10 10,0 0,-10 -10,0 z m 10,0 10,0 0,-10 -10,0 0,10 z m 10,0 0,10 10,0 0,-10 -10,0 z m 10,0 10,0 0,-10 -10,0 0,10 z m 10,0 0,10 10,0 0,-10 -10,0 z m 10,0 10,0 0,-10 -10,0 0,10 z m 10,0 0,10 10,0 0,-10 -10,0 z m 10,0 10,0 0,-10 -10,0 0,10 z m 10,0 0,10 10,0 0,-10 -10,0 z m 10,0 10,0 0,-10 -10,0 0,10 z m 10,0 0,10 10,0 0,-10 -10,0 z m 10,0 10,0 0,-10 -10,0 0,10 z m 10,0 0,10 10,0 0,-10 -10,0 z m 10,0 10,0 0,-10 -10,0 0,10 z m 10,0 0,10 10,0 0,-10 -10,0 z m 10,0 10,0 0,-10 -10,0 0,10 z m 10,0 0,10 10,0 0,-10 -10,0 z m 10,0 10,0 0,-10 -10,0 0,10 z m 10,0 0,10 10,0 0,-10 -10,0 z m 10,0 10,0 0,-10 -10,0 0,10 z m 10,0 0,10 10,0 0,-10 -10,0 z m 10,0 10,0 0,-10 -10,0 0,10 z m 10,0 0,10 10,0 0,-10 -10,0 z m 10,0 10,0 0,-10 -10,0 0,10 z m 10,0 0,10 10,0 0,-10 -10,0 z m 10,0 10,0 0,-10 -10,0 0,10 z m 10,0 0,10 10,0 0,-10 -10,0 z m 10,0 10,0 0,-10 -10,0 0,10 z m 10,0 0,10 10,0 0,-10 -10,0 z m 10,0 10,0 0,-10 -10,0 0,10 z m 10,0 0,10 10,0 0,-10 -10,0 z m 10,0 10,0 0,-10 -10,0 0,10 z m 10,0 0,10 10,0 0,-10 -10,0 z m 10,0 10,0 0,-10 -10,0 0,10 z m 10,0 0,10 10,0 0,-10 -10,0 z m 0,10 -10,0 0,10 10,0 0,-10 z m 0,10 0,10 10,0 0,-10 -10,0 z m 0,10 -10,0 0,10 10,0 0,-10 z m 0,10 0,10 10,0 0,-10 -10,0 z m 0,10 -10,0 0,10 10,0 0,-10 z m 0,10 0,10 10,0 0,-10 -10,0 z m 0,10 -10,0 0,10 10,0 0,-10 z m 0,10 0,10 10,0 0,-10 -10,0 z m 0,10 -10,0 0,10 10,0 0,-10 z m 0,10 0,10 10,0 0,-10 -10,0 z m 0,10 -10,0 0,10 10,0 0,-10 z m 0,10 0,10 10,0 0,-10 -10,0 z m 0,10 -10,0 0,10 10,0 0,-10 z m 0,10 0,10 10,0 0,-10 -10,0 z m 0,10 -10,0 0,10 10,0 0,-10 z m 0,10 0,10 10,0 0,-10 -10,0 z m 0,10 -10,0 0,10 10,0 0,-10 z m 0,10 0,10 10,0 0,-10 -10,0 z m 0,10 -10,0 0,10 10,0 0,-10 z m 0,10 0,10 10,0 0,-10 -10,0 z m 0,10 -10,0 0,10 10,0 0,-10 z m 0,10 0,10 10,0 0,-10 -10,0 z m 0,10 -10,0 0,10 10,0 0,-10 z m 0,10 0,10 10,0 0,-10 -10,0 z m 0,10 -10,0 0,10 10,0 0,-10 z m 0,10 0,10 10,0 0,-10 -10,0 z m 0,10 -10,0 0,10 10,0 0,-10 z m 0,10 0,10 10,0 0,-10 -10,0 z m 0,10 -10,0 0,10 10,0 0,-10 z m 0,10 0,10 10,0 0,-10 -10,0 z m 0,10 -10,0 0,10 10,0 0,-10 z m 0,10 0,10 10,0 0,-10 -10,0 z m 0,10 -10,0 0,10 10,0 0,-10 z m 0,10 0,10 10,0 0,-10 -10,0 z m 0,10 -10,0 0,10 10,0 0,-10 z m 0,10 0,10 10,0 0,-10 -10,0 z m 0,10 -10,0 0,10 10,0 0,-10 z m 0,10 0,10 10,0 0,-10 -10,0 z m 0,10 -10,0 0,10 10,0 0,-10 z m 0,10 0,10 10,0 0,-10 -10,0 z m 0,10 -10,0 0,10 10,0 0,-10 z m 0,10 0,10 10,0 0,-10 -10,0 z m 0,10 -10,0 0,10 10,0 0,-10 z m 0,10 0,10 10,0 0,-10 -10,0 z m 0,10 -10,0 0,10 10,0 0,-10 z m 0,10 0,10 10,0 0,-10 -10,0 z m 0,10 -10,0 0,10 10,0 0,-10 z m 0,10 0,10 10,0 0,-10 -10,0 z m 0,10 -10,0 0,10 10,0 0,-10 z m 0,10 0,10 10,0 0,-10 -10,0 z m -10,0 -10,0 0,10 10,0 0,-10 z m -10,0 0,-10 -10,0 0,10 10,0 z m -10,0 -10,0 0,10 10,0 0,-10 z m -10,0 0,-10 -10,0 0,10 10,0 z m -10,0 -10,0 0,10 10,0 0,-10 z m -10,0 0,-10 -10,0 0,10 10,0 z m -10,0 -10,0 0,10 10,0 0,-10 z m -10,0 0,-10 -10,0 0,10 10,0 z m -10,0 -10,0 0,10 10,0 0,-10 z m -10,0 0,-10 -10,0 0,10 10,0 z m -10,0 -10,0 0,10 10,0 0,-10 z m -10,0 0,-10 -10,0 0,10 10,0 z m -10,0 -10,0 0,10 10,0 0,-10 z m -10,0 0,-10 -10,0 0,10 10,0 z m -10,0 -10,0 0,10 10,0 0,-10 z m -10,0 0,-10 -10,0 0,10 10,0 z m -10,0 -10,0 0,10 10,0 0,-10 z m -10,0 0,-10 -10,0 0,10 10,0 z m -10,0 -10,0 0,10 10,0 0,-10 z m -10,0 0,-10 -10,0 0,10 10,0 z m -10,0 -10,0 0,10 10,0 0,-10 z m -10,0 0,-10 -10,0 0,10 10,0 z m -10,0 -10,0 0,10 10,0 0,-10 z m -10,0 0,-10 -10,0 0,10 10,0 z m -10,0 -10,0 0,10 10,0 0,-10 z m -10,0 0,-10 -10,0 0,10 10,0 z m -10,0 -10,0 0,10 10,0 0,-10 z m -10,0 0,-10 -10,0 0,10 10,0 z m -10,0 -10,0 0,10 10,0 0,-10 z m -10,0 0,-10 -10,0 0,10 10,0 z m -10,0 -10,0 0,10 10,0 0,-10 z m -10,0 0,-10 -10,0 0,10 10,0 z m -10,0 -10,0 0,10 10,0 0,-10 z m -10,0 0,-10 -10,0 0,10 10,0 z m -10,0 -10,0 0,10 10,0 0,-10 z m -10,0 0,-10 -10,0 0,10 10,0 z m -10,0 -10,0 0,10 10,0 0,-10 z m -10,0 0,-10 -10,0 0,10 10,0 z m -10,0 -10,0 0,10 10,0 0,-10 z m -10,0 0,-10 -10,0 0,10 10,0 z m -10,0 -10,0 0,10 10,0 0,-10 z m -10,0 0,-10 -10,0 0,10 10,0 z m -10,0 -10,0 0,10 10,0 0,-10 z m -10,0 0,-10 -10,0 0,10 10,0 z m -10,0 -10,0 0,10 10,0 0,-10 z m -10,0 0,-10 -10,0 0,10 10,0 z m -10,0 -10,0 0,10 10,0 0,-10 z m -10,0 0,-10 -10,0 0,10 10,0 z m -10,0 -10,0 0,10 10,0 0,-10 z m -10,0 0,-10 -10,0 0,10 10,0 z m -10,0 -10,0 0,10 10,0 0,-10 z m -10,0 0,-10 -10,0 0,10 10,0 z m -10,0 -10,0 0,10 10,0 0,-10 z m -10,0 0,-10 -10,0 0,10 10,0 z m -10,0 -10,0 0,10 10,0 0,-10 z m -10,0 0,-10 -10,0 0,10 10,0 z m -10,0 -10,0 0,10 10,0 0,-10 z m -10,0 0,-10 -10,0 0,10 10,0 z m -10,0 -10,0 0,10 10,0 0,-10 z m -10,0 0,-10 -10,0 0,10 10,0 z m -10,0 -10,0 0,10 10,0 0,-10 z m -10,0 0,-10 -10,0 0,10 10,0 z m -10,0 -10,0 0,10 10,0 0,-10 z m -10,0 0,-10 -10,0 0,10 10,0 z m -10,0 -10,0 0,10 10,0 0,-10 z m -10,0 0,-10 -10,0 0,10 10,0 z m -10,0 -10,0 0,10 10,0 0,-10 z m -10,0 0,-10 -10,0 0,10 10,0 z m -10,0 -10,0 0,10 10,0 0,-10 z m -10,0 0,-10 -10,0 0,10 10,0 z m 0,-10 10,0 0,-10 -10,0 0,10 z m 0,-10 0,-10 -10,0 0,10 10,0 z m 0,-10 10,0 0,-10 -10,0 0,10 z m 0,-10 0,-10 -10,0 0,10 10,0 z m 0,-10 10,0 0,-10 -10,0 0,10 z m 0,-10 0,-10 -10,0 0,10 10,0 z m 0,-10 10,0 0,-10 -10,0 0,10 z m 0,-10 0,-10 -10,0 0,10 10,0 z m 0,-10 10,0 0,-10 -10,0 0,10 z m 0,-10 0,-10 -10,0 0,10 10,0 z m 0,-10 10,0 0,-10 -10,0 0,10 z m 0,-10 0,-10 -10,0 0,10 10,0 z m 0,-10 10,0 0,-10 -10,0 0,10 z m 0,-10 0,-10 -10,0 0,10 10,0 z m 0,-10 10,0 0,-10 -10,0 0,10 z m 0,-10 0,-10 -10,0 0,10 10,0 z m 0,-10 10,0 0,-10 -10,0 0,10 z m 0,-10 0,-10 -10,0 0,10 10,0 z m 0,-10 10,0 0,-10 -10,0 0,10 z m 0,-10 0,-10 -10,0 0,10 10,0 z m 0,-10 10,0 0,-10 -10,0 0,10 z m 0,-10 0,-10 -10,0 0,10 10,0 z m 0,-10 10,0 0,-10 -10,0 0,10 z m 0,-10 0,-10 -10,0 0,10 10,0 z m 0,-10 10,0 0,-10 -10,0 0,10 z m 0,-10 0,-10 -10,0 0,10 10,0 z m 0,-10 10,0 0,-10 -10,0 0,10 z m 0,-10 0,-10 -10,0 0,10 10,0 z m 0,-10 10,0 0,-10 -10,0 0,10 z m 0,-10 0,-10 -10,0 0,10 10,0 z m 0,-10 10,0 0,-10 -10,0 0,10 z m 0,-10 0,-10 -10,0 0,10 10,0 z m 0,-10 10,0 0,-10 -10,0 0,10 z m 0,-10 0,-10 -10,0 0,10 10,0 z m 0,-10 10,0 0,-10 -10,0 0,10 z m 0,-10 0,-10 -10,0 0,10 10,0 z m 0,-10 10,0 0,-10 -10,0 0,10 z m 0,-10 0,-10 -10,0 0,10 10,0 z m 0,-10 10,0 0,-10 -10,0 0,10 z m 0,-10 0,-10 -10,0 0,10 10,0 z m 0,-10 10,0 0,-10 -10,0 0,10 z m 0,-10 0,-10 -10,0 0,10 10,0 z m 0,-10 10,0 0,-10 -10,0 0,10 z m 0,-10 0,-10 -10,0 0,10 10,0 z m 0,-10 10,0 0,-10 -10,0 0,10 z m 0,-10 0,-10 -10,0 0,10 10,0 z m 0,-10 10,0 0,-10 -10,0 0,10 z m 0,-10 0,-10 -10,0 0,10 10,0 z m 10,0 10,0 0,-10 -10,0 0,10 z m 10,0 0,10 10,0 0,-10 -10,0 z m 10,0 10,0 0,-10 -10,0 0,10 z m 10,0 0,10 10,0 0,-10 -10,0 z m 10,0 10,0 0,-10 -10,0 0,10 z m 10,0 0,10 10,0 0,-10 -10,0 z m 10,0 10,0 0,-10 -10,0 0,10 z m 10,0 0,10 10,0 0,-10 -10,0 z m 10,0 10,0 0,-10 -10,0 0,10 z m 10,0 0,10 10,0 0,-10 -10,0 z m 10,0 10,0 0,-10 -10,0 0,10 z m 10,0 0,10 10,0 0,-10 -10,0 z m 10,0 10,0 0,-10 -10,0 0,10 z m 10,0 0,10 10,0 0,-10 -10,0 z m 10,0 10,0 0,-10 -10,0 0,10 z m 10,0 0,10 10,0 0,-10 -10,0 z m 10,0 10,0 0,-10 -10,0 0,10 z m 10,0 0,10 10,0 0,-10 -10,0 z m 10,0 10,0 0,-10 -10,0 0,10 z m 10,0 0,10 10,0 0,-10 -10,0 z m 10,0 10,0 0,-10 -10,0 0,10 z m 10,0 0,10 10,0 0,-10 -10,0 z m 10,0 10,0 0,-10 -10,0 0,10 z m 10,0 0,10 10,0 0,-10 -10,0 z m 10,0 10,0 0,-10 -10,0 0,10 z m 10,0 0,10 10,0 0,-10 -10,0 z m 10,0 10,0 0,-10 -10,0 0,10 z m 10,0 0,10 10,0 0,-10 -10,0 z m 10,0 10,0 0,-10 -10,0 0,10 z m 10,0 0,10 10,0 0,-10 -10,0 z m 10,0 10,0 0,-10 -10,0 0,10 z m 10,0 0,10 10,0 0,-10 -10,0 z m 10,0 10,0 0,-10 -10,0 0,10 z m 10,0 0,10 10,0 0,-10 -10,0 z m 10,0 10,0 0,-10 -10,0 0,10 z m 10,0 0,10 10,0 0,-10 -10,0 z m 10,0 10,0 0,-10 -10,0 0,10 z m 10,0 0,10 10,0 0,-10 -10,0 z m 10,0 10,0 0,-10 -10,0 0,10 z m 10,0 0,10 10,0 0,-10 -10,0 z m 10,0 10,0 0,-10 -10,0 0,10 z m 10,0 0,10 10,0 0,-10 -10,0 z m 10,0 10,0 0,-10 -10,0 0,10 z m 10,0 0,10 10,0 0,-10 -10,0 z m 10,0 10,0 0,-10 -10,0 0,10 z m 10,0 0,10 10,0 0,-10 -10,0 z m 10,0 10,0 0,-10 -10,0 0,10 z m 10,0 0,10 10,0 0,-10 -10,0 z m 10,0 10,0 0,-10 -10,0 0,10 z m 10,0 0,10 10,0 0,-10 -10,0 z m 10,0 10,0 0,-10 -10,0 0,10 z m 10,0 0,10 10,0 0,-10 -10,0 z m 10,0 10,0 0,-10 -10,0 0,10 z m 10,0 0,10 10,0 0,-10 -10,0 z m 10,0 10,0 0,-10 -10,0 0,10 z m 10,0 0,10 10,0 0,-10 -10,0 z m 10,0 10,0 0,-10 -10,0 0,10 z m 10,0 0,10 10,0 0,-10 -10,0 z m 10,0 10,0 0,-10 -10,0 0,10 z m 10,0 0,10 10,0 0,-10 -10,0 z m 10,0 10,0 0,-10 -10,0 0,10 z m 10,0 0,10 10,0 0,-10 -10,0 z m 10,0 10,0 0,-10 -10,0 0,10 z m 10,0 0,10 10,0 0,-10 -10,0 z m 10,0 10,0 0,-10 -10,0 0,10 z m 10,0 0,10 10,0 0,-10 -10,0 z m 10,0 10,0 0,-10 -10,0 0,10 z m 10,0 0,10 10,0 0,-10 -10,0 z m 0,10 -10,0 0,10 10,0 0,-10 z m 0,10 0,10 10,0 0,-10 -10,0 z m 0,10 -10,0 0,10 10,0 0,-10 z m 0,10 0,10 10,0 0,-10 -10,0 z m 0,10 -10,0 0,10 10,0 0,-10 z m 0,10 0,10 10,0 0,-10 -10,0 z m 0,10 -10,0 0,10 10,0 0,-10 z m 0,10 0,10 10,0 0,-10 -10,0 z m 0,10 -10,0 0,10 10,0 0,-10 z m 0,10 0,10 10,0 0,-10 -10,0 z m 0,10 -10,0 0,10 10,0 0,-10 z m 0,10 0,10 10,0 0,-10 -10,0 z m 0,10 -10,0 0,10 10,0 0,-10 z m 0,10 0,10 10,0 0,-10 -10,0 z m 0,10 -10,0 0,10 10,0 0,-10 z m 0,10 0,10 10,0 0,-10 -10,0 z m 0,10 -10,0 0,10 10,0 0,-10 z m 0,10 0,10 10,0 0,-10 -10,0 z m 0,10 -10,0 0,10 10,0 0,-10 z m 0,10 0,10 10,0 0,-10 -10,0 z m 0,10 -10,0 0,10 10,0 0,-10 z m 0,10 0,10 10,0 0,-10 -10,0 z m 0,10 -10,0 0,10 10,0 0,-10 z m 0,10 0,10 10,0 0,-10 -10,0 z m 0,10 -10,0 0,10 10,0 0,-10 z m 0,10 0,10 10,0 0,-10 -10,0 z m 0,10 -10,0 0,10 10,0 0,-10 z m 0,10 0,10 10,0 0,-10 -10,0 z m 0,10 -10,0 0,10 10,0 0,-10 z m 0,10 0,10 10,0 0,-10 -10,0 z m 0,10 -10,0 0,10 10,0 0,-10 z m 0,10 0,10 10,0 0,-10 -10,0 z m 0,10 -10,0 0,10 10,0 0,-10 z m 0,10 0,10 10,0 0,-10 -10,0 z m 0,10 -10,0 0,10 10,0 0,-10 z m 0,10 0,10 10,0 0,-10 -10,0 z m 0,10 -10,0 0,10 10,0 0,-10 z m 0,10 0,10 10,0 0,-10 -10,0 z m 0,10 -10,0 0,10 10,0 0,-10 z m 0,10 0,10 10,0 0,-10 -10,0 z m 0,10 -10,0 0,10 10,0 0,-10 z m 0,10 0,10 10,0 0,-10 -10,0 z m 0,10 -10,0 0,10 10,0 0,-10 z m 0,10 0,10 10,0 0,-10 -10,0 z m 0,10 -10,0 0,10 10,0 0,-10 z m 0,10 0,10 10,0 0,-10 -10,0 z m -10,0 -10,0 0,10 10,0 0,-10 z m -10,0 0,-10 -10,0 0,10 10,0 z m -10,0 -10,0 0,10 10,0 0,-10 z m -10,0 0,-10 -10,0 0,10 10,0 z m -10,0 -10,0 0,10 10,0 0,-10 z m -10,0 0,-10 -10,0 0,10 10,0 z m -10,0 -10,0 0,10 10,0 0,-10 z m -10,0 0,-10 -10,0 0,10 10,0 z m -10,0 -10,0 0,10 10,0 0,-10 z m -10,0 0,-10 -10,0 0,10 10,0 z m -10,0 -10,0 0,10 10,0 0,-10 z m -10,0 0,-10 -10,0 0,10 10,0 z m -10,0 -10,0 0,10 10,0 0,-10 z m -10,0 0,-10 -10,0 0,10 10,0 z m -10,0 -10,0 0,10 10,0 0,-10 z m -10,0 0,-10 -10,0 0,10 10,0 z m -10,0 -10,0 0,10 10,0 0,-10 z m -10,0 0,-10 -10,0 0,10 10,0 z m -10,0 -10,0 0,10 10,0 0,-10 z m -10,0 0,-10 -10,0 0,10 10,0 z m -10,0 -10,0 0,10 10,0 0,-10 z m -10,0 0,-10 -10,0 0,10 10,0 z m -10,0 -10,0 0,10 10,0 0,-10 z m -10,0 0,-10 -10,0 0,10 10,0 z m -10,0 -10,0 0,10 10,0 0,-10 z m -10,0 0,-10 -10,0 0,10 10,0 z m -10,0 -10,0 0,10 10,0 0,-10 z m -10,0 0,-10 -10,0 0,10 10,0 z m -10,0 -10,0 0,10 10,0 0,-10 z m -10,0 0,-10 -10,0 0,10 10,0 z m -10,0 -10,0 0,10 10,0 0,-10 z m -10,0 0,-10 -10,0 0,10 10,0 z m -10,0 -10,0 0,10 10,0 0,-10 z m -10,0 0,-10 -10,0 0,10 10,0 z m -10,0 -10,0 0,10 10,0 0,-10 z m -10,0 0,-10 -10,0 0,10 10,0 z m -10,0 -10,0 0,10 10,0 0,-10 z m -10,0 0,-10 -10,0 0,10 10,0 z m -10,0 -10,0 0,10 10,0 0,-10 z m -10,0 0,-10 -10,0 0,10 10,0 z m -10,0 -10,0 0,10 10,0 0,-10 z m -10,0 0,-10 -10,0 0,10 10,0 z m -10,0 -10,0 0,10 10,0 0,-10 z m -10,0 0,-10 -10,0 0,10 10,0 z m -10,0 -10,0 0,10 10,0 0,-10 z m -10,0 0,-10 -10,0 0,10 10,0 z m -10,0 -10,0 0,10 10,0 0,-10 z m -10,0 0,-10 -10,0 0,10 10,0 z m -10,0 -10,0 0,10 10,0 0,-10 z m -10,0 0,-10 -10,0 0,10 10,0 z m -10,0 -10,0 0,10 10,0 0,-10 z m -10,0 0,-10 -10,0 0,10 10,0 z m -10,0 -10,0 0,10 10,0 0,-10 z m -10,0 0,-10 -10,0 0,10 10,0 z m -10,0 -10,0 0,10 10,0 0,-10 z m -10,0 0,-10 -10,0 0,10 10,0 z m -10,0 -10,0 0,10 10,0 0,-10 z m -10,0 0,-10 -10,0 0,10 10,0 z m -10,0 -10,0 0,10 10,0 0,-10 z m -10,0 0,-10 -10,0 0,10 10,0 z m -10,0 -10,0 0,10 10,0 0,-10 z m -10,0 0,-10 -10,0 0,10 10,0 z m -10,0 -10,0 0,10 10,0 0,-10 z m -10,0 0,-10 -10,0 0,10 10,0 z m -10,0 -10,0 0,10 10,0 0,-10 z m -10,0 0,-10 -10,0 0,10 10,0 z m 0,-10 10,0 0,-10 -10,0 0,10 z m 0,-10 0,-10 -10,0 0,10 10,0 z m 0,-10 10,0 0,-10 -10,0 0,10 z m 0,-10 0,-10 -10,0 0,10 10,0 z m 0,-10 10,0 0,-10 -10,0 0,10 z m 0,-10 0,-10 -10,0 0,10 10,0 z m 0,-10 10,0 0,-10 -10,0 0,10 z m 0,-10 0,-10 -10,0 0,10 10,0 z m 0,-10 10,0 0,-10 -10,0 0,10 z m 0,-10 0,-10 -10,0 0,10 10,0 z m 0,-10 10,0 0,-10 -10,0 0,10 z m 0,-10 0,-10 -10,0 0,10 10,0 z m 0,-10 10,0 0,-10 -10,0 0,10 z m 0,-10 0,-10 -10,0 0,10 10,0 z m 0,-10 10,0 0,-10 -10,0 0,10 z m 0,-10 0,-10 -10,0 0,10 10,0 z m 0,-10 10,0 0,-10 -10,0 0,10 z m 0,-10 0,-10 -10,0 0,10 10,0 z m 0,-10 10,0 0,-10 -10,0 0,10 z m 0,-10 0,-10 -10,0 0,10 10,0 z m 0,-10 10,0 0,-10 -10,0 0,10 z m 0,-10 0,-10 -10,0 0,10 10,0 z m 0,-10 10,0 0,-10 -10,0 0,10 z m 0,-10 0,-10 -10,0 0,10 10,0 z m 0,-10 10,0 0,-10 -10,0 0,10 z m 0,-10 0,-10 -10,0 0,10 10,0 z m 0,-10 10,0 0,-10 -10,0 0,10 z m 0,-10 0,-10 -10,0 0,10 10,0 z m 0,-10 10,0 0,-10 -10,0 0,10 z m 0,-10 0,-10 -10,0 0,10 10,0 z m 0,-10 10,0 0,-10 -10,0 0,10 z m 0,-10 0,-10 -10,0 0,10 10,0 z m 0,-10 10,0 0,-10 -10,0 0,10 z m 0,-10 0,-10 -10,0 0,10 10,0 z m 0,-10 10,0 0,-10 -10,0 0,10 z m 0,-10 0,-10 -10,0 0,10 10,0 z m 0,-10 10,0 0,-10 -10,0 0,10 z m 0,-10 0,-10 -10,0 0,10 10,0 z m 0,-10 10,0 0,-10 -10,0 0,10 z m 0,-10 0,-10 -10,0 0,10 10,0 z m 0,-10 10,0 0,-10 -10,0 0,10 z m 0,-10 0,-10 -10,0 0,10 10,0 z m 0,-10 10,0 0,-10 -10,0 0,10 z m 0,-10 0,-10 -10,0 0,10 10,0 z m 10,0 10,0 0,-10 -10,0 0,10 z m 10,0 0,10 10,0 0,-10 -10,0 z m 10,0 10,0 0,-10 -10,0 0,10 z m 10,0 0,10 10,0 0,-10 -10,0 z m 10,0 10,0 0,-10 -10,0 0,10 z m 10,0 0,10 10,0 0,-10 -10,0 z m 10,0 10,0 0,-10 -10,0 0,10 z m 10,0 0,10 10,0 0,-10 -10,0 z m 10,0 10,0 0,-10 -10,0 0,10 z m 10,0 0,10 10,0 0,-10 -10,0 z m 10,0 10,0 0,-10 -10,0 0,10 z m 10,0 0,10 10,0 0,-10 -10,0 z m 10,0 10,0 0,-10 -10,0 0,10 z m 10,0 0,10 10,0 0,-10 -10,0 z m 10,0 10,0 0,-10 -10,0 0,10 z m 10,0 0,10 10,0 0,-10 -10,0 z m 10,0 10,0 0,-10 -10,0 0,10 z m 10,0 0,10 10,0 0,-10 -10,0 z m 10,0 10,0 0,-10 -10,0 0,10 z m 10,0 0,10 10,0 0,-10 -10,0 z m 10,0 10,0 0,-10 -10,0 0,10 z m 10,0 0,10 10,0 0,-10 -10,0 z m 10,0 10,0 0,-10 -10,0 0,10 z m 10,0 0,10 10,0 0,-10 -10,0 z m 10,0 10,0 0,-10 -10,0 0,10 z m 10,0 0,10 10,0 0,-10 -10,0 z m 10,0 10,0 0,-10 -10,0 0,10 z m 10,0 0,10 10,0 0,-10 -10,0 z m 10,0 10,0 0,-10 -10,0 0,10 z m 10,0 0,10 10,0 0,-10 -10,0 z m 10,0 10,0 0,-10 -10,0 0,10 z m 10,0 0,10 10,0 0,-10 -10,0 z m 10,0 10,0 0,-10 -10,0 0,10 z m 10,0 0,10 10,0 0,-10 -10,0 z m 10,0 10,0 0,-10 -10,0 0,10 z m 10,0 0,10 10,0 0,-10 -10,0 z m 10,0 10,0 0,-10 -10,0 0,10 z m 10,0 0,10 10,0 0,-10 -10,0 z m 10,0 10,0 0,-10 -10,0 0,10 z m 10,0 0,10 10,0 0,-10 -10,0 z m 10,0 10,0 0,-10 -10,0 0,10 z m 10,0 0,10 10,0 0,-10 -10,0 z m 10,0 10,0 0,-10 -10,0 0,10 z m 10,0 0,10 10,0 0,-10 -10,0 z m 10,0 10,0 0,-10 -10,0 0,10 z m 10,0 0,10 10,0 0,-10 -10,0 z m 10,0 10,0 0,-10 -10,0 0,10 z m 10,0 0,10 10,0 0,-10 -10,0 z m 10,0 10,0 0,-10 -10,0 0,10 z m 10,0 0,10 10,0 0,-10 -10,0 z m 10,0 10,0 0,-10 -10,0 0,10 z m 10,0 0,10 10,0 0,-10 -10,0 z m 10,0 10,0 0,-10 -10,0 0,10 z m 10,0 0,10 10,0 0,-10 -10,0 z m 10,0 10,0 0,-10 -10,0 0,10 z m 10,0 0,10 10,0 0,-10 -10,0 z m 10,0 10,0 0,-10 -10,0 0,10 z m 10,0 0,10 10,0 0,-10 -10,0 z m 10,0 10,0 0,-10 -10,0 0,10 z m 10,0 0,10 10,0 0,-10 -10,0 z m 10,0 10,0 0,-10 -10,0 0,10 z m 10,0 0,10 10,0 0,-10 -10,0 z m 10,0 10,0 0,-10 -10,0 0,10 z m 10,0 0,10 10,0 0,-10 -10,0 z m 0,10 -10,0 0,10 10,0 0,-10 z m 0,10 0,10 10,0 0,-10 -10,0 z m 0,10 -10,0 0,10 10,0 0,-10 z m 0,10 0,10 10,0 0,-10 -10,0 z m 0,10 -10,0 0,10 10,0 0,-10 z m 0,10 0,10 10,0 0,-10 -10,0 z m 0,10 -10,0 0,10 10,0 0,-10 z m 0,10 0,10 10,0 0,-10 -10,0 z m 0,10 -10,0 0,10 10,0 0,-10 z m 0,10 0,10 10,0 0,-10 -10,0 z m 0,10 -10,0 0,10 10,0 0,-10 z m 0,10 0,10 10,0 0,-10 -10,0 z m 0,10 -10,0 0,10 10,0 0,-10 z m 0,10 0,10 10,0 0,-10 -10,0 z m 0,10 -10,0 0,10 10,0 0,-10 z m 0,10 0,10 10,0 0,-10 -10,0 z m 0,10 -10,0 0,10 10,0 0,-10 z m 0,10 0,10 10,0 0,-10 -10,0 z m 0,10 -10,0 0,10 10,0 0,-10 z m 0,10 0,10 10,0 0,-10 -10,0 z m 0,10 -10,0 0,10 10,0 0,-10 z m 0,10 0,10 10,0 0,-10 -10,0 z m 0,10 -10,0 0,10 10,0 0,-10 z m 0,10 0,10 10,0 0,-10 -10,0 z m 0,10 -10,0 0,10 10,0 0,-10 z m 0,10 0,10 10,0 0,-10 -10,0 z m 0,10 -10,0 0,10 10,0 0,-10 z m 0,10 0,10 10,0 0,-10 -10,0 z m 0,10 -10,0 0,10 10,0 0,-10 z m 0,10 0,10 10,0 0,-10 -10,0 z m 0,10 -10,0 0,10 10,0 0,-10 z m 0,10 0,10 10,0 0,-10 -10,0 z m 0,10 -10,0 0,10 10,0 0,-10 z m 0,10 0,10 10,0 0,-10 -10,0 z m 0,10 -10,0 0,10 10,0 0,-10 z m 0,10 0,10 10,0 0,-10 -10,0 z m 0,10 -10,0 0,10 10,0 0,-10 z m 0,10 0,10 10,0 0,-10 -10,0 z m 0,10 -10,0 0,10 10,0 0,-10 z m 0,10 0,10 10,0 0,-10 -10,0 z m 0,10 -10,0 0,10 10,0 0,-10 z m 0,10 0,10 10,0 0,-10 -10,0 z m -10,0 -10,0 0,10 10,0 0,-10 z m -10,0 0,-10 -10,0 0,10 10,0 z m -10,0 -10,0 0,10 10,0 0,-10 z m -10,0 0,-10 -10,0 0,10 10,0 z m -10,0 -10,0 0,10 10,0 0,-10 z m -10,0 0,-10 -10,0 0,10 10,0 z m -10,0 -10,0 0,10 10,0 0,-10 z m -10,0 0,-10 -10,0 0,10 10,0 z m -10,0 -10,0 0,10 10,0 0,-10 z m -10,0 0,-10 -10,0 0,10 10,0 z m -10,0 -10,0 0,10 10,0 0,-10 z m -10,0 0,-10 -10,0 0,10 10,0 z m -10,0 -10,0 0,10 10,0 0,-10 z m -10,0 0,-10 -10,0 0,10 10,0 z m -10,0 -10,0 0,10 10,0 0,-10 z m -10,0 0,-10 -10,0 0,10 10,0 z m -10,0 -10,0 0,10 10,0 0,-10 z m -10,0 0,-10 -10,0 0,10 10,0 z m -10,0 -10,0 0,10 10,0 0,-10 z m -10,0 0,-10 -10,0 0,10 10,0 z m -10,0 -10,0 0,10 10,0 0,-10 z m -10,0 0,-10 -10,0 0,10 10,0 z m -10,0 -10,0 0,10 10,0 0,-10 z m -10,0 0,-10 -10,0 0,10 10,0 z m -10,0 -10,0 0,10 10,0 0,-10 z m -10,0 0,-10 -10,0 0,10 10,0 z m -10,0 -10,0 0,10 10,0 0,-10 z m -10,0 0,-10 -10,0 0,10 10,0 z m -10,0 -10,0 0,10 10,0 0,-10 z m -10,0 0,-10 -10,0 0,10 10,0 z m -10,0 -10,0 0,10 10,0 0,-10 z m -10,0 0,-10 -10,0 0,10 10,0 z m -10,0 -10,0 0,10 10,0 0,-10 z m -10,0 0,-10 -10,0 0,10 10,0 z m -10,0 -10,0 0,10 10,0 0,-10 z m -10,0 0,-10 -10,0 0,10 10,0 z m -10,0 -10,0 0,10 10,0 0,-10 z m -10,0 0,-10 -10,0 0,10 10,0 z m -10,0 -10,0 0,10 10,0 0,-10 z m -10,0 0,-10 -10,0 0,10 10,0 z m -10,0 -10,0 0,10 10,0 0,-10 z m -10,0 0,-10 -10,0 0,10 10,0 z m -10,0 -10,0 0,10 10,0 0,-10 z m -10,0 0,-10 -10,0 0,10 10,0 z m -10,0 -10,0 0,10 10,0 0,-10 z m -10,0 0,-10 -10,0 0,10 10,0 z m -10,0 -10,0 0,10 10,0 0,-10 z m -10,0 0,-10 -10,0 0,10 10,0 z m -10,0 -10,0 0,10 10,0 0,-10 z m -10,0 0,-10 -10,0 0,10 10,0 z m -10,0 -10,0 0,10 10,0 0,-10 z m -10,0 0,-10 -10,0 0,10 10,0 z m -10,0 -10,0 0,10 10,0 0,-10 z m -10,0 0,-10 -10,0 0,10 10,0 z m -10,0 -10,0 0,10 10,0 0,-10 z m -10,0 0,-10 -10,0 0,10 10,0 z m -10,0 -10,0 0,10 10,0 0,-10 z m -10,0 0,-10 -10,0 0,10 10,0 z m -10,0 -10,0 0,10 10,0 0,-10 z m -10,0 0,-10 -10,0 0,10 10,0 z m -10,0 -10,0 0,10 10,0 0,-10 z m -10,0 0,-10 -10,0 0,10 10,0 z m 0,-10 10,0 0,-10 -10,0 0,10 z m 0,-10 0,-10 -10,0 0,10 10,0 z m 0,-10 10,0 0,-10 -10,0 0,10 z m 0,-10 0,-10 -10,0 0,10 10,0 z m 0,-10 10,0 0,-10 -10,0 0,10 z m 0,-10 0,-10 -10,0 0,10 10,0 z m 0,-10 10,0 0,-10 -10,0 0,10 z m 0,-10 0,-10 -10,0 0,10 10,0 z m 0,-10 10,0 0,-10 -10,0 0,10 z m 0,-10 0,-10 -10,0 0,10 10,0 z m 0,-10 10,0 0,-10 -10,0 0,10 z m 0,-10 0,-10 -10,0 0,10 10,0 z m 0,-10 10,0 0,-10 -10,0 0,10 z m 0,-10 0,-10 -10,0 0,10 10,0 z m 0,-10 10,0 0,-10 -10,0 0,10 z m 0,-10 0,-10 -10,0 0,10 10,0 z m 0,-10 10,0 0,-10 -10,0 0,10 z m 0,-10 0,-10 -10,0 0,10 10,0 z m 0,-10 10,0 0,-10 -10,0 0,10 z m 0,-10 0,-10 -10,0 0,10 10,0 z m 0,-10 10,0 0,-10 -10,0 0,10 z m 0,-10 0,-10 -10,0 0,10 10,0 z m 0,-10 10,0 0,-10 -10,0 0,10 z m 0,-10 0,-10 -10,0 0,10 10,0 z m 0,-10 10,0 0,-10 -10,0 0,10 z m 0,-10 0,-10 -10,0 0,10 10,0 z m 0,-10 10,0 0,-10 -10,0 0,10 z m 0,-10 0,-10 -10,0 0,10 10,0 z m 0,-10 10,0 0,-10 -10,0 0,10 z m 0,-10 0,-10 -10,0 0,10 10,0 z m 0,-10 10,0 0,-10 -10,0 0,10 z m 0,-10 0,-10 -10,0 0,10 10,0 z m 0,-10 10,0 0,-10 -10,0 0,10 z m 0,-10 0,-10 -10,0 0,10 10,0 z m 0,-10 10,0 0,-10 -10,0 0,10 z m 0,-10 0,-10 -10,0 0,10 10,0 z m 0,-10 10,0 0,-10 -10,0 0,10 z m 0,-10 0,-10 -10,0 0,10 10,0 z m 0,-10 10,0 0,-10 -10,0 0,10 z m 0,-10 0,-10 -10,0 0,10 10,0 z m 10,0 10,0 0,-10 -10,0 0,10 z m 10,0 0,10 10,0 0,-10 -10,0 z m 10,0 10,0 0,-10 -10,0 0,10 z m 10,0 0,10 10,0 0,-10 -10,0 z m 10,0 10,0 0,-10 -10,0 0,10 z m 10,0 0,10 10,0 0,-10 -10,0 z m 10,0 10,0 0,-10 -10,0 0,10 z m 10,0 0,10 10,0 0,-10 -10,0 z m 10,0 10,0 0,-10 -10,0 0,10 z m 10,0 0,10 10,0 0,-10 -10,0 z m 10,0 10,0 0,-10 -10,0 0,10 z m 10,0 0,10 10,0 0,-10 -10,0 z m 10,0 10,0 0,-10 -10,0 0,10 z m 10,0 0,10 10,0 0,-10 -10,0 z m 10,0 10,0 0,-10 -10,0 0,10 z m 10,0 0,10 10,0 0,-10 -10,0 z m 10,0 10,0 0,-10 -10,0 0,10 z m 10,0 0,10 10,0 0,-10 -10,0 z m 10,0 10,0 0,-10 -10,0 0,10 z m 10,0 0,10 10,0 0,-10 -10,0 z m 10,0 10,0 0,-10 -10,0 0,10 z m 10,0 0,10 10,0 0,-10 -10,0 z m 10,0 10,0 0,-10 -10,0 0,10 z m 10,0 0,10 10,0 0,-10 -10,0 z m 10,0 10,0 0,-10 -10,0 0,10 z m 10,0 0,10 10,0 0,-10 -10,0 z m 10,0 10,0 0,-10 -10,0 0,10 z m 10,0 0,10 10,0 0,-10 -10,0 z m 10,0 10,0 0,-10 -10,0 0,10 z m 10,0 0,10 10,0 0,-10 -10,0 z m 10,0 10,0 0,-10 -10,0 0,10 z m 10,0 0,10 10,0 0,-10 -10,0 z m 10,0 10,0 0,-10 -10,0 0,10 z m 10,0 0,10 10,0 0,-10 -10,0 z m 10,0 10,0 0,-10 -10,0 0,10 z m 10,0 0,10 10,0 0,-10 -10,0 z m 10,0 10,0 0,-10 -10,0 0,10 z m 10,0 0,10 10,0 0,-10 -10,0 z m 10,0 10,0 0,-10 -10,0 0,10 z m 10,0 0,10 10,0 0,-10 -10,0 z m 10,0 10,0 0,-10 -10,0 0,10 z m 10,0 0,10 10,0 0,-10 -10,0 z m 10,0 10,0 0,-10 -10,0 0,10 z m 10,0 0,10 10,0 0,-10 -10,0 z m 10,0 10,0 0,-10 -10,0 0,10 z m 10,0 0,10 10,0 0,-10 -10,0 z m 10,0 10,0 0,-10 -10,0 0,10 z m 10,0 0,10 10,0 0,-10 -10,0 z m 10,0 10,0 0,-10 -10,0 0,10 z m 10,0 0,10 10,0 0,-10 -10,0 z m 10,0 10,0 0,-10 -10,0 0,10 z m 10,0 0,10 10,0 0,-10 -10,0 z m 10,0 10,0 0,-10 -10,0 0,10 z m 10,0 0,10 10,0 0,-10 -10,0 z m 10,0 10,0 0,-10 -10,0 0,10 z m 10,0 0,10 10,0 0,-10 -10,0 z m 10,0 10,0 0,-10 -10,0 0,10 z m 10,0 0,10 10,0 0,-10 -10,0 z m 10,0 10,0 0,-10 -10,0 0,10 z m 10,0 0,10 10,0 0,-10 -10,0 z m 0,10 -10,0 0,10 10,0 0,-10 z m 0,10 0,10 10,0 0,-10 -10,0 z m 0,10 -10,0 0,10 10,0 0,-10 z m 0,10 0,10 10,0 0,-10 -10,0 z m 0,10 -10,0 0,10 10,0 0,-10 z m 0,10 0,10 10,0 0,-10 -10,0 z m 0,10 -10,0 0,10 10,0 0,-10 z m 0,10 0,10 10,0 0,-10 -10,0 z m 0,10 -10,0 0,10 10,0 0,-10 z m 0,10 0,10 10,0 0,-10 -10,0 z m 0,10 -10,0 0,10 10,0 0,-10 z m 0,10 0,10 10,0 0,-10 -10,0 z m 0,10 -10,0 0,10 10,0 0,-10 z m 0,10 0,10 10,0 0,-10 -10,0 z m 0,10 -10,0 0,10 10,0 0,-10 z m 0,10 0,10 10,0 0,-10 -10,0 z m 0,10 -10,0 0,10 10,0 0,-10 z m 0,10 0,10 10,0 0,-10 -10,0 z m 0,10 -10,0 0,10 10,0 0,-10 z m 0,10 0,10 10,0 0,-10 -10,0 z m 0,10 -10,0 0,10 10,0 0,-10 z m 0,10 0,10 10,0 0,-10 -10,0 z m 0,10 -10,0 0,10 10,0 0,-10 z m 0,10 0,10 10,0 0,-10 -10,0 z m 0,10 -10,0 0,10 10,0 0,-10 z m 0,10 0,10 10,0 0,-10 -10,0 z m 0,10 -10,0 0,10 10,0 0,-10 z m 0,10 0,10 10,0 0,-10 -10,0 z m 0,10 -10,0 0,10 10,0 0,-10 z m 0,10 0,10 10,0 0,-10 -10,0 z m 0,10 -10,0 0,10 10,0 0,-10 z m 0,10 0,10 10,0 0,-10 -10,0 z m 0,10 -10,0 0,10 10,0 0,-10 z m 0,10 0,10 10,0 0,-10 -10,0 z m 0,10 -10,0 0,10 10,0 0,-10 z m 0,10 0,10 10,0 0,-10 -10,0 z m 0,10 -10,0 0,10 10,0 0,-10 z m 0,10 0,10 10,0 0,-10 -10,0 z m -10,0 -10,0 0,10 10,0 0,-10 z m -10,0 0,-10 -10,0 0,10 10,0 z m -10,0 -10,0 0,10 10,0 0,-10 z m -10,0 0,-10 -10,0 0,10 10,0 z m -10,0 -10,0 0,10 10,0 0,-10 z m -10,0 0,-10 -10,0 0,10 10,0 z m -10,0 -10,0 0,10 10,0 0,-10 z m -10,0 0,-10 -10,0 0,10 10,0 z m -10,0 -10,0 0,10 10,0 0,-10 z m -10,0 0,-10 -10,0 0,10 10,0 z m -10,0 -10,0 0,10 10,0 0,-10 z m -10,0 0,-10 -10,0 0,10 10,0 z m -10,0 -10,0 0,10 10,0 0,-10 z m -10,0 0,-10 -10,0 0,10 10,0 z m -10,0 -10,0 0,10 10,0 0,-10 z m -10,0 0,-10 -10,0 0,10 10,0 z m -10,0 -10,0 0,10 10,0 0,-10 z m -10,0 0,-10 -10,0 0,10 10,0 z m -10,0 -10,0 0,10 10,0 0,-10 z m -10,0 0,-10 -10,0 0,10 10,0 z m -10,0 -10,0 0,10 10,0 0,-10 z m -10,0 0,-10 -10,0 0,10 10,0 z m -10,0 -10,0 0,10 10,0 0,-10 z m -10,0 0,-10 -10,0 0,10 10,0 z m -10,0 -10,0 0,10 10,0 0,-10 z m -10,0 0,-10 -10,0 0,10 10,0 z m -10,0 -10,0 0,10 10,0 0,-10 z m -10,0 0,-10 -10,0 0,10 10,0 z m -10,0 -10,0 0,10 10,0 0,-10 z m -10,0 0,-10 -10,0 0,10 10,0 z m -10,0 -10,0 0,10 10,0 0,-10 z m -10,0 0,-10 -10,0 0,10 10,0 z m -10,0 -10,0 0,10 10,0 0,-10 z m -10,0 0,-10 -10,0 0,10 10,0 z m -10,0 -10,0 0,10 10,0 0,-10 z m -10,0 0,-10 -10,0 0,10 10,0 z m -10,0 -10,0 0,10 10,0 0,-10 z m -10,0 0,-10 -10,0 0,10 10,0 z m -10,0 -10,0 0,10 10,0 0,-10 z m -10,0 0,-10 -10,0 0,10 10,0 z m -10,0 -10,0 0,10 10,0 0,-10 z m -10,0 0,-10 -10,0 0,10 10,0 z m -10,0 -10,0 0,10 10,0 0,-10 z m -10,0 0,-10 -10,0 0,10 10,0 z m -10,0 -10,0 0,10 10,0 0,-10 z m -10,0 0,-10 -10,0 0,10 10,0 z m -10,0 -10,0 0,10 10,0 0,-10 z m -10,0 0,-10 -10,0 0,10 10,0 z m -10,0 -10,0 0,10 10,0 0,-10 z m -10,0 0,-10 -10,0 0,10 10,0 z m -10,0 -10,0 0,10 10,0 0,-10 z m -10,0 0,-10 -10,0 0,10 10,0 z m -10,0 -10,0 0,10 10,0 0,-10 z m -10,0 0,-10 -10,0 0,10 10,0 z m -10,0 -10,0 0,10 10,0 0,-10 z m -10,0 0,-10 -10,0 0,10 10,0 z m -10,0 -10,0 0,10 10,0 0,-10 z m -10,0 0,-10 -10,0 0,10 10,0 z m 0,-10 10,0 0,-10 -10,0 0,10 z m 0,-10 0,-10 -10,0 0,10 10,0 z m 0,-10 10,0 0,-10 -10,0 0,10 z m 0,-10 0,-10 -10,0 0,10 10,0 z m 0,-10 10,0 0,-10 -10,0 0,10 z m 0,-10 0,-10 -10,0 0,10 10,0 z m 0,-10 10,0 0,-10 -10,0 0,10 z m 0,-10 0,-10 -10,0 0,10 10,0 z m 0,-10 10,0 0,-10 -10,0 0,10 z m 0,-10 0,-10 -10,0 0,10 10,0 z m 0,-10 10,0 0,-10 -10,0 0,10 z m 0,-10 0,-10 -10,0 0,10 10,0 z m 0,-10 10,0 0,-10 -10,0 0,10 z m 0,-10 0,-10 -10,0 0,10 10,0 z m 0,-10 10,0 0,-10 -10,0 0,10 z m 0,-10 0,-10 -10,0 0,10 10,0 z m 0,-10 10,0 0,-10 -10,0 0,10 z m 0,-10 0,-10 -10,0 0,10 10,0 z m 0,-10 10,0 0,-10 -10,0 0,10 z m 0,-10 0,-10 -10,0 0,10 10,0 z m 0,-10 10,0 0,-10 -10,0 0,10 z m 0,-10 0,-10 -10,0 0,10 10,0 z m 0,-10 10,0 0,-10 -10,0 0,10 z m 0,-10 0,-10 -10,0 0,10 10,0 z m 0,-10 10,0 0,-10 -10,0 0,10 z m 0,-10 0,-10 -10,0 0,10 10,0 z m 0,-10 10,0 0,-10 -10,0 0,10 z m 0,-10 0,-10 -10,0 0,10 10,0 z m 0,-10 10,0 0,-10 -10,0 0,10 z m 0,-10 0,-10 -10,0 0,10 10,0 z m 0,-10 10,0 0,-10 -10,0 0,10 z m 0,-10 0,-10 -10,0 0,10 10,0 z m 0,-10 10,0 0,-10 -10,0 0,10 z m 0,-10 0,-10 -10,0 0,10 10,0 z m 0,-10 10,0 0,-10 -10,0 0,10 z m 0,-10 0,-10 -10,0 0,10 10,0 z m 10,0 10,0 0,-10 -10,0 0,10 z m 10,0 0,10 10,0 0,-10 -10,0 z m 10,0 10,0 0,-10 -10,0 0,10 z m 10,0 0,10 10,0 0,-10 -10,0 z m 10,0 10,0 0,-10 -10,0 0,10 z m 10,0 0,10 10,0 0,-10 -10,0 z m 10,0 10,0 0,-10 -10,0 0,10 z m 10,0 0,10 10,0 0,-10 -10,0 z m 10,0 10,0 0,-10 -10,0 0,10 z m 10,0 0,10 10,0 0,-10 -10,0 z m 10,0 10,0 0,-10 -10,0 0,10 z m 10,0 0,10 10,0 0,-10 -10,0 z m 10,0 10,0 0,-10 -10,0 0,10 z m 10,0 0,10 10,0 0,-10 -10,0 z m 10,0 10,0 0,-10 -10,0 0,10 z m 10,0 0,10 10,0 0,-10 -10,0 z m 10,0 10,0 0,-10 -10,0 0,10 z m 10,0 0,10 10,0 0,-10 -10,0 z m 10,0 10,0 0,-10 -10,0 0,10 z m 10,0 0,10 10,0 0,-10 -10,0 z m 10,0 10,0 0,-10 -10,0 0,10 z m 10,0 0,10 10,0 0,-10 -10,0 z m 10,0 10,0 0,-10 -10,0 0,10 z m 10,0 0,10 10,0 0,-10 -10,0 z m 10,0 10,0 0,-10 -10,0 0,10 z m 10,0 0,10 10,0 0,-10 -10,0 z m 10,0 10,0 0,-10 -10,0 0,10 z m 10,0 0,10 10,0 0,-10 -10,0 z m 10,0 10,0 0,-10 -10,0 0,10 z m 10,0 0,10 10,0 0,-10 -10,0 z m 10,0 10,0 0,-10 -10,0 0,10 z m 10,0 0,10 10,0 0,-10 -10,0 z m 10,0 10,0 0,-10 -10,0 0,10 z m 10,0 0,10 10,0 0,-10 -10,0 z m 10,0 10,0 0,-10 -10,0 0,10 z m 10,0 0,10 10,0 0,-10 -10,0 z m 10,0 10,0 0,-10 -10,0 0,10 z m 10,0 0,10 10,0 0,-10 -10,0 z m 10,0 10,0 0,-10 -10,0 0,10 z m 10,0 0,10 10,0 0,-10 -10,0 z m 10,0 10,0 0,-10 -10,0 0,10 z m 10,0 0,10 10,0 0,-10 -10,0 z m 10,0 10,0 0,-10 -10,0 0,10 z m 10,0 0,10 10,0 0,-10 -10,0 z m 10,0 10,0 0,-10 -10,0 0,10 z m 10,0 0,10 10,0 0,-10 -10,0 z m 10,0 10,0 0,-10 -10,0 0,10 z m 10,0 0,10 10,0 0,-10 -10,0 z m 10,0 10,0 0,-10 -10,0 0,10 z m 10,0 0,10 10,0 0,-10 -10,0 z m 10,0 10,0 0,-10 -10,0 0,10 z m 10,0 0,10 10,0 0,-10 -10,0 z m 10,0 10,0 0,-10 -10,0 0,10 z m 10,0 0,10 10,0 0,-10 -10,0 z m 10,0 10,0 0,-10 -10,0 0,10 z m 10,0 0,10 10,0 0,-10 -10,0 z m 0,10 -10,0 0,10 10,0 0,-10 z m 0,10 0,10 10,0 0,-10 -10,0 z m 0,10 -10,0 0,10 10,0 0,-10 z m 0,10 0,10 10,0 0,-10 -10,0 z m 0,10 -10,0 0,10 10,0 0,-10 z m 0,10 0,10 10,0 0,-10 -10,0 z m 0,10 -10,0 0,10 10,0 0,-10 z m 0,10 0,10 10,0 0,-10 -10,0 z m 0,10 -10,0 0,10 10,0 0,-10 z m 0,10 0,10 10,0 0,-10 -10,0 z m 0,10 -10,0 0,10 10,0 0,-10 z m 0,10 0,10 10,0 0,-10 -10,0 z m 0,10 -10,0 0,10 10,0 0,-10 z m 0,10 0,10 10,0 0,-10 -10,0 z m 0,10 -10,0 0,10 10,0 0,-10 z m 0,10 0,10 10,0 0,-10 -10,0 z m 0,10 -10,0 0,10 10,0 0,-10 z m 0,10 0,10 10,0 0,-10 -10,0 z m 0,10 -10,0 0,10 10,0 0,-10 z m 0,10 0,10 10,0 0,-10 -10,0 z m 0,10 -10,0 0,10 10,0 0,-10 z m 0,10 0,10 10,0 0,-10 -10,0 z m 0,10 -10,0 0,10 10,0 0,-10 z m 0,10 0,10 10,0 0,-10 -10,0 z m 0,10 -10,0 0,10 10,0 0,-10 z m 0,10 0,10 10,0 0,-10 -10,0 z m 0,10 -10,0 0,10 10,0 0,-10 z m 0,10 0,10 10,0 0,-10 -10,0 z m 0,10 -10,0 0,10 10,0 0,-10 z m 0,10 0,10 10,0 0,-10 -10,0 z m 0,10 -10,0 0,10 10,0 0,-10 z m 0,10 0,10 10,0 0,-10 -10,0 z m 0,10 -10,0 0,10 10,0 0,-10 z m 0,10 0,10 10,0 0,-10 -10,0 z m -10,0 -10,0 0,10 10,0 0,-10 z m -10,0 0,-10 -10,0 0,10 10,0 z m -10,0 -10,0 0,10 10,0 0,-10 z m -10,0 0,-10 -10,0 0,10 10,0 z m -10,0 -10,0 0,10 10,0 0,-10 z m -10,0 0,-10 -10,0 0,10 10,0 z m -10,0 -10,0 0,10 10,0 0,-10 z m -10,0 0,-10 -10,0 0,10 10,0 z m -10,0 -10,0 0,10 10,0 0,-10 z m -10,0 0,-10 -10,0 0,10 10,0 z m -10,0 -10,0 0,10 10,0 0,-10 z m -10,0 0,-10 -10,0 0,10 10,0 z m -10,0 -10,0 0,10 10,0 0,-10 z m -10,0 0,-10 -10,0 0,10 10,0 z m -10,0 -10,0 0,10 10,0 0,-10 z m -10,0 0,-10 -10,0 0,10 10,0 z m -10,0 -10,0 0,10 10,0 0,-10 z m -10,0 0,-10 -10,0 0,10 10,0 z m -10,0 -10,0 0,10 10,0 0,-10 z m -10,0 0,-10 -10,0 0,10 10,0 z m -10,0 -10,0 0,10 10,0 0,-10 z m -10,0 0,-10 -10,0 0,10 10,0 z m -10,0 -10,0 0,10 10,0 0,-10 z m -10,0 0,-10 -10,0 0,10 10,0 z m -10,0 -10,0 0,10 10,0 0,-10 z m -10,0 0,-10 -10,0 0,10 10,0 z m -10,0 -10,0 0,10 10,0 0,-10 z m -10,0 0,-10 -10,0 0,10 10,0 z m -10,0 -10,0 0,10 10,0 0,-10 z m -10,0 0,-10 -10,0 0,10 10,0 z m -10,0 -10,0 0,10 10,0 0,-10 z m -10,0 0,-10 -10,0 0,10 10,0 z m -10,0 -10,0 0,10 10,0 0,-10 z m -10,0 0,-10 -10,0 0,10 10,0 z m -10,0 -10,0 0,10 10,0 0,-10 z m -10,0 0,-10 -10,0 0,10 10,0 z m -10,0 -10,0 0,10 10,0 0,-10 z m -10,0 0,-10 -10,0 0,10 10,0 z m -10,0 -10,0 0,10 10,0 0,-10 z m -10,0 0,-10 -10,0 0,10 10,0 z m -10,0 -10,0 0,10 10,0 0,-10 z m -10,0 0,-10 -10,0 0,10 10,0 z m -10,0 -10,0 0,10 10,0 0,-10 z m -10,0 0,-10 -10,0 0,10 10,0 z m -10,0 -10,0 0,10 10,0 0,-10 z m -10,0 0,-10 -10,0 0,10 10,0 z m -10,0 -10,0 0,10 10,0 0,-10 z m -10,0 0,-10 -10,0 0,10 10,0 z m -10,0 -10,0 0,10 10,0 0,-10 z m -10,0 0,-10 -10,0 0,10 10,0 z m -10,0 -10,0 0,10 10,0 0,-10 z m -10,0 0,-10 -10,0 0,10 10,0 z m -10,0 -10,0 0,10 10,0 0,-10 z m -10,0 0,-10 -10,0 0,10 10,0 z m 0,-10 10,0 0,-10 -10,0 0,10 z m 0,-10 0,-10 -10,0 0,10 10,0 z m 0,-10 10,0 0,-10 -10,0 0,10 z m 0,-10 0,-10 -10,0 0,10 10,0 z m 0,-10 10,0 0,-10 -10,0 0,10 z m 0,-10 0,-10 -10,0 0,10 10,0 z m 0,-10 10,0 0,-10 -10,0 0,10 z m 0,-10 0,-10 -10,0 0,10 10,0 z m 0,-10 10,0 0,-10 -10,0 0,10 z m 0,-10 0,-10 -10,0 0,10 10,0 z m 0,-10 10,0 0,-10 -10,0 0,10 z m 0,-10 0,-10 -10,0 0,10 10,0 z m 0,-10 10,0 0,-10 -10,0 0,10 z m 0,-10 0,-10 -10,0 0,10 10,0 z m 0,-10 10,0 0,-10 -10,0 0,10 z m 0,-10 0,-10 -10,0 0,10 10,0 z m 0,-10 10,0 0,-10 -10,0 0,10 z m 0,-10 0,-10 -10,0 0,10 10,0 z m 0,-10 10,0 0,-10 -10,0 0,10 z m 0,-10 0,-10 -10,0 0,10 10,0 z m 0,-10 10,0 0,-10 -10,0 0,10 z m 0,-10 0,-10 -10,0 0,10 10,0 z m 0,-10 10,0 0,-10 -10,0 0,10 z m 0,-10 0,-10 -10,0 0,10 10,0 z m 0,-10 10,0 0,-10 -10,0 0,10 z m 0,-10 0,-10 -10,0 0,10 10,0 z m 0,-10 10,0 0,-10 -10,0 0,10 z m 0,-10 0,-10 -10,0 0,10 10,0 z m 0,-10 10,0 0,-10 -10,0 0,10 z m 0,-10 0,-10 -10,0 0,10 10,0 z m 0,-10 10,0 0,-10 -10,0 0,10 z m 0,-10 0,-10 -10,0 0,10 10,0 z m 10,0 10,0 0,-10 -10,0 0,10 z m 10,0 0,10 10,0 0,-10 -10,0 z m 10,0 10,0 0,-10 -10,0 0,10 z m 10,0 0,10 10,0 0,-10 -10,0 z m 10,0 10,0 0,-10 -10,0 0,10 z m 10,0 0,10 10,0 0,-10 -10,0 z m 10,0 10,0 0,-10 -10,0 0,10 z m 10,0 0,10 10,0 0,-10 -10,0 z m 10,0 10,0 0,-10 -10,0 0,10 z m 10,0 0,10 10,0 0,-10 -10,0 z m 10,0 10,0 0,-10 -10,0 0,10 z m 10,0 0,10 10,0 0,-10 -10,0 z m 10,0 10,0 0,-10 -10,0 0,10 z m 10,0 0,10 10,0 0,-10 -10,0 z m 10,0 10,0 0,-10 -10,0 0,10 z m 10,0 0,10 10,0 0,-10 -10,0 z m 10,0 10,0 0,-10 -10,0 0,10 z m 10,0 0,10 10,0 0,-10 -10,0 z m 10,0 10,0 0,-10 -10,0 0,10 z m 10,0 0,10 10,0 0,-10 -10,0 z m 10,0 10,0 0,-10 -10,0 0,10 z m 10,0 0,10 10,0 0,-10 -10,0 z m 10,0 10,0 0,-10 -10,0 0,10 z m 10,0 0,10 10,0 0,-10 -10,0 z m 10,0 10,0 0,-10 -10,0 0,10 z m 10,0 0,10 10,0 0,-10 -10,0 z m 10,0 10,0 0,-10 -10,0 0,10 z m 10,0 0,10 10,0 0,-10 -10,0 z m 10,0 10,0 0,-10 -10,0 0,10 z m 10,0 0,10 10,0 0,-10 -10,0 z m 10,0 10,0 0,-10 -10,0 0,10 z m 10,0 0,10 10,0 0,-10 -10,0 z m 10,0 10,0 0,-10 -10,0 0,10 z m 10,0 0,10 10,0 0,-10 -10,0 z m 10,0 10,0 0,-10 -10,0 0,10 z m 10,0 0,10 10,0 0,-10 -10,0 z m 10,0 10,0 0,-10 -10,0 0,10 z m 10,0 0,10 10,0 0,-10 -10,0 z m 10,0 10,0 0,-10 -10,0 0,10 z m 10,0 0,10 10,0 0,-10 -10,0 z m 10,0 10,0 0,-10 -10,0 0,10 z m 10,0 0,10 10,0 0,-10 -10,0 z m 10,0 10,0 0,-10 -10,0 0,10 z m 10,0 0,10 10,0 0,-10 -10,0 z m 10,0 10,0 0,-10 -10,0 0,10 z m 10,0 0,10 10,0 0,-10 -10,0 z m 10,0 10,0 0,-10 -10,0 0,10 z m 10,0 0,10 10,0 0,-10 -10,0 z m 10,0 10,0 0,-10 -10,0 0,10 z m 10,0 0,10 10,0 0,-10 -10,0 z m 10,0 10,0 0,-10 -10,0 0,10 z m 10,0 0,10 10,0 0,-10 -10,0 z m 0,10 -10,0 0,10 10,0 0,-10 z m 0,10 0,10 10,0 0,-10 -10,0 z m 0,10 -10,0 0,10 10,0 0,-10 z m 0,10 0,10 10,0 0,-10 -10,0 z m 0,10 -10,0 0,10 10,0 0,-10 z m 0,10 0,10 10,0 0,-10 -10,0 z m 0,10 -10,0 0,10 10,0 0,-10 z m 0,10 0,10 10,0 0,-10 -10,0 z m 0,10 -10,0 0,10 10,0 0,-10 z m 0,10 0,10 10,0 0,-10 -10,0 z m 0,10 -10,0 0,10 10,0 0,-10 z m 0,10 0,10 10,0 0,-10 -10,0 z m 0,10 -10,0 0,10 10,0 0,-10 z m 0,10 0,10 10,0 0,-10 -10,0 z m 0,10 -10,0 0,10 10,0 0,-10 z m 0,10 0,10 10,0 0,-10 -10,0 z m 0,10 -10,0 0,10 10,0 0,-10 z m 0,10 0,10 10,0 0,-10 -10,0 z m 0,10 -10,0 0,10 10,0 0,-10 z m 0,10 0,10 10,0 0,-10 -10,0 z m 0,10 -10,0 0,10 10,0 0,-10 z m 0,10 0,10 10,0 0,-10 -10,0 z m 0,10 -10,0 0,10 10,0 0,-10 z m 0,10 0,10 10,0 0,-10 -10,0 z m 0,10 -10,0 0,10 10,0 0,-10 z m 0,10 0,10 10,0 0,-10 -10,0 z m 0,10 -10,0 0,10 10,0 0,-10 z m 0,10 0,10 10,0 0,-10 -10,0 z m 0,10 -10,0 0,10 10,0 0,-10 z m 0,10 0,10 10,0 0,-10 -10,0 z m -10,0 -10,0 0,10 10,0 0,-10 z m -10,0 0,-10 -10,0 0,10 10,0 z m -10,0 -10,0 0,10 10,0 0,-10 z m -10,0 0,-10 -10,0 0,10 10,0 z m -10,0 -10,0 0,10 10,0 0,-10 z m -10,0 0,-10 -10,0 0,10 10,0 z m -10,0 -10,0 0,10 10,0 0,-10 z m -10,0 0,-10 -10,0 0,10 10,0 z m -10,0 -10,0 0,10 10,0 0,-10 z m -10,0 0,-10 -10,0 0,10 10,0 z m -10,0 -10,0 0,10 10,0 0,-10 z m -10,0 0,-10 -10,0 0,10 10,0 z m -10,0 -10,0 0,10 10,0 0,-10 z m -10,0 0,-10 -10,0 0,10 10,0 z m -10,0 -10,0 0,10 10,0 0,-10 z m -10,0 0,-10 -10,0 0,10 10,0 z m -10,0 -10,0 0,10 10,0 0,-10 z m -10,0 0,-10 -10,0 0,10 10,0 z m -10,0 -10,0 0,10 10,0 0,-10 z m -10,0 0,-10 -10,0 0,10 10,0 z m -10,0 -10,0 0,10 10,0 0,-10 z m -10,0 0,-10 -10,0 0,10 10,0 z m -10,0 -10,0 0,10 10,0 0,-10 z m -10,0 0,-10 -10,0 0,10 10,0 z m -10,0 -10,0 0,10 10,0 0,-10 z m -10,0 0,-10 -10,0 0,10 10,0 z m -10,0 -10,0 0,10 10,0 0,-10 z m -10,0 0,-10 -10,0 0,10 10,0 z m -10,0 -10,0 0,10 10,0 0,-10 z m -10,0 0,-10 -10,0 0,10 10,0 z m -10,0 -10,0 0,10 10,0 0,-10 z m -10,0 0,-10 -10,0 0,10 10,0 z m -10,0 -10,0 0,10 10,0 0,-10 z m -10,0 0,-10 -10,0 0,10 10,0 z m -10,0 -10,0 0,10 10,0 0,-10 z m -10,0 0,-10 -10,0 0,10 10,0 z m -10,0 -10,0 0,10 10,0 0,-10 z m -10,0 0,-10 -10,0 0,10 10,0 z m -10,0 -10,0 0,10 10,0 0,-10 z m -10,0 0,-10 -10,0 0,10 10,0 z m -10,0 -10,0 0,10 10,0 0,-10 z m -10,0 0,-10 -10,0 0,10 10,0 z m -10,0 -10,0 0,10 10,0 0,-10 z m -10,0 0,-10 -10,0 0,10 10,0 z m -10,0 -10,0 0,10 10,0 0,-10 z m -10,0 0,-10 -10,0 0,10 10,0 z m -10,0 -10,0 0,10 10,0 0,-10 z m -10,0 0,-10 -10,0 0,10 10,0 z m -10,0 -10,0 0,10 10,0 0,-10 z m -10,0 0,-10 -10,0 0,10 10,0 z m 0,-10 10,0 0,-10 -10,0 0,10 z m 0,-10 0,-10 -10,0 0,10 10,0 z m 0,-10 10,0 0,-10 -10,0 0,10 z m 0,-10 0,-10 -10,0 0,10 10,0 z m 0,-10 10,0 0,-10 -10,0 0,10 z m 0,-10 0,-10 -10,0 0,10 10,0 z m 0,-10 10,0 0,-10 -10,0 0,10 z m 0,-10 0,-10 -10,0 0,10 10,0 z m 0,-10 10,0 0,-10 -10,0 0,10 z m 0,-10 0,-10 -10,0 0,10 10,0 z m 0,-10 10,0 0,-10 -10,0 0,10 z m 0,-10 0,-10 -10,0 0,10 10,0 z m 0,-10 10,0 0,-10 -10,0 0,10 z m 0,-10 0,-10 -10,0 0,10 10,0 z m 0,-10 10,0 0,-10 -10,0 0,10 z m 0,-10 0,-10 -10,0 0,10 10,0 z m 0,-10 10,0 0,-10 -10,0 0,10 z m 0,-10 0,-10 -10,0 0,10 10,0 z m 0,-10 10,0 0,-10 -10,0 0,10 z m 0,-10 0,-10 -10,0 0,10 10,0 z m 0,-10 10,0 0,-10 -10,0 0,10 z m 0,-10 0,-10 -10,0 0,10 10,0 z m 0,-10 10,0 0,-10 -10,0 0,10 z m 0,-10 0,-10 -10,0 0,10 10,0 z m 0,-10 10,0 0,-10 -10,0 0,10 z m 0,-10 0,-10 -10,0 0,10 10,0 z m 0,-10 10,0 0,-10 -10,0 0,10 z m 0,-10 0,-10 -10,0 0,10 10,0 z m 10,0 10,0 0,-10 -10,0 0,10 z m 10,0 0,10 10,0 0,-10 -10,0 z m 10,0 10,0 0,-10 -10,0 0,10 z m 10,0 0,10 10,0 0,-10 -10,0 z m 10,0 10,0 0,-10 -10,0 0,10 z m 10,0 0,10 10,0 0,-10 -10,0 z m 10,0 10,0 0,-10 -10,0 0,10 z m 10,0 0,10 10,0 0,-10 -10,0 z m 10,0 10,0 0,-10 -10,0 0,10 z m 10,0 0,10 10,0 0,-10 -10,0 z m 10,0 10,0 0,-10 -10,0 0,10 z m 10,0 0,10 10,0 0,-10 -10,0 z m 10,0 10,0 0,-10 -10,0 0,10 z m 10,0 0,10 10,0 0,-10 -10,0 z m 10,0 10,0 0,-10 -10,0 0,10 z m 10,0 0,10 10,0 0,-10 -10,0 z m 10,0 10,0 0,-10 -10,0 0,10 z m 10,0 0,10 10,0 0,-10 -10,0 z m 10,0 10,0 0,-10 -10,0 0,10 z m 10,0 0,10 10,0 0,-10 -10,0 z m 10,0 10,0 0,-10 -10,0 0,10 z m 10,0 0,10 10,0 0,-10 -10,0 z m 10,0 10,0 0,-10 -10,0 0,10 z m 10,0 0,10 10,0 0,-10 -10,0 z m 10,0 10,0 0,-10 -10,0 0,10 z m 10,0 0,10 10,0 0,-10 -10,0 z m 10,0 10,0 0,-10 -10,0 0,10 z m 10,0 0,10 10,0 0,-10 -10,0 z m 10,0 10,0 0,-10 -10,0 0,10 z m 10,0 0,10 10,0 0,-10 -10,0 z m 10,0 10,0 0,-10 -10,0 0,10 z m 10,0 0,10 10,0 0,-10 -10,0 z m 10,0 10,0 0,-10 -10,0 0,10 z m 10,0 0,10 10,0 0,-10 -10,0 z m 10,0 10,0 0,-10 -10,0 0,10 z m 10,0 0,10 10,0 0,-10 -10,0 z m 10,0 10,0 0,-10 -10,0 0,10 z m 10,0 0,10 10,0 0,-10 -10,0 z m 10,0 10,0 0,-10 -10,0 0,10 z m 10,0 0,10 10,0 0,-10 -10,0 z m 10,0 10,0 0,-10 -10,0 0,10 z m 10,0 0,10 10,0 0,-10 -10,0 z m 10,0 10,0 0,-10 -10,0 0,10 z m 10,0 0,10 10,0 0,-10 -10,0 z m 10,0 10,0 0,-10 -10,0 0,10 z m 10,0 0,10 10,0 0,-10 -10,0 z m 10,0 10,0 0,-10 -10,0 0,10 z m 10,0 0,10 10,0 0,-10 -10,0 z m 0,10 -10,0 0,10 10,0 0,-10 z m 0,10 0,10 10,0 0,-10 -10,0 z m 0,10 -10,0 0,10 10,0 0,-10 z m 0,10 0,10 10,0 0,-10 -10,0 z m 0,10 -10,0 0,10 10,0 0,-10 z m 0,10 0,10 10,0 0,-10 -10,0 z m 0,10 -10,0 0,10 10,0 0,-10 z m 0,10 0,10 10,0 0,-10 -10,0 z m 0,10 -10,0 0,10 10,0 0,-10 z m 0,10 0,10 10,0 0,-10 -10,0 z m 0,10 -10,0 0,10 10,0 0,-10 z m 0,10 0,10 10,0 0,-10 -10,0 z m 0,10 -10,0 0,10 10,0 0,-10 z m 0,10 0,10 10,0 0,-10 -10,0 z m 0,10 -10,0 0,10 10,0 0,-10 z m 0,10 0,10 10,0 0,-10 -10,0 z m 0,10 -10,0 0,10 10,0 0,-10 z m 0,10 0,10 10,0 0,-10 -10,0 z m 0,10 -10,0 0,10 10,0 0,-10 z m 0,10 0,10 10,0 0,-10 -10,0 z m 0,10 -10,0 0,10 10,0 0,-10 z m 0,10 0,10 10,0 0,-10 -10,0 z m 0,10 -10,0 0,10 10,0 0,-10 z m 0,10 0,10 10,0 0,-10 -10,0 z m 0,10 -10,0 0,10 10,0 0,-10 z m 0,10 0,10 10,0 0,-10 -10,0 z m -10,0 -10,0 0,10 10,0 0,-10 z m -10,0 0,-10 -10,0 0,10 10,0 z m -10,0 -10,0 0,10 10,0 0,-10 z m -10,0 0,-10 -10,0 0,10 10,0 z m -10,0 -10,0 0,10 10,0 0,-10 z m -10,0 0,-10 -10,0 0,10 10,0 z m -10,0 -10,0 0,10 10,0 0,-10 z m -10,0 0,-10 -10,0 0,10 10,0 z m -10,0 -10,0 0,10 10,0 0,-10 z m -10,0 0,-10 -10,0 0,10 10,0 z m -10,0 -10,0 0,10 10,0 0,-10 z m -10,0 0,-10 -10,0 0,10 10,0 z m -10,0 -10,0 0,10 10,0 0,-10 z m -10,0 0,-10 -10,0 0,10 10,0 z m -10,0 -10,0 0,10 10,0 0,-10 z m -10,0 0,-10 -10,0 0,10 10,0 z m -10,0 -10,0 0,10 10,0 0,-10 z m -10,0 0,-10 -10,0 0,10 10,0 z m -10,0 -10,0 0,10 10,0 0,-10 z m -10,0 0,-10 -10,0 0,10 10,0 z m -10,0 -10,0 0,10 10,0 0,-10 z m -10,0 0,-10 -10,0 0,10 10,0 z m -10,0 -10,0 0,10 10,0 0,-10 z m -10,0 0,-10 -10,0 0,10 10,0 z m -10,0 -10,0 0,10 10,0 0,-10 z m -10,0 0,-10 -10,0 0,10 10,0 z m -10,0 -10,0 0,10 10,0 0,-10 z m -10,0 0,-10 -10,0 0,10 10,0 z m -10,0 -10,0 0,10 10,0 0,-10 z m -10,0 0,-10 -10,0 0,10 10,0 z m -10,0 -10,0 0,10 10,0 0,-10 z m -10,0 0,-10 -10,0 0,10 10,0 z m -10,0 -10,0 0,10 10,0 0,-10 z m -10,0 0,-10 -10,0 0,10 10,0 z m -10,0 -10,0 0,10 10,0 0,-10 z m -10,0 0,-10 -10,0 0,10 10,0 z m -10,0 -10,0 0,10 10,0 0,-10 z m -10,0 0,-10 -10,0 0,10 10,0 z m -10,0 -10,0 0,10 10,0 0,-10 z m -10,0 0,-10 -10,0 0,10 10,0 z m -10,0 -10,0 0,10 10,0 0,-10 z m -10,0 0,-10 -10,0 0,10 10,0 z m -10,0 -10,0 0,10 10,0 0,-10 z m -10,0 0,-10 -10,0 0,10 10,0 z m -10,0 -10,0 0,10 10,0 0,-10 z m -10,0 0,-10 -10,0 0,10 10,0 z m 0,-10 10,0 0,-10 -10,0 0,10 z m 0,-10 0,-10 -10,0 0,10 10,0 z m 0,-10 10,0 0,-10 -10,0 0,10 z m 0,-10 0,-10 -10,0 0,10 10,0 z m 0,-10 10,0 0,-10 -10,0 0,10 z m 0,-10 0,-10 -10,0 0,10 10,0 z m 0,-10 10,0 0,-10 -10,0 0,10 z m 0,-10 0,-10 -10,0 0,10 10,0 z m 0,-10 10,0 0,-10 -10,0 0,10 z m 0,-10 0,-10 -10,0 0,10 10,0 z m 0,-10 10,0 0,-10 -10,0 0,10 z m 0,-10 0,-10 -10,0 0,10 10,0 z m 0,-10 10,0 0,-10 -10,0 0,10 z m 0,-10 0,-10 -10,0 0,10 10,0 z m 0,-10 10,0 0,-10 -10,0 0,10 z m 0,-10 0,-10 -10,0 0,10 10,0 z m 0,-10 10,0 0,-10 -10,0 0,10 z m 0,-10 0,-10 -10,0 0,10 10,0 z m 0,-10 10,0 0,-10 -10,0 0,10 z m 0,-10 0,-10 -10,0 0,10 10,0 z m 0,-10 10,0 0,-10 -10,0 0,10 z m 0,-10 0,-10 -10,0 0,10 10,0 z m 0,-10 10,0 0,-10 -10,0 0,10 z m 0,-10 0,-10 -10,0 0,10 10,0 z m 10,0 10,0 0,-10 -10,0 0,10 z m 10,0 0,10 10,0 0,-10 -10,0 z m 10,0 10,0 0,-10 -10,0 0,10 z m 10,0 0,10 10,0 0,-10 -10,0 z m 10,0 10,0 0,-10 -10,0 0,10 z m 10,0 0,10 10,0 0,-10 -10,0 z m 10,0 10,0 0,-10 -10,0 0,10 z m 10,0 0,10 10,0 0,-10 -10,0 z m 10,0 10,0 0,-10 -10,0 0,10 z m 10,0 0,10 10,0 0,-10 -10,0 z m 10,0 10,0 0,-10 -10,0 0,10 z m 10,0 0,10 10,0 0,-10 -10,0 z m 10,0 10,0 0,-10 -10,0 0,10 z m 10,0 0,10 10,0 0,-10 -10,0 z m 10,0 10,0 0,-10 -10,0 0,10 z m 10,0 0,10 10,0 0,-10 -10,0 z m 10,0 10,0 0,-10 -10,0 0,10 z m 10,0 0,10 10,0 0,-10 -10,0 z m 10,0 10,0 0,-10 -10,0 0,10 z m 10,0 0,10 10,0 0,-10 -10,0 z m 10,0 10,0 0,-10 -10,0 0,10 z m 10,0 0,10 10,0 0,-10 -10,0 z m 10,0 10,0 0,-10 -10,0 0,10 z m 10,0 0,10 10,0 0,-10 -10,0 z m 10,0 10,0 0,-10 -10,0 0,10 z m 10,0 0,10 10,0 0,-10 -10,0 z m 10,0 10,0 0,-10 -10,0 0,10 z m 10,0 0,10 10,0 0,-10 -10,0 z m 10,0 10,0 0,-10 -10,0 0,10 z m 10,0 0,10 10,0 0,-10 -10,0 z m 10,0 10,0 0,-10 -10,0 0,10 z m 10,0 0,10 10,0 0,-10 -10,0 z m 10,0 10,0 0,-10 -10,0 0,10 z m 10,0 0,10 10,0 0,-10 -10,0 z m 10,0 10,0 0,-10 -10,0 0,10 z m 10,0 0,10 10,0 0,-10 -10,0 z m 10,0 10,0 0,-10 -10,0 0,10 z m 10,0 0,10 10,0 0,-10 -10,0 z m 10,0 10,0 0,-10 -10,0 0,10 z m 10,0 0,10 10,0 0,-10 -10,0 z m 10,0 10,0 0,-10 -10,0 0,10 z m 10,0 0,10 10,0 0,-10 -10,0 z m 10,0 10,0 0,-10 -10,0 0,10 z m 10,0 0,10 10,0 0,-10 -10,0 z m 0,10 -10,0 0,10 10,0 0,-10 z m 0,10 0,10 10,0 0,-10 -10,0 z m 0,10 -10,0 0,10 10,0 0,-10 z m 0,10 0,10 10,0 0,-10 -10,0 z m 0,10 -10,0 0,10 10,0 0,-10 z m 0,10 0,10 10,0 0,-10 -10,0 z m 0,10 -10,0 0,10 10,0 0,-10 z m 0,10 0,10 10,0 0,-10 -10,0 z m 0,10 -10,0 0,10 10,0 0,-10 z m 0,10 0,10 10,0 0,-10 -10,0 z m 0,10 -10,0 0,10 10,0 0,-10 z m 0,10 0,10 10,0 0,-10 -10,0 z m 0,10 -10,0 0,10 10,0 0,-10 z m 0,10 0,10 10,0 0,-10 -10,0 z m 0,10 -10,0 0,10 10,0 0,-10 z m 0,10 0,10 10,0 0,-10 -10,0 z m 0,10 -10,0 0,10 10,0 0,-10 z m 0,10 0,10 10,0 0,-10 -10,0 z m 0,10 -10,0 0,10 10,0 0,-10 z m 0,10 0,10 10,0 0,-10 -10,0 z m 0,10 -10,0 0,10 10,0 0,-10 z m 0,10 0,10 10,0 0,-10 -10,0 z m -10,0 -10,0 0,10 10,0 0,-10 z m -10,0 0,-10 -10,0 0,10 10,0 z m -10,0 -10,0 0,10 10,0 0,-10 z m -10,0 0,-10 -10,0 0,10 10,0 z m -10,0 -10,0 0,10 10,0 0,-10 z m -10,0 0,-10 -10,0 0,10 10,0 z m -10,0 -10,0 0,10 10,0 0,-10 z m -10,0 0,-10 -10,0 0,10 10,0 z m -10,0 -10,0 0,10 10,0 0,-10 z m -10,0 0,-10 -10,0 0,10 10,0 z m -10,0 -10,0 0,10 10,0 0,-10 z m -10,0 0,-10 -10,0 0,10 10,0 z m -10,0 -10,0 0,10 10,0 0,-10 z m -10,0 0,-10 -10,0 0,10 10,0 z m -10,0 -10,0 0,10 10,0 0,-10 z m -10,0 0,-10 -10,0 0,10 10,0 z m -10,0 -10,0 0,10 10,0 0,-10 z m -10,0 0,-10 -10,0 0,10 10,0 z m -10,0 -10,0 0,10 10,0 0,-10 z m -10,0 0,-10 -10,0 0,10 10,0 z m -10,0 -10,0 0,10 10,0 0,-10 z m -10,0 0,-10 -10,0 0,10 10,0 z m -10,0 -10,0 0,10 10,0 0,-10 z m -10,0 0,-10 -10,0 0,10 10,0 z m -10,0 -10,0 0,10 10,0 0,-10 z m -10,0 0,-10 -10,0 0,10 10,0 z m -10,0 -10,0 0,10 10,0 0,-10 z m -10,0 0,-10 -10,0 0,10 10,0 z m -10,0 -10,0 0,10 10,0 0,-10 z m -10,0 0,-10 -10,0 0,10 10,0 z m -10,0 -10,0 0,10 10,0 0,-10 z m -10,0 0,-10 -10,0 0,10 10,0 z m -10,0 -10,0 0,10 10,0 0,-10 z m -10,0 0,-10 -10,0 0,10 10,0 z m -10,0 -10,0 0,10 10,0 0,-10 z m -10,0 0,-10 -10,0 0,10 10,0 z m -10,0 -10,0 0,10 10,0 0,-10 z m -10,0 0,-10 -10,0 0,10 10,0 z m -10,0 -10,0 0,10 10,0 0,-10 z m -10,0 0,-10 -10,0 0,10 10,0 z m -10,0 -10,0 0,10 10,0 0,-10 z m -10,0 0,-10 -10,0 0,10 10,0 z m 0,-10 10,0 0,-10 -10,0 0,10 z m 0,-10 0,-10 -10,0 0,10 10,0 z m 0,-10 10,0 0,-10 -10,0 0,10 z m 0,-10 0,-10 -10,0 0,10 10,0 z m 0,-10 10,0 0,-10 -10,0 0,10 z m 0,-10 0,-10 -10,0 0,10 10,0 z m 0,-10 10,0 0,-10 -10,0 0,10 z m 0,-10 0,-10 -10,0 0,10 10,0 z m 0,-10 10,0 0,-10 -10,0 0,10 z m 0,-10 0,-10 -10,0 0,10 10,0 z m 0,-10 10,0 0,-10 -10,0 0,10 z m 0,-10 0,-10 -10,0 0,10 10,0 z m 0,-10 10,0 0,-10 -10,0 0,10 z m 0,-10 0,-10 -10,0 0,10 10,0 z m 0,-10 10,0 0,-10 -10,0 0,10 z m 0,-10 0,-10 -10,0 0,10 10,0 z m 0,-10 10,0 0,-10 -10,0 0,10 z m 0,-10 0,-10 -10,0 0,10 10,0 z m 0,-10 10,0 0,-10 -10,0 0,10 z m 0,-10 0,-10 -10,0 0,10 10,0 z m 10,0 10,0 0,-10 -10,0 0,10 z m 10,0 0,10 10,0 0,-10 -10,0 z m 10,0 10,0 0,-10 -10,0 0,10 z m 10,0 0,10 10,0 0,-10 -10,0 z m 10,0 10,0 0,-10 -10,0 0,10 z m 10,0 0,10 10,0 0,-10 -10,0 z m 10,0 10,0 0,-10 -10,0 0,10 z m 10,0 0,10 10,0 0,-10 -10,0 z m 10,0 10,0 0,-10 -10,0 0,10 z m 10,0 0,10 10,0 0,-10 -10,0 z m 10,0 10,0 0,-10 -10,0 0,10 z m 10,0 0,10 10,0 0,-10 -10,0 z m 10,0 10,0 0,-10 -10,0 0,10 z m 10,0 0,10 10,0 0,-10 -10,0 z m 10,0 10,0 0,-10 -10,0 0,10 z m 10,0 0,10 10,0 0,-10 -10,0 z m 10,0 10,0 0,-10 -10,0 0,10 z m 10,0 0,10 10,0 0,-10 -10,0 z m 10,0 10,0 0,-10 -10,0 0,10 z m 10,0 0,10 10,0 0,-10 -10,0 z m 10,0 10,0 0,-10 -10,0 0,10 z m 10,0 0,10 10,0 0,-10 -10,0 z m 10,0 10,0 0,-10 -10,0 0,10 z m 10,0 0,10 10,0 0,-10 -10,0 z m 10,0 10,0 0,-10 -10,0 0,10 z m 10,0 0,10 10,0 0,-10 -10,0 z m 10,0 10,0 0,-10 -10,0 0,10 z m 10,0 0,10 10,0 0,-10 -10,0 z m 10,0 10,0 0,-10 -10,0 0,10 z m 10,0 0,10 10,0 0,-10 -10,0 z m 10,0 10,0 0,-10 -10,0 0,10 z m 10,0 0,10 10,0 0,-10 -10,0 z m 10,0 10,0 0,-10 -10,0 0,10 z m 10,0 0,10 10,0 0,-10 -10,0 z m 10,0 10,0 0,-10 -10,0 0,10 z m 10,0 0,10 10,0 0,-10 -10,0 z m 10,0 10,0 0,-10 -10,0 0,10 z m 10,0 0,10 10,0 0,-10 -10,0 z m 10,0 10,0 0,-10 -10,0 0,10 z m 10,0 0,10 10,0 0,-10 -10,0 z m 0,10 -10,0 0,10 10,0 0,-10 z m 0,10 0,10 10,0 0,-10 -10,0 z m 0,10 -10,0 0,10 10,0 0,-10 z m 0,10 0,10 10,0 0,-10 -10,0 z m 0,10 -10,0 0,10 10,0 0,-10 z m 0,10 0,10 10,0 0,-10 -10,0 z m 0,10 -10,0 0,10 10,0 0,-10 z m 0,10 0,10 10,0 0,-10 -10,0 z m 0,10 -10,0 0,10 10,0 0,-10 z m 0,10 0,10 10,0 0,-10 -10,0 z m 0,10 -10,0 0,10 10,0 0,-10 z m 0,10 0,10 10,0 0,-10 -10,0 z m 0,10 -10,0 0,10 10,0 0,-10 z m 0,10 0,10 10,0 0,-10 -10,0 z m 0,10 -10,0 0,10 10,0 0,-10 z m 0,10 0,10 10,0 0,-10 -10,0 z m 0,10 -10,0 0,10 10,0 0,-10 z m 0,10 0,10 10,0 0,-10 -10,0 z m -10,0 -10,0 0,10 10,0 0,-10 z m -10,0 0,-10 -10,0 0,10 10,0 z m -10,0 -10,0 0,10 10,0 0,-10 z m -10,0 0,-10 -10,0 0,10 10,0 z m -10,0 -10,0 0,10 10,0 0,-10 z m -10,0 0,-10 -10,0 0,10 10,0 z m -10,0 -10,0 0,10 10,0 0,-10 z m -10,0 0,-10 -10,0 0,10 10,0 z m -10,0 -10,0 0,10 10,0 0,-10 z m -10,0 0,-10 -10,0 0,10 10,0 z m -10,0 -10,0 0,10 10,0 0,-10 z m -10,0 0,-10 -10,0 0,10 10,0 z m -10,0 -10,0 0,10 10,0 0,-10 z m -10,0 0,-10 -10,0 0,10 10,0 z m -10,0 -10,0 0,10 10,0 0,-10 z m -10,0 0,-10 -10,0 0,10 10,0 z m -10,0 -10,0 0,10 10,0 0,-10 z m -10,0 0,-10 -10,0 0,10 10,0 z m -10,0 -10,0 0,10 10,0 0,-10 z m -10,0 0,-10 -10,0 0,10 10,0 z m -10,0 -10,0 0,10 10,0 0,-10 z m -10,0 0,-10 -10,0 0,10 10,0 z m -10,0 -10,0 0,10 10,0 0,-10 z m -10,0 0,-10 -10,0 0,10 10,0 z m -10,0 -10,0 0,10 10,0 0,-10 z m -10,0 0,-10 -10,0 0,10 10,0 z m -10,0 -10,0 0,10 10,0 0,-10 z m -10,0 0,-10 -10,0 0,10 10,0 z m -10,0 -10,0 0,10 10,0 0,-10 z m -10,0 0,-10 -10,0 0,10 10,0 z m -10,0 -10,0 0,10 10,0 0,-10 z m -10,0 0,-10 -10,0 0,10 10,0 z m -10,0 -10,0 0,10 10,0 0,-10 z m -10,0 0,-10 -10,0 0,10 10,0 z m -10,0 -10,0 0,10 10,0 0,-10 z m -10,0 0,-10 -10,0 0,10 10,0 z m -10,0 -10,0 0,10 10,0 0,-10 z m -10,0 0,-10 -10,0 0,10 10,0 z m 0,-10 10,0 0,-10 -10,0 0,10 z m 0,-10 0,-10 -10,0 0,10 10,0 z m 0,-10 10,0 0,-10 -10,0 0,10 z m 0,-10 0,-10 -10,0 0,10 10,0 z m 0,-10 10,0 0,-10 -10,0 0,10 z m 0,-10 0,-10 -10,0 0,10 10,0 z m 0,-10 10,0 0,-10 -10,0 0,10 z m 0,-10 0,-10 -10,0 0,10 10,0 z m 0,-10 10,0 0,-10 -10,0 0,10 z m 0,-10 0,-10 -10,0 0,10 10,0 z m 0,-10 10,0 0,-10 -10,0 0,10 z m 0,-10 0,-10 -10,0 0,10 10,0 z m 0,-10 10,0 0,-10 -10,0 0,10 z m 0,-10 0,-10 -10,0 0,10 10,0 z m 0,-10 10,0 0,-10 -10,0 0,10 z m 0,-10 0,-10 -10,0 0,10 10,0 z m 10,0 10,0 0,-10 -10,0 0,10 z m 10,0 0,10 10,0 0,-10 -10,0 z m 10,0 10,0 0,-10 -10,0 0,10 z m 10,0 0,10 10,0 0,-10 -10,0 z m 10,0 10,0 0,-10 -10,0 0,10 z m 10,0 0,10 10,0 0,-10 -10,0 z m 10,0 10,0 0,-10 -10,0 0,10 z m 10,0 0,10 10,0 0,-10 -10,0 z m 10,0 10,0 0,-10 -10,0 0,10 z m 10,0 0,10 10,0 0,-10 -10,0 z m 10,0 10,0 0,-10 -10,0 0,10 z m 10,0 0,10 10,0 0,-10 -10,0 z m 10,0 10,0 0,-10 -10,0 0,10 z m 10,0 0,10 10,0 0,-10 -10,0 z m 10,0 10,0 0,-10 -10,0 0,10 z m 10,0 0,10 10,0 0,-10 -10,0 z m 10,0 10,0 0,-10 -10,0 0,10 z m 10,0 0,10 10,0 0,-10 -10,0 z m 10,0 10,0 0,-10 -10,0 0,10 z m 10,0 0,10 10,0 0,-10 -10,0 z m 10,0 10,0 0,-10 -10,0 0,10 z m 10,0 0,10 10,0 0,-10 -10,0 z m 10,0 10,0 0,-10 -10,0 0,10 z m 10,0 0,10 10,0 0,-10 -10,0 z m 10,0 10,0 0,-10 -10,0 0,10 z m 10,0 0,10 10,0 0,-10 -10,0 z m 10,0 10,0 0,-10 -10,0 0,10 z m 10,0 0,10 10,0 0,-10 -10,0 z m 10,0 10,0 0,-10 -10,0 0,10 z m 10,0 0,10 10,0 0,-10 -10,0 z m 10,0 10,0 0,-10 -10,0 0,10 z m 10,0 0,10 10,0 0,-10 -10,0 z m 10,0 10,0 0,-10 -10,0 0,10 z m 10,0 0,10 10,0 0,-10 -10,0 z m 10,0 10,0 0,-10 -10,0 0,10 z m 10,0 0,10 10,0 0,-10 -10,0 z m 0,10 -10,0 0,10 10,0 0,-10 z m 0,10 0,10 10,0 0,-10 -10,0 z m 0,10 -10,0 0,10 10,0 0,-10 z m 0,10 0,10 10,0 0,-10 -10,0 z m 0,10 -10,0 0,10 10,0 0,-10 z m 0,10 0,10 10,0 0,-10 -10,0 z m 0,10 -10,0 0,10 10,0 0,-10 z m 0,10 0,10 10,0 0,-10 -10,0 z m 0,10 -10,0 0,10 10,0 0,-10 z m 0,10 0,10 10,0 0,-10 -10,0 z m 0,10 -10,0 0,10 10,0 0,-10 z m 0,10 0,10 10,0 0,-10 -10,0 z m 0,10 -10,0 0,10 10,0 0,-10 z m 0,10 0,10 10,0 0,-10 -10,0 z m -10,0 -10,0 0,10 10,0 0,-10 z m -10,0 0,-10 -10,0 0,10 10,0 z m -10,0 -10,0 0,10 10,0 0,-10 z m -10,0 0,-10 -10,0 0,10 10,0 z m -10,0 -10,0 0,10 10,0 0,-10 z m -10,0 0,-10 -10,0 0,10 10,0 z m -10,0 -10,0 0,10 10,0 0,-10 z m -10,0 0,-10 -10,0 0,10 10,0 z m -10,0 -10,0 0,10 10,0 0,-10 z m -10,0 0,-10 -10,0 0,10 10,0 z m -10,0 -10,0 0,10 10,0 0,-10 z m -10,0 0,-10 -10,0 0,10 10,0 z m -10,0 -10,0 0,10 10,0 0,-10 z m -10,0 0,-10 -10,0 0,10 10,0 z m -10,0 -10,0 0,10 10,0 0,-10 z m -10,0 0,-10 -10,0 0,10 10,0 z m -10,0 -10,0 0,10 10,0 0,-10 z m -10,0 0,-10 -10,0 0,10 10,0 z m -10,0 -10,0 0,10 10,0 0,-10 z m -10,0 0,-10 -10,0 0,10 10,0 z m -10,0 -10,0 0,10 10,0 0,-10 z m -10,0 0,-10 -10,0 0,10 10,0 z m -10,0 -10,0 0,10 10,0 0,-10 z m -10,0 0,-10 -10,0 0,10 10,0 z m -10,0 -10,0 0,10 10,0 0,-10 z m -10,0 0,-10 -10,0 0,10 10,0 z m -10,0 -10,0 0,10 10,0 0,-10 z m -10,0 0,-10 -10,0 0,10 10,0 z m -10,0 -10,0 0,10 10,0 0,-10 z m -10,0 0,-10 -10,0 0,10 10,0 z m -10,0 -10,0 0,10 10,0 0,-10 z m -10,0 0,-10 -10,0 0,10 10,0 z m -10,0 -10,0 0,10 10,0 0,-10 z m -10,0 0,-10 -10,0 0,10 10,0 z m 0,-10 10,0 0,-10 -10,0 0,10 z m 0,-10 0,-10 -10,0 0,10 10,0 z m 0,-10 10,0 0,-10 -10,0 0,10 z m 0,-10 0,-10 -10,0 0,10 10,0 z m 0,-10 10,0 0,-10 -10,0 0,10 z m 0,-10 0,-10 -10,0 0,10 10,0 z m 0,-10 10,0 0,-10 -10,0 0,10 z m 0,-10 0,-10 -10,0 0,10 10,0 z m 0,-10 10,0 0,-10 -10,0 0,10 z m 0,-10 0,-10 -10,0 0,10 10,0 z m 0,-10 10,0 0,-10 -10,0 0,10 z m 0,-10 0,-10 -10,0 0,10 10,0 z m 10,0 10,0 0,-10 -10,0 0,10 z m 10,0 0,10 10,0 0,-10 -10,0 z m 10,0 10,0 0,-10 -10,0 0,10 z m 10,0 0,10 10,0 0,-10 -10,0 z m 10,0 10,0 0,-10 -10,0 0,10 z m 10,0 0,10 10,0 0,-10 -10,0 z m 10,0 10,0 0,-10 -10,0 0,10 z m 10,0 0,10 10,0 0,-10 -10,0 z m 10,0 10,0 0,-10 -10,0 0,10 z m 10,0 0,10 10,0 0,-10 -10,0 z m 10,0 10,0 0,-10 -10,0 0,10 z m 10,0 0,10 10,0 0,-10 -10,0 z m 10,0 10,0 0,-10 -10,0 0,10 z m 10,0 0,10 10,0 0,-10 -10,0 z m 10,0 10,0 0,-10 -10,0 0,10 z m 10,0 0,10 10,0 0,-10 -10,0 z m 10,0 10,0 0,-10 -10,0 0,10 z m 10,0 0,10 10,0 0,-10 -10,0 z m 10,0 10,0 0,-10 -10,0 0,10 z m 10,0 0,10 10,0 0,-10 -10,0 z m 10,0 10,0 0,-10 -10,0 0,10 z m 10,0 0,10 10,0 0,-10 -10,0 z m 10,0 10,0 0,-10 -10,0 0,10 z m 10,0 0,10 10,0 0,-10 -10,0 z m 10,0 10,0 0,-10 -10,0 0,10 z m 10,0 0,10 10,0 0,-10 -10,0 z m 10,0 10,0 0,-10 -10,0 0,10 z m 10,0 0,10 10,0 0,-10 -10,0 z m 10,0 10,0 0,-10 -10,0 0,10 z m 10,0 0,10 10,0 0,-10 -10,0 z m 10,0 10,0 0,-10 -10,0 0,10 z m 10,0 0,10 10,0 0,-10 -10,0 z m 0,10 -10,0 0,10 10,0 0,-10 z m 0,10 0,10 10,0 0,-10 -10,0 z m 0,10 -10,0 0,10 10,0 0,-10 z m 0,10 0,10 10,0 0,-10 -10,0 z m 0,10 -10,0 0,10 10,0 0,-10 z m 0,10 0,10 10,0 0,-10 -10,0 z m 0,10 -10,0 0,10 10,0 0,-10 z m 0,10 0,10 10,0 0,-10 -10,0 z m 0,10 -10,0 0,10 10,0 0,-10 z m 0,10 0,10 10,0 0,-10 -10,0 z m -10,0 -10,0 0,10 10,0 0,-10 z m -10,0 0,-10 -10,0 0,10 10,0 z m -10,0 -10,0 0,10 10,0 0,-10 z m -10,0 0,-10 -10,0 0,10 10,0 z m -10,0 -10,0 0,10 10,0 0,-10 z m -10,0 0,-10 -10,0 0,10 10,0 z m -10,0 -10,0 0,10 10,0 0,-10 z m -10,0 0,-10 -10,0 0,10 10,0 z m -10,0 -10,0 0,10 10,0 0,-10 z m -10,0 0,-10 -10,0 0,10 10,0 z m -10,0 -10,0 0,10 10,0 0,-10 z m -10,0 0,-10 -10,0 0,10 10,0 z m -10,0 -10,0 0,10 10,0 0,-10 z m -10,0 0,-10 -10,0 0,10 10,0 z m -10,0 -10,0 0,10 10,0 0,-10 z m -10,0 0,-10 -10,0 0,10 10,0 z m -10,0 -10,0 0,10 10,0 0,-10 z m -10,0 0,-10 -10,0 0,10 10,0 z m -10,0 -10,0 0,10 10,0 0,-10 z m -10,0 0,-10 -10,0 0,10 10,0 z m -10,0 -10,0 0,10 10,0 0,-10 z m -10,0 0,-10 -10,0 0,10 10,0 z m -10,0 -10,0 0,10 10,0 0,-10 z m -10,0 0,-10 -10,0 0,10 10,0 z m -10,0 -10,0 0,10 10,0 0,-10 z m -10,0 0,-10 -10,0 0,10 10,0 z m -10,0 -10,0 0,10 10,0 0,-10 z m -10,0 0,-10 -10,0 0,10 10,0 z m -10,0 -10,0 0,10 10,0 0,-10 z m -10,0 0,-10 -10,0 0,10 10,0 z m 0,-10 10,0 0,-10 -10,0 0,10 z m 0,-10 0,-10 -10,0 0,10 10,0 z m 0,-10 10,0 0,-10 -10,0 0,10 z m 0,-10 0,-10 -10,0 0,10 10,0 z m 0,-10 10,0 0,-10 -10,0 0,10 z m 0,-10 0,-10 -10,0 0,10 10,0 z m 0,-10 10,0 0,-10 -10,0 0,10 z m 0,-10 0,-10 -10,0 0,10 10,0 z m 10,0 10,0 0,-10 -10,0 0,10 z m 10,0 0,10 10,0 0,-10 -10,0 z m 10,0 10,0 0,-10 -10,0 0,10 z m 10,0 0,10 10,0 0,-10 -10,0 z m 10,0 10,0 0,-10 -10,0 0,10 z m 10,0 0,10 10,0 0,-10 -10,0 z m 10,0 10,0 0,-10 -10,0 0,10 z m 10,0 0,10 10,0 0,-10 -10,0 z m 10,0 10,0 0,-10 -10,0 0,10 z m 10,0 0,10 10,0 0,-10 -10,0 z m 10,0 10,0 0,-10 -10,0 0,10 z m 10,0 0,10 10,0 0,-10 -10,0 z m 10,0 10,0 0,-10 -10,0 0,10 z m 10,0 0,10 10,0 0,-10 -10,0 z m 10,0 10,0 0,-10 -10,0 0,10 z m 10,0 0,10 10,0 0,-10 -10,0 z m 10,0 10,0 0,-10 -10,0 0,10 z m 10,0 0,10 10,0 0,-10 -10,0 z m 10,0 10,0 0,-10 -10,0 0,10 z m 10,0 0,10 10,0 0,-10 -10,0 z m 10,0 10,0 0,-10 -10,0 0,10 z m 10,0 0,10 10,0 0,-10 -10,0 z m 10,0 10,0 0,-10 -10,0 0,10 z m 10,0 0,10 10,0 0,-10 -10,0 z m 10,0 10,0 0,-10 -10,0 0,10 z m 10,0 0,10 10,0 0,-10 -10,0 z m 10,0 10,0 0,-10 -10,0 0,10 z m 10,0 0,10 10,0 0,-10 -10,0 z m 0,10 -10,0 0,10 10,0 0,-10 z m 0,10 0,10 10,0 0,-10 -10,0 z m 0,10 -10,0 0,10 10,0 0,-10 z m 0,10 0,10 10,0 0,-10 -10,0 z m 0,10 -10,0 0,10 10,0 0,-10 z m 0,10 0,10 10,0 0,-10 -10,0 z m -10,0 -10,0 0,10 10,0 0,-10 z m -10,0 0,-10 -10,0 0,10 10,0 z m -10,0 -10,0 0,10 10,0 0,-10 z m -10,0 0,-10 -10,0 0,10 10,0 z m -10,0 -10,0 0,10 10,0 0,-10 z m -10,0 0,-10 -10,0 0,10 10,0 z m -10,0 -10,0 0,10 10,0 0,-10 z m -10,0 0,-10 -10,0 0,10 10,0 z m -10,0 -10,0 0,10 10,0 0,-10 z m -10,0 0,-10 -10,0 0,10 10,0 z m -10,0 -10,0 0,10 10,0 0,-10 z m -10,0 0,-10 -10,0 0,10 10,0 z m -10,0 -10,0 0,10 10,0 0,-10 z m -10,0 0,-10 -10,0 0,10 10,0 z m -10,0 -10,0 0,10 10,0 0,-10 z m -10,0 0,-10 -10,0 0,10 10,0 z m -10,0 -10,0 0,10 10,0 0,-10 z m -10,0 0,-10 -10,0 0,10 10,0 z m -10,0 -10,0 0,10 10,0 0,-10 z m -10,0 0,-10 -10,0 0,10 10,0 z m -10,0 -10,0 0,10 10,0 0,-10 z m -10,0 0,-10 -10,0 0,10 10,0 z m -10,0 -10,0 0,10 10,0 0,-10 z m -10,0 0,-10 -10,0 0,10 10,0 z m -10,0 -10,0 0,10 10,0 0,-10 z m -10,0 0,-10 -10,0 0,10 10,0 z m 0,-10 10,0 0,-10 -10,0 0,10 z m 0,-10 0,-10 -10,0 0,10 10,0 z m 0,-10 10,0 0,-10 -10,0 0,10 z m 0,-10 0,-10 -10,0 0,10 10,0 z m 10,0 10,0 0,-10 -10,0 0,10 z m 10,0 0,10 10,0 0,-10 -10,0 z m 10,0 10,0 0,-10 -10,0 0,10 z m 10,0 0,10 10,0 0,-10 -10,0 z m 10,0 10,0 0,-10 -10,0 0,10 z m 10,0 0,10 10,0 0,-10 -10,0 z m 10,0 10,0 0,-10 -10,0 0,10 z m 10,0 0,10 10,0 0,-10 -10,0 z m 10,0 10,0 0,-10 -10,0 0,10 z m 10,0 0,10 10,0 0,-10 -10,0 z m 10,0 10,0 0,-10 -10,0 0,10 z m 10,0 0,10 10,0 0,-10 -10,0 z m 10,0 10,0 0,-10 -10,0 0,10 z m 10,0 0,10 10,0 0,-10 -10,0 z m 10,0 10,0 0,-10 -10,0 0,10 z m 10,0 0,10 10,0 0,-10 -10,0 z m 10,0 10,0 0,-10 -10,0 0,10 z m 10,0 0,10 10,0 0,-10 -10,0 z m 10,0 10,0 0,-10 -10,0 0,10 z m 10,0 0,10 10,0 0,-10 -10,0 z m 10,0 10,0 0,-10 -10,0 0,10 z m 10,0 0,10 10,0 0,-10 -10,0 z m 10,0 10,0 0,-10 -10,0 0,10 z m 10,0 0,10 10,0 0,-10 -10,0 z m 0,10 -10,0 0,10 10,0 0,-10 z m 0,10 0,10 10,0 0,-10 -10,0 z m -10,0 -10,0 0,10 10,0 0,-10 z m -10,0 0,-10 -10,0 0,10 10,0 z m -10,0 -10,0 0,10 10,0 0,-10 z m -10,0 0,-10 -10,0 0,10 10,0 z m -10,0 -10,0 0,10 10,0 0,-10 z m -10,0 0,-10 -10,0 0,10 10,0 z m -10,0 -10,0 0,10 10,0 0,-10 z m -10,0 0,-10 -10,0 0,10 10,0 z m -10,0 -10,0 0,10 10,0 0,-10 z m -10,0 0,-10 -10,0 0,10 10,0 z m -10,0 -10,0 0,10 10,0 0,-10 z m -10,0 0,-10 -10,0 0,10 10,0 z m -10,0 -10,0 0,10 10,0 0,-10 z m -10,0 0,-10 -10,0 0,10 10,0 z m -10,0 -10,0 0,10 10,0 0,-10 z m -10,0 0,-10 -10,0 0,10 10,0 z m -10,0 -10,0 0,10 10,0 0,-10 z m -10,0 0,-10 -10,0 0,10 10,0 z m -10,0 -10,0 0,10 10,0 0,-10 z m -10,0 0,-10 -10,0 0,10 10,0 z m -10,0 -10,0 0,10 10,0 0,-10 z m -10,0 0,-10 -10,0 0,10 10,0 z"
       id="rect24018"
       inkscape:connector-curvature="0" />
    <g
       id="g4738"
       style="display:none">
      <g
         id="g4730">
        <rect
           style="color:#000000;fill:#ff0000;fill-opacity:1;fill-rule:nonzero;stroke:#000000;stroke-width:10;stroke-linecap:round;stroke-linejoin:miter;stroke-miterlimit:4;stroke-opacity:1;stroke-dasharray:none;stroke-dashoffset:0;marker:none;visibility:visible;display:inline;overflow:visible;enable-background:accumulate"
           id="rect4726"
           width="60"
           height="60"
           x="20"
           y="20" />
        <rect
           style="color:#000000;fill:#ffff00;fill-opacity:1;fill-rule:nonzero;stroke:#000000;stroke-width:10;stroke-linecap:round;stroke-linejoin:miter;stroke-miterlimit:4;stroke-opacity:1;stroke-dasharray:none;stroke-dashoffset:0;marker:none;visibility:visible;display:inline;overflow:visible;enable-background:accumulate"
           id="rect4728"
           width="60"
           height="60"
           x="100"
           y="20" />
      </g>
      <rect
         y="20"
         x="50"
         height="60"
         width="80"
         id="rect4736"
         style="color:#000000;fill:#00ff00;fill-opacity:1;fill-rule:nonzero;stroke:#000000;stroke-width:10;stroke-linecap:round;stroke-linejoin:miter;stroke-miterlimit:4;stroke-opacity:1;stroke-dasharray:none;stroke-dashoffset:0;marker:none;visibility:visible;display:inline;overflow:visible;enable-background:accumulate" />
    </g>
    <path
       sodipodi:type="arc"
       style="color:#000000;fill:#ffff00;fill-opacity:1;fill-rule:nonzero;stroke:none;stroke-width:1;marker:none;visibility:visible;display:inline;overflow:visible;enable-background:accumulate;filter:url(#filter4915)"
       id="path4841"
       sodipodi:cx="530"
       sodipodi:cy="410"
       sodipodi:rx="40"
       sodipodi:ry="40"
       d="m 570,410 a 40,40 0 1 1 -80,0 40,40 0 1 1 80,0 z"
       transform="translate(-413.63247,-333.60924)" />
    <path
       transform="translate(-269.63248,-333.60924)"
       d="m 570,410 a 40,40 0 1 1 -80,0 40,40 0 1 1 80,0 z"
       sodipodi:ry="40"
       sodipodi:rx="40"
       sodipodi:cy="410"
       sodipodi:cx="530"
       id="path4847"
       style="color:#000000;fill:#ffff00;fill-opacity:1;fill-rule:nonzero;stroke:none;stroke-width:1;marker:none;visibility:visible;display:inline;overflow:visible;enable-background:accumulate;filter:url(#filter4919)"
       sodipodi:type="arc" />
    <path
       sodipodi:type="arc"
       style="color:#000000;fill:#ffff00;fill-opacity:1;fill-rule:nonzero;stroke:none;stroke-width:1;marker:none;visibility:visible;display:inline;overflow:visible;enable-background:accumulate;filter:url(#filter4923)"
       id="path4849"
       sodipodi:cx="530"
       sodipodi:cy="410"
       sodipodi:rx="40"
       sodipodi:ry="40"
       d="m 570,410 a 40,40 0 1 1 -80,0 40,40 0 1 1 80,0 z"
       transform="translate(-125.63248,-333.60924)" />
    <path
       transform="translate(162.36753,-330.78081)"
       d="m 570,410 a 40,40 0 1 1 -80,0 40,40 0 1 1 80,0 z"
       sodipodi:ry="40"
       sodipodi:rx="40"
       sodipodi:cy="410"
       sodipodi:cx="530"
       id="path4851"
       style="color:#000000;fill:#ffff00;fill-opacity:1;fill-rule:nonzero;stroke:none;stroke-width:1;marker:none;visibility:visible;display:inline;overflow:visible;enable-background:accumulate;filter:url(#filter4931)"
       sodipodi:type="arc" />
    <path
       sodipodi:type="arc"
       style="color:#000000;fill:#ffff00;fill-opacity:1;fill-rule:nonzero;stroke:none;stroke-width:1;marker:none;visibility:visible;display:inline;overflow:visible;enable-background:accumulate;filter:url(#filter4927)"
       id="path4853"
       sodipodi:cx="530"
       sodipodi:cy="410"
       sodipodi:rx="40"
       sodipodi:ry="40"
       d="m 570,410 a 40,40 0 1 1 -80,0 40,40 0 1 1 80,0 z"
       transform="translate(18.367544,-333.60924)" />
    <path
       transform="translate(-417.99999,-150)"
       d="m 570,410 a 40,40 0 1 1 -80,0 40,40 0 1 1 80,0 z"
       sodipodi:ry="40"
       sodipodi:rx="40"
       sodipodi:cy="410"
       sodipodi:cx="530"
       id="path4905"
       style="color:#000000;fill:#ffff00;fill-opacity:1;fill-rule:nonzero;stroke:none;stroke-width:1;marker:none;visibility:visible;display:inline;overflow:visible;enable-background:accumulate;filter:url(#filter4935)"
       sodipodi:type="arc" />
    <path
       sodipodi:type="arc"
       style="color:#000000;fill:#ffff00;fill-opacity:1;fill-rule:nonzero;stroke:none;stroke-width:1;marker:none;visibility:visible;display:inline;overflow:visible;enable-background:accumulate;filter:url(#filter4939)"
       id="path4907"
       sodipodi:cx="530"
       sodipodi:cy="410"
       sodipodi:rx="40"
       sodipodi:ry="40"
       d="m 570,410 a 40,40 0 1 1 -80,0 40,40 0 1 1 80,0 z"
       transform="translate(-274,-150)" />
    <path
       transform="translate(-130,-150)"
       d="m 570,410 a 40,40 0 1 1 -80,0 40,40 0 1 1 80,0 z"
       sodipodi:ry="40"
       sodipodi:rx="40"
       sodipodi:cy="410"
       sodipodi:cx="530"
       id="path4909"
       style="color:#000000;fill:#ffff00;fill-opacity:1;fill-rule:nonzero;stroke:none;stroke-width:1;marker:none;visibility:visible;display:inline;overflow:visible;enable-background:accumulate;filter:url(#filter4943)"
       sodipodi:type="arc" />
    <path
       sodipodi:type="arc"
       style="color:#000000;fill:#ffff00;fill-opacity:1;fill-rule:nonzero;stroke:none;stroke-width:1;marker:none;visibility:visible;display:inline;overflow:visible;enable-background:accumulate;filter:url(#filter4951)"
       id="path4911"
       sodipodi:cx="530"
       sodipodi:cy="410"
       sodipodi:rx="40"
       sodipodi:ry="40"
       d="m 570,410 a 40,40 0 1 1 -80,0 40,40 0 1 1 80,0 z"
       transform="translate(158.00001,-147.17157)" />
    <path
       transform="translate(14.000024,-150)"
       d="m 570,410 a 40,40 0 1 1 -80,0 40,40 0 1 1 80,0 z"
       sodipodi:ry="40"
       sodipodi:rx="40"
       sodipodi:cy="410"
       sodipodi:cx="530"
       id="path4913"
       style="color:#000000;fill:#ffff00;fill-opacity:1;fill-rule:nonzero;stroke:none;stroke-width:1;marker:none;visibility:visible;display:inline;overflow:visible;enable-background:accumulate;filter:url(#filter4947)"
       sodipodi:type="arc" />
  </g>
</svg>
