<?xml version="1.0" encoding="UTF-8" standalone="no"?>
<!-- Created with Inkscape (http://www.inkscape.org/) -->

<svg
   xmlns:dc="http://purl.org/dc/elements/1.1/"
   xmlns:cc="http://creativecommons.org/ns#"
   xmlns:rdf="http://www.w3.org/1999/02/22-rdf-syntax-ns#"
   xmlns:svg="http://www.w3.org/2000/svg"
   xmlns="http://www.w3.org/2000/svg"
   xmlns:xlink="http://www.w3.org/1999/xlink"
   xmlns:sodipodi="http://sodipodi.sourceforge.net/DTD/sodipodi-0.dtd"
   xmlns:inkscape="http://www.inkscape.org/namespaces/inkscape"
   width="800px"
   height="600px"
   id="svg3025"
   version="1.1"
   inkscape:version="0.48.4 r9939"
   sodipodi:docname="inheritance.svg">
  <defs
     id="defs3027" />
  <sodipodi:namedview
     id="base"
     pagecolor="#ffffff"
     bordercolor="#666666"
     borderopacity="1.0"
     inkscape:pageopacity="0.0"
     inkscape:pageshadow="2"
     inkscape:zoom="0.84852814"
     inkscape:cx="387.63304"
     inkscape:cy="378.91687"
     inkscape:current-layer="layer1"
     inkscape:document-units="px"
     showgrid="true"
     inkscape:window-width="1280"
     inkscape:window-height="972"
     inkscape:window-x="-8"
     inkscape:window-y="-8"
     inkscape:window-maximized="1"
     inkscape:snap-bbox="true"
     inkscape:bbox-nodes="true"
     inkscape:bbox-paths="true"
     inkscape:snap-bbox-edge-midpoints="true"
     inkscape:snap-bbox-midpoints="true">
    <inkscape:grid
       type="xygrid"
       id="grid3033" />
  </sodipodi:namedview>
  <metadata
     id="metadata3030">
    <rdf:RDF>
      <cc:Work
         rdf:about="">
        <dc:format>image/svg+xml</dc:format>
        <dc:type
           rdf:resource="http://purl.org/dc/dcmitype/StillImage" />
        <dc:title />
      </cc:Work>
    </rdf:RDF>
  </metadata>
  <g
     id="layer1"
     inkscape:label="Layer 1"
     inkscape:groupmode="layer"
     style="display:inline">
    <use
       x="0"
       y="0"
       xlink:href="#g4764"
       id="use4770"
       transform="translate(2.9925104e-8,60)"
       width="800"
       height="600" />
    <path
       style="color:#000000;fill:#808080;fill-opacity:1;fill-rule:nonzero;stroke:none;stroke-width:5;marker:none;visibility:visible;display:inline;overflow:visible;enable-background:accumulate"
       d="M 0,0 0,10 10,10 10,0 0,0 z m 10,10 0,10 10,0 0,-10 -10,0 z m 10,0 10,0 0,-10 -10,0 0,10 z m 10,0 0,10 10,0 0,-10 -10,0 z m 10,0 10,0 0,-10 -10,0 0,10 z m 10,0 0,10 10,0 0,-10 -10,0 z m 10,0 10,0 0,-10 -10,0 0,10 z m 10,0 0,10 10,0 0,-10 -10,0 z m 10,0 10,0 0,-10 -10,0 0,10 z m 10,0 0,10 10,0 0,-10 -10,0 z m 10,0 10,0 0,-10 -10,0 0,10 z m 10,0 0,10 10,0 0,-10 -10,0 z m 10,0 10,0 0,-10 -10,0 0,10 z m 10,0 0,10 10,0 0,-10 -10,0 z m 10,0 10,0 0,-10 -10,0 0,10 z m 10,0 0,10 10,0 0,-10 -10,0 z m 10,0 10,0 0,-10 -10,0 0,10 z m 10,0 0,10 10,0 0,-10 -10,0 z m 10,0 10,0 0,-10 -10,0 0,10 z m 10,0 0,10 10,0 0,-10 -10,0 z m 10,0 10,0 0,-10 -10,0 0,10 z m 10,0 0,10 10,0 0,-10 -10,0 z m 10,0 10,0 0,-10 -10,0 0,10 z m 10,0 0,10 10,0 0,-10 -10,0 z m 10,0 10,0 0,-10 -10,0 0,10 z m 10,0 0,10 10,0 0,-10 -10,0 z m 10,0 10,0 0,-10 -10,0 0,10 z m 10,0 0,10 10,0 0,-10 -10,0 z m 10,0 10,0 0,-10 -10,0 0,10 z m 10,0 0,10 10,0 0,-10 -10,0 z m 10,0 10,0 0,-10 -10,0 0,10 z m 10,0 0,10 10,0 0,-10 -10,0 z m 10,0 10,0 0,-10 -10,0 0,10 z m 10,0 0,10 10,0 0,-10 -10,0 z m 10,0 10,0 0,-10 -10,0 0,10 z m 10,0 0,10 10,0 0,-10 -10,0 z m 10,0 10,0 0,-10 -10,0 0,10 z m 10,0 0,10 10,0 0,-10 -10,0 z m 10,0 10,0 0,-10 -10,0 0,10 z m 10,0 0,10 10,0 0,-10 -10,0 z m 10,0 10,0 0,-10 -10,0 0,10 z m 10,0 0,10 10,0 0,-10 -10,0 z m 10,0 10,0 0,-10 -10,0 0,10 z m 10,0 0,10 10,0 0,-10 -10,0 z m 10,0 10,0 0,-10 -10,0 0,10 z m 10,0 0,10 10,0 0,-10 -10,0 z m 10,0 10,0 0,-10 -10,0 0,10 z m 10,0 0,10 10,0 0,-10 -10,0 z m 10,0 10,0 0,-10 -10,0 0,10 z m 10,0 0,10 10,0 0,-10 -10,0 z m 10,0 10,0 0,-10 -10,0 0,10 z m 10,0 0,10 10,0 0,-10 -10,0 z m 10,0 10,0 0,-10 -10,0 0,10 z m 10,0 0,10 10,0 0,-10 -10,0 z m 10,0 10,0 0,-10 -10,0 0,10 z m 10,0 0,10 10,0 0,-10 -10,0 z m 10,0 10,0 0,-10 -10,0 0,10 z m 10,0 0,10 10,0 0,-10 -10,0 z m 10,0 10,0 0,-10 -10,0 0,10 z m 10,0 0,10 10,0 0,-10 -10,0 z m 10,0 10,0 0,-10 -10,0 0,10 z m 10,0 0,10 10,0 0,-10 -10,0 z m 10,0 10,0 0,-10 -10,0 0,10 z m 10,0 0,10 10,0 0,-10 -10,0 z m 10,0 10,0 0,-10 -10,0 0,10 z m 10,0 0,10 10,0 0,-10 -10,0 z m 10,0 10,0 0,-10 -10,0 0,10 z m 10,0 0,10 10,0 0,-10 -10,0 z m 10,0 10,0 0,-10 -10,0 0,10 z m 10,0 0,10 10,0 0,-10 -10,0 z m 10,0 10,0 0,-10 -10,0 0,10 z m 10,0 0,10 10,0 0,-10 -10,0 z m 10,0 10,0 0,-10 -10,0 0,10 z m 10,0 0,10 10,0 0,-10 -10,0 z m 10,0 10,0 0,-10 -10,0 0,10 z m 10,0 0,10 10,0 0,-10 -10,0 z m 10,0 10,0 0,-10 -10,0 0,10 z m 10,0 0,10 10,0 0,-10 -10,0 z m 10,0 10,0 0,-10 -10,0 0,10 z m 10,0 0,10 10,0 0,-10 -10,0 z m 0,10 -10,0 0,10 10,0 0,-10 z m 0,10 0,10 10,0 0,-10 -10,0 z m 0,10 -10,0 0,10 10,0 0,-10 z m 0,10 0,10 10,0 0,-10 -10,0 z m 0,10 -10,0 0,10 10,0 0,-10 z m 0,10 0,10 10,0 0,-10 -10,0 z m 0,10 -10,0 0,10 10,0 0,-10 z m 0,10 0,10 10,0 0,-10 -10,0 z m 0,10 -10,0 0,10 10,0 0,-10 z m 0,10 0,10 10,0 0,-10 -10,0 z m 0,10 -10,0 0,10 10,0 0,-10 z m 0,10 0,10 10,0 0,-10 -10,0 z m 0,10 -10,0 0,10 10,0 0,-10 z m 0,10 0,10 10,0 0,-10 -10,0 z m 0,10 -10,0 0,10 10,0 0,-10 z m 0,10 0,10 10,0 0,-10 -10,0 z m 0,10 -10,0 0,10 10,0 0,-10 z m 0,10 0,10 10,0 0,-10 -10,0 z m 0,10 -10,0 0,10 10,0 0,-10 z m 0,10 0,10 10,0 0,-10 -10,0 z m 0,10 -10,0 0,10 10,0 0,-10 z m 0,10 0,10 10,0 0,-10 -10,0 z m 0,10 -10,0 0,10 10,0 0,-10 z m 0,10 0,10 10,0 0,-10 -10,0 z m 0,10 -10,0 0,10 10,0 0,-10 z m 0,10 0,10 10,0 0,-10 -10,0 z m 0,10 -10,0 0,10 10,0 0,-10 z m 0,10 0,10 10,0 0,-10 -10,0 z m 0,10 -10,0 0,10 10,0 0,-10 z m 0,10 0,10 10,0 0,-10 -10,0 z m 0,10 -10,0 0,10 10,0 0,-10 z m 0,10 0,10 10,0 0,-10 -10,0 z m 0,10 -10,0 0,10 10,0 0,-10 z m 0,10 0,10 10,0 0,-10 -10,0 z m 0,10 -10,0 0,10 10,0 0,-10 z m 0,10 0,10 10,0 0,-10 -10,0 z m 0,10 -10,0 0,10 10,0 0,-10 z m 0,10 0,10 10,0 0,-10 -10,0 z m 0,10 -10,0 0,10 10,0 0,-10 z m 0,10 0,10 10,0 0,-10 -10,0 z m 0,10 -10,0 0,10 10,0 0,-10 z m 0,10 0,10 10,0 0,-10 -10,0 z m 0,10 -10,0 0,10 10,0 0,-10 z m 0,10 0,10 10,0 0,-10 -10,0 z m 0,10 -10,0 0,10 10,0 0,-10 z m 0,10 0,10 10,0 0,-10 -10,0 z m 0,10 -10,0 0,10 10,0 0,-10 z m 0,10 0,10 10,0 0,-10 -10,0 z m 0,10 -10,0 0,10 10,0 0,-10 z m 0,10 0,10 10,0 0,-10 -10,0 z m 0,10 -10,0 0,10 10,0 0,-10 z m 0,10 0,10 10,0 0,-10 -10,0 z m 0,10 -10,0 0,10 10,0 0,-10 z m 0,10 0,10 10,0 0,-10 -10,0 z m 0,10 -10,0 0,10 10,0 0,-10 z m 0,10 0,10 10,0 0,-10 -10,0 z m 0,10 -10,0 0,10 10,0 0,-10 z m 0,10 0,10 10,0 0,-10 -10,0 z m -10,0 -10,0 0,10 10,0 0,-10 z m -10,0 0,-10 -10,0 0,10 10,0 z m -10,0 -10,0 0,10 10,0 0,-10 z m -10,0 0,-10 -10,0 0,10 10,0 z m -10,0 -10,0 0,10 10,0 0,-10 z m -10,0 0,-10 -10,0 0,10 10,0 z m -10,0 -10,0 0,10 10,0 0,-10 z m -10,0 0,-10 -10,0 0,10 10,0 z m -10,0 -10,0 0,10 10,0 0,-10 z m -10,0 0,-10 -10,0 0,10 10,0 z m -10,0 -10,0 0,10 10,0 0,-10 z m -10,0 0,-10 -10,0 0,10 10,0 z m -10,0 -10,0 0,10 10,0 0,-10 z m -10,0 0,-10 -10,0 0,10 10,0 z m -10,0 -10,0 0,10 10,0 0,-10 z m -10,0 0,-10 -10,0 0,10 10,0 z m -10,0 -10,0 0,10 10,0 0,-10 z m -10,0 0,-10 -10,0 0,10 10,0 z m -10,0 -10,0 0,10 10,0 0,-10 z m -10,0 0,-10 -10,0 0,10 10,0 z m -10,0 -10,0 0,10 10,0 0,-10 z m -10,0 0,-10 -10,0 0,10 10,0 z m -10,0 -10,0 0,10 10,0 0,-10 z m -10,0 0,-10 -10,0 0,10 10,0 z m -10,0 -10,0 0,10 10,0 0,-10 z m -10,0 0,-10 -10,0 0,10 10,0 z m -10,0 -10,0 0,10 10,0 0,-10 z m -10,0 0,-10 -10,0 0,10 10,0 z m -10,0 -10,0 0,10 10,0 0,-10 z m -10,0 0,-10 -10,0 0,10 10,0 z m -10,0 -10,0 0,10 10,0 0,-10 z m -10,0 0,-10 -10,0 0,10 10,0 z m -10,0 -10,0 0,10 10,0 0,-10 z m -10,0 0,-10 -10,0 0,10 10,0 z m -10,0 -10,0 0,10 10,0 0,-10 z m -10,0 0,-10 -10,0 0,10 10,0 z m -10,0 -10,0 0,10 10,0 0,-10 z m -10,0 0,-10 -10,0 0,10 10,0 z m -10,0 -10,0 0,10 10,0 0,-10 z m -10,0 0,-10 -10,0 0,10 10,0 z m -10,0 -10,0 0,10 10,0 0,-10 z m -10,0 0,-10 -10,0 0,10 10,0 z m -10,0 -10,0 0,10 10,0 0,-10 z m -10,0 0,-10 -10,0 0,10 10,0 z m -10,0 -10,0 0,10 10,0 0,-10 z m -10,0 0,-10 -10,0 0,10 10,0 z m -10,0 -10,0 0,10 10,0 0,-10 z m -10,0 0,-10 -10,0 0,10 10,0 z m -10,0 -10,0 0,10 10,0 0,-10 z m -10,0 0,-10 -10,0 0,10 10,0 z m -10,0 -10,0 0,10 10,0 0,-10 z m -10,0 0,-10 -10,0 0,10 10,0 z m -10,0 -10,0 0,10 10,0 0,-10 z m -10,0 0,-10 -10,0 0,10 10,0 z m -10,0 -10,0 0,10 10,0 0,-10 z m -10,0 0,-10 -10,0 0,10 10,0 z m -10,0 -10,0 0,10 10,0 0,-10 z m -10,0 0,-10 -10,0 0,10 10,0 z m -10,0 -10,0 0,10 10,0 0,-10 z m -10,0 0,-10 -10,0 0,10 10,0 z m -10,0 -10,0 0,10 10,0 0,-10 z m -10,0 0,-10 -10,0 0,10 10,0 z m -10,0 -10,0 0,10 10,0 0,-10 z m -10,0 0,-10 -10,0 0,10 10,0 z m -10,0 -10,0 0,10 10,0 0,-10 z m -10,0 0,-10 -10,0 0,10 10,0 z m -10,0 -10,0 0,10 10,0 0,-10 z m -10,0 0,-10 -10,0 0,10 10,0 z m -10,0 -10,0 0,10 10,0 0,-10 z m -10,0 0,-10 -10,0 0,10 10,0 z m -10,0 -10,0 0,10 10,0 0,-10 z m -10,0 0,-10 -10,0 0,10 10,0 z m -10,0 -10,0 0,10 10,0 0,-10 z m -10,0 0,-10 -10,0 0,10 10,0 z m -10,0 -10,0 0,10 10,0 0,-10 z m -10,0 0,-10 -10,0 0,10 10,0 z m -10,0 -10,0 0,10 10,0 0,-10 z m -10,0 0,-10 -10,0 0,10 10,0 z m 0,-10 10,0 0,-10 -10,0 0,10 z m 0,-10 0,-10 -10,0 0,10 10,0 z m 0,-10 10,0 0,-10 -10,0 0,10 z m 0,-10 0,-10 -10,0 0,10 10,0 z m 0,-10 10,0 0,-10 -10,0 0,10 z m 0,-10 0,-10 -10,0 0,10 10,0 z m 0,-10 10,0 0,-10 -10,0 0,10 z m 0,-10 0,-10 -10,0 0,10 10,0 z m 0,-10 10,0 0,-10 -10,0 0,10 z m 0,-10 0,-10 -10,0 0,10 10,0 z m 0,-10 10,0 0,-10 -10,0 0,10 z m 0,-10 0,-10 -10,0 0,10 10,0 z m 0,-10 10,0 0,-10 -10,0 0,10 z m 0,-10 0,-10 -10,0 0,10 10,0 z m 0,-10 10,0 0,-10 -10,0 0,10 z m 0,-10 0,-10 -10,0 0,10 10,0 z m 0,-10 10,0 0,-10 -10,0 0,10 z m 0,-10 0,-10 -10,0 0,10 10,0 z m 0,-10 10,0 0,-10 -10,0 0,10 z m 0,-10 0,-10 -10,0 0,10 10,0 z m 0,-10 10,0 0,-10 -10,0 0,10 z m 0,-10 0,-10 -10,0 0,10 10,0 z m 0,-10 10,0 0,-10 -10,0 0,10 z m 0,-10 0,-10 -10,0 0,10 10,0 z m 0,-10 10,0 0,-10 -10,0 0,10 z m 0,-10 0,-10 -10,0 0,10 10,0 z m 0,-10 10,0 0,-10 -10,0 0,10 z m 0,-10 0,-10 -10,0 0,10 10,0 z m 0,-10 10,0 0,-10 -10,0 0,10 z m 0,-10 0,-10 -10,0 0,10 10,0 z m 0,-10 10,0 0,-10 -10,0 0,10 z m 0,-10 0,-10 -10,0 0,10 10,0 z m 0,-10 10,0 0,-10 -10,0 0,10 z m 0,-10 0,-10 -10,0 0,10 10,0 z m 0,-10 10,0 0,-10 -10,0 0,10 z m 0,-10 0,-10 -10,0 0,10 10,0 z m 0,-10 10,0 0,-10 -10,0 0,10 z m 0,-10 0,-10 -10,0 0,10 10,0 z m 0,-10 10,0 0,-10 -10,0 0,10 z m 0,-10 0,-10 -10,0 0,10 10,0 z m 0,-10 10,0 0,-10 -10,0 0,10 z m 0,-10 0,-10 -10,0 0,10 10,0 z m 0,-10 10,0 0,-10 -10,0 0,10 z m 0,-10 0,-10 -10,0 0,10 10,0 z m 0,-10 10,0 0,-10 -10,0 0,10 z m 0,-10 0,-10 -10,0 0,10 10,0 z m 0,-10 10,0 0,-10 -10,0 0,10 z m 0,-10 0,-10 -10,0 0,10 10,0 z m 0,-10 10,0 0,-10 -10,0 0,10 z m 0,-10 0,-10 -10,0 0,10 10,0 z m 0,-10 10,0 0,-10 -10,0 0,10 z m 0,-10 0,-10 -10,0 0,10 10,0 z m 0,-10 10,0 0,-10 -10,0 0,10 z m 0,-10 0,-10 -10,0 0,10 10,0 z m 0,-10 10,0 0,-10 -10,0 0,10 z m 0,-10 0,-10 -10,0 0,10 10,0 z m 10,0 10,0 0,-10 -10,0 0,10 z m 10,0 0,10 10,0 0,-10 -10,0 z m 10,0 10,0 0,-10 -10,0 0,10 z m 10,0 0,10 10,0 0,-10 -10,0 z m 10,0 10,0 0,-10 -10,0 0,10 z m 10,0 0,10 10,0 0,-10 -10,0 z m 10,0 10,0 0,-10 -10,0 0,10 z m 10,0 0,10 10,0 0,-10 -10,0 z m 10,0 10,0 0,-10 -10,0 0,10 z m 10,0 0,10 10,0 0,-10 -10,0 z m 10,0 10,0 0,-10 -10,0 0,10 z m 10,0 0,10 10,0 0,-10 -10,0 z m 10,0 10,0 0,-10 -10,0 0,10 z m 10,0 0,10 10,0 0,-10 -10,0 z m 10,0 10,0 0,-10 -10,0 0,10 z m 10,0 0,10 10,0 0,-10 -10,0 z m 10,0 10,0 0,-10 -10,0 0,10 z m 10,0 0,10 10,0 0,-10 -10,0 z m 10,0 10,0 0,-10 -10,0 0,10 z m 10,0 0,10 10,0 0,-10 -10,0 z m 10,0 10,0 0,-10 -10,0 0,10 z m 10,0 0,10 10,0 0,-10 -10,0 z m 10,0 10,0 0,-10 -10,0 0,10 z m 10,0 0,10 10,0 0,-10 -10,0 z m 10,0 10,0 0,-10 -10,0 0,10 z m 10,0 0,10 10,0 0,-10 -10,0 z m 10,0 10,0 0,-10 -10,0 0,10 z m 10,0 0,10 10,0 0,-10 -10,0 z m 10,0 10,0 0,-10 -10,0 0,10 z m 10,0 0,10 10,0 0,-10 -10,0 z m 10,0 10,0 0,-10 -10,0 0,10 z m 10,0 0,10 10,0 0,-10 -10,0 z m 10,0 10,0 0,-10 -10,0 0,10 z m 10,0 0,10 10,0 0,-10 -10,0 z m 10,0 10,0 0,-10 -10,0 0,10 z m 10,0 0,10 10,0 0,-10 -10,0 z m 10,0 10,0 0,-10 -10,0 0,10 z m 10,0 0,10 10,0 0,-10 -10,0 z m 10,0 10,0 0,-10 -10,0 0,10 z m 10,0 0,10 10,0 0,-10 -10,0 z m 10,0 10,0 0,-10 -10,0 0,10 z m 10,0 0,10 10,0 0,-10 -10,0 z m 10,0 10,0 0,-10 -10,0 0,10 z m 10,0 0,10 10,0 0,-10 -10,0 z m 10,0 10,0 0,-10 -10,0 0,10 z m 10,0 0,10 10,0 0,-10 -10,0 z m 10,0 10,0 0,-10 -10,0 0,10 z m 10,0 0,10 10,0 0,-10 -10,0 z m 10,0 10,0 0,-10 -10,0 0,10 z m 10,0 0,10 10,0 0,-10 -10,0 z m 10,0 10,0 0,-10 -10,0 0,10 z m 10,0 0,10 10,0 0,-10 -10,0 z m 10,0 10,0 0,-10 -10,0 0,10 z m 10,0 0,10 10,0 0,-10 -10,0 z m 10,0 10,0 0,-10 -10,0 0,10 z m 10,0 0,10 10,0 0,-10 -10,0 z m 10,0 10,0 0,-10 -10,0 0,10 z m 10,0 0,10 10,0 0,-10 -10,0 z m 10,0 10,0 0,-10 -10,0 0,10 z m 10,0 0,10 10,0 0,-10 -10,0 z m 10,0 10,0 0,-10 -10,0 0,10 z m 10,0 0,10 10,0 0,-10 -10,0 z m 10,0 10,0 0,-10 -10,0 0,10 z m 10,0 0,10 10,0 0,-10 -10,0 z m 10,0 10,0 0,-10 -10,0 0,10 z m 10,0 0,10 10,0 0,-10 -10,0 z m 10,0 10,0 0,-10 -10,0 0,10 z m 10,0 0,10 10,0 0,-10 -10,0 z m 10,0 10,0 0,-10 -10,0 0,10 z m 10,0 0,10 10,0 0,-10 -10,0 z m 10,0 10,0 0,-10 -10,0 0,10 z m 10,0 0,10 10,0 0,-10 -10,0 z m 10,0 10,0 0,-10 -10,0 0,10 z m 10,0 0,10 10,0 0,-10 -10,0 z m 10,0 10,0 0,-10 -10,0 0,10 z m 10,0 0,10 10,0 0,-10 -10,0 z m 0,10 -10,0 0,10 10,0 0,-10 z m 0,10 0,10 10,0 0,-10 -10,0 z m 0,10 -10,0 0,10 10,0 0,-10 z m 0,10 0,10 10,0 0,-10 -10,0 z m 0,10 -10,0 0,10 10,0 0,-10 z m 0,10 0,10 10,0 0,-10 -10,0 z m 0,10 -10,0 0,10 10,0 0,-10 z m 0,10 0,10 10,0 0,-10 -10,0 z m 0,10 -10,0 0,10 10,0 0,-10 z m 0,10 0,10 10,0 0,-10 -10,0 z m 0,10 -10,0 0,10 10,0 0,-10 z m 0,10 0,10 10,0 0,-10 -10,0 z m 0,10 -10,0 0,10 10,0 0,-10 z m 0,10 0,10 10,0 0,-10 -10,0 z m 0,10 -10,0 0,10 10,0 0,-10 z m 0,10 0,10 10,0 0,-10 -10,0 z m 0,10 -10,0 0,10 10,0 0,-10 z m 0,10 0,10 10,0 0,-10 -10,0 z m 0,10 -10,0 0,10 10,0 0,-10 z m 0,10 0,10 10,0 0,-10 -10,0 z m 0,10 -10,0 0,10 10,0 0,-10 z m 0,10 0,10 10,0 0,-10 -10,0 z m 0,10 -10,0 0,10 10,0 0,-10 z m 0,10 0,10 10,0 0,-10 -10,0 z m 0,10 -10,0 0,10 10,0 0,-10 z m 0,10 0,10 10,0 0,-10 -10,0 z m 0,10 -10,0 0,10 10,0 0,-10 z m 0,10 0,10 10,0 0,-10 -10,0 z m 0,10 -10,0 0,10 10,0 0,-10 z m 0,10 0,10 10,0 0,-10 -10,0 z m 0,10 -10,0 0,10 10,0 0,-10 z m 0,10 0,10 10,0 0,-10 -10,0 z m 0,10 -10,0 0,10 10,0 0,-10 z m 0,10 0,10 10,0 0,-10 -10,0 z m 0,10 -10,0 0,10 10,0 0,-10 z m 0,10 0,10 10,0 0,-10 -10,0 z m 0,10 -10,0 0,10 10,0 0,-10 z m 0,10 0,10 10,0 0,-10 -10,0 z m 0,10 -10,0 0,10 10,0 0,-10 z m 0,10 0,10 10,0 0,-10 -10,0 z m 0,10 -10,0 0,10 10,0 0,-10 z m 0,10 0,10 10,0 0,-10 -10,0 z m 0,10 -10,0 0,10 10,0 0,-10 z m 0,10 0,10 10,0 0,-10 -10,0 z m 0,10 -10,0 0,10 10,0 0,-10 z m 0,10 0,10 10,0 0,-10 -10,0 z m 0,10 -10,0 0,10 10,0 0,-10 z m 0,10 0,10 10,0 0,-10 -10,0 z m 0,10 -10,0 0,10 10,0 0,-10 z m 0,10 0,10 10,0 0,-10 -10,0 z m 0,10 -10,0 0,10 10,0 0,-10 z m 0,10 0,10 10,0 0,-10 -10,0 z m 0,10 -10,0 0,10 10,0 0,-10 z m 0,10 0,10 10,0 0,-10 -10,0 z m -10,0 -10,0 0,10 10,0 0,-10 z m -10,0 0,-10 -10,0 0,10 10,0 z m -10,0 -10,0 0,10 10,0 0,-10 z m -10,0 0,-10 -10,0 0,10 10,0 z m -10,0 -10,0 0,10 10,0 0,-10 z m -10,0 0,-10 -10,0 0,10 10,0 z m -10,0 -10,0 0,10 10,0 0,-10 z m -10,0 0,-10 -10,0 0,10 10,0 z m -10,0 -10,0 0,10 10,0 0,-10 z m -10,0 0,-10 -10,0 0,10 10,0 z m -10,0 -10,0 0,10 10,0 0,-10 z m -10,0 0,-10 -10,0 0,10 10,0 z m -10,0 -10,0 0,10 10,0 0,-10 z m -10,0 0,-10 -10,0 0,10 10,0 z m -10,0 -10,0 0,10 10,0 0,-10 z m -10,0 0,-10 -10,0 0,10 10,0 z m -10,0 -10,0 0,10 10,0 0,-10 z m -10,0 0,-10 -10,0 0,10 10,0 z m -10,0 -10,0 0,10 10,0 0,-10 z m -10,0 0,-10 -10,0 0,10 10,0 z m -10,0 -10,0 0,10 10,0 0,-10 z m -10,0 0,-10 -10,0 0,10 10,0 z m -10,0 -10,0 0,10 10,0 0,-10 z m -10,0 0,-10 -10,0 0,10 10,0 z m -10,0 -10,0 0,10 10,0 0,-10 z m -10,0 0,-10 -10,0 0,10 10,0 z m -10,0 -10,0 0,10 10,0 0,-10 z m -10,0 0,-10 -10,0 0,10 10,0 z m -10,0 -10,0 0,10 10,0 0,-10 z m -10,0 0,-10 -10,0 0,10 10,0 z m -10,0 -10,0 0,10 10,0 0,-10 z m -10,0 0,-10 -10,0 0,10 10,0 z m -10,0 -10,0 0,10 10,0 0,-10 z m -10,0 0,-10 -10,0 0,10 10,0 z m -10,0 -10,0 0,10 10,0 0,-10 z m -10,0 0,-10 -10,0 0,10 10,0 z m -10,0 -10,0 0,10 10,0 0,-10 z m -10,0 0,-10 -10,0 0,10 10,0 z m -10,0 -10,0 0,10 10,0 0,-10 z m -10,0 0,-10 -10,0 0,10 10,0 z m -10,0 -10,0 0,10 10,0 0,-10 z m -10,0 0,-10 -10,0 0,10 10,0 z m -10,0 -10,0 0,10 10,0 0,-10 z m -10,0 0,-10 -10,0 0,10 10,0 z m -10,0 -10,0 0,10 10,0 0,-10 z m -10,0 0,-10 -10,0 0,10 10,0 z m -10,0 -10,0 0,10 10,0 0,-10 z m -10,0 0,-10 -10,0 0,10 10,0 z m -10,0 -10,0 0,10 10,0 0,-10 z m -10,0 0,-10 -10,0 0,10 10,0 z m -10,0 -10,0 0,10 10,0 0,-10 z m -10,0 0,-10 -10,0 0,10 10,0 z m -10,0 -10,0 0,10 10,0 0,-10 z m -10,0 0,-10 -10,0 0,10 10,0 z m -10,0 -10,0 0,10 10,0 0,-10 z m -10,0 0,-10 -10,0 0,10 10,0 z m -10,0 -10,0 0,10 10,0 0,-10 z m -10,0 0,-10 -10,0 0,10 10,0 z m -10,0 -10,0 0,10 10,0 0,-10 z m -10,0 0,-10 -10,0 0,10 10,0 z m -10,0 -10,0 0,10 10,0 0,-10 z m -10,0 0,-10 -10,0 0,10 10,0 z m -10,0 -10,0 0,10 10,0 0,-10 z m -10,0 0,-10 -10,0 0,10 10,0 z m -10,0 -10,0 0,10 10,0 0,-10 z m -10,0 0,-10 -10,0 0,10 10,0 z m -10,0 -10,0 0,10 10,0 0,-10 z m -10,0 0,-10 -10,0 0,10 10,0 z m -10,0 -10,0 0,10 10,0 0,-10 z m -10,0 0,-10 -10,0 0,10 10,0 z m -10,0 -10,0 0,10 10,0 0,-10 z m -10,0 0,-10 -10,0 0,10 10,0 z m -10,0 -10,0 0,10 10,0 0,-10 z m -10,0 0,-10 -10,0 0,10 10,0 z m 0,-10 10,0 0,-10 -10,0 0,10 z m 0,-10 0,-10 -10,0 0,10 10,0 z m 0,-10 10,0 0,-10 -10,0 0,10 z m 0,-10 0,-10 -10,0 0,10 10,0 z m 0,-10 10,0 0,-10 -10,0 0,10 z m 0,-10 0,-10 -10,0 0,10 10,0 z m 0,-10 10,0 0,-10 -10,0 0,10 z m 0,-10 0,-10 -10,0 0,10 10,0 z m 0,-10 10,0 0,-10 -10,0 0,10 z m 0,-10 0,-10 -10,0 0,10 10,0 z m 0,-10 10,0 0,-10 -10,0 0,10 z m 0,-10 0,-10 -10,0 0,10 10,0 z m 0,-10 10,0 0,-10 -10,0 0,10 z m 0,-10 0,-10 -10,0 0,10 10,0 z m 0,-10 10,0 0,-10 -10,0 0,10 z m 0,-10 0,-10 -10,0 0,10 10,0 z m 0,-10 10,0 0,-10 -10,0 0,10 z m 0,-10 0,-10 -10,0 0,10 10,0 z m 0,-10 10,0 0,-10 -10,0 0,10 z m 0,-10 0,-10 -10,0 0,10 10,0 z m 0,-10 10,0 0,-10 -10,0 0,10 z m 0,-10 0,-10 -10,0 0,10 10,0 z m 0,-10 10,0 0,-10 -10,0 0,10 z m 0,-10 0,-10 -10,0 0,10 10,0 z m 0,-10 10,0 0,-10 -10,0 0,10 z m 0,-10 0,-10 -10,0 0,10 10,0 z m 0,-10 10,0 0,-10 -10,0 0,10 z m 0,-10 0,-10 -10,0 0,10 10,0 z m 0,-10 10,0 0,-10 -10,0 0,10 z m 0,-10 0,-10 -10,0 0,10 10,0 z m 0,-10 10,0 0,-10 -10,0 0,10 z m 0,-10 0,-10 -10,0 0,10 10,0 z m 0,-10 10,0 0,-10 -10,0 0,10 z m 0,-10 0,-10 -10,0 0,10 10,0 z m 0,-10 10,0 0,-10 -10,0 0,10 z m 0,-10 0,-10 -10,0 0,10 10,0 z m 0,-10 10,0 0,-10 -10,0 0,10 z m 0,-10 0,-10 -10,0 0,10 10,0 z m 0,-10 10,0 0,-10 -10,0 0,10 z m 0,-10 0,-10 -10,0 0,10 10,0 z m 0,-10 10,0 0,-10 -10,0 0,10 z m 0,-10 0,-10 -10,0 0,10 10,0 z m 0,-10 10,0 0,-10 -10,0 0,10 z m 0,-10 0,-10 -10,0 0,10 10,0 z m 0,-10 10,0 0,-10 -10,0 0,10 z m 0,-10 0,-10 -10,0 0,10 10,0 z m 0,-10 10,0 0,-10 -10,0 0,10 z m 0,-10 0,-10 -10,0 0,10 10,0 z m 0,-10 10,0 0,-10 -10,0 0,10 z m 0,-10 0,-10 -10,0 0,10 10,0 z m 0,-10 10,0 0,-10 -10,0 0,10 z m 0,-10 0,-10 -10,0 0,10 10,0 z m 10,0 10,0 0,-10 -10,0 0,10 z m 10,0 0,10 10,0 0,-10 -10,0 z m 10,0 10,0 0,-10 -10,0 0,10 z m 10,0 0,10 10,0 0,-10 -10,0 z m 10,0 10,0 0,-10 -10,0 0,10 z m 10,0 0,10 10,0 0,-10 -10,0 z m 10,0 10,0 0,-10 -10,0 0,10 z m 10,0 0,10 10,0 0,-10 -10,0 z m 10,0 10,0 0,-10 -10,0 0,10 z m 10,0 0,10 10,0 0,-10 -10,0 z m 10,0 10,0 0,-10 -10,0 0,10 z m 10,0 0,10 10,0 0,-10 -10,0 z m 10,0 10,0 0,-10 -10,0 0,10 z m 10,0 0,10 10,0 0,-10 -10,0 z m 10,0 10,0 0,-10 -10,0 0,10 z m 10,0 0,10 10,0 0,-10 -10,0 z m 10,0 10,0 0,-10 -10,0 0,10 z m 10,0 0,10 10,0 0,-10 -10,0 z m 10,0 10,0 0,-10 -10,0 0,10 z m 10,0 0,10 10,0 0,-10 -10,0 z m 10,0 10,0 0,-10 -10,0 0,10 z m 10,0 0,10 10,0 0,-10 -10,0 z m 10,0 10,0 0,-10 -10,0 0,10 z m 10,0 0,10 10,0 0,-10 -10,0 z m 10,0 10,0 0,-10 -10,0 0,10 z m 10,0 0,10 10,0 0,-10 -10,0 z m 10,0 10,0 0,-10 -10,0 0,10 z m 10,0 0,10 10,0 0,-10 -10,0 z m 10,0 10,0 0,-10 -10,0 0,10 z m 10,0 0,10 10,0 0,-10 -10,0 z m 10,0 10,0 0,-10 -10,0 0,10 z m 10,0 0,10 10,0 0,-10 -10,0 z m 10,0 10,0 0,-10 -10,0 0,10 z m 10,0 0,10 10,0 0,-10 -10,0 z m 10,0 10,0 0,-10 -10,0 0,10 z m 10,0 0,10 10,0 0,-10 -10,0 z m 10,0 10,0 0,-10 -10,0 0,10 z m 10,0 0,10 10,0 0,-10 -10,0 z m 10,0 10,0 0,-10 -10,0 0,10 z m 10,0 0,10 10,0 0,-10 -10,0 z m 10,0 10,0 0,-10 -10,0 0,10 z m 10,0 0,10 10,0 0,-10 -10,0 z m 10,0 10,0 0,-10 -10,0 0,10 z m 10,0 0,10 10,0 0,-10 -10,0 z m 10,0 10,0 0,-10 -10,0 0,10 z m 10,0 0,10 10,0 0,-10 -10,0 z m 10,0 10,0 0,-10 -10,0 0,10 z m 10,0 0,10 10,0 0,-10 -10,0 z m 10,0 10,0 0,-10 -10,0 0,10 z m 10,0 0,10 10,0 0,-10 -10,0 z m 10,0 10,0 0,-10 -10,0 0,10 z m 10,0 0,10 10,0 0,-10 -10,0 z m 10,0 10,0 0,-10 -10,0 0,10 z m 10,0 0,10 10,0 0,-10 -10,0 z m 10,0 10,0 0,-10 -10,0 0,10 z m 10,0 0,10 10,0 0,-10 -10,0 z m 10,0 10,0 0,-10 -10,0 0,10 z m 10,0 0,10 10,0 0,-10 -10,0 z m 10,0 10,0 0,-10 -10,0 0,10 z m 10,0 0,10 10,0 0,-10 -10,0 z m 10,0 10,0 0,-10 -10,0 0,10 z m 10,0 0,10 10,0 0,-10 -10,0 z m 10,0 10,0 0,-10 -10,0 0,10 z m 10,0 0,10 10,0 0,-10 -10,0 z m 10,0 10,0 0,-10 -10,0 0,10 z m 10,0 0,10 10,0 0,-10 -10,0 z m 10,0 10,0 0,-10 -10,0 0,10 z m 10,0 0,10 10,0 0,-10 -10,0 z m 10,0 10,0 0,-10 -10,0 0,10 z m 10,0 0,10 10,0 0,-10 -10,0 z m 10,0 10,0 0,-10 -10,0 0,10 z m 10,0 0,10 10,0 0,-10 -10,0 z m 0,10 -10,0 0,10 10,0 0,-10 z m 0,10 0,10 10,0 0,-10 -10,0 z m 0,10 -10,0 0,10 10,0 0,-10 z m 0,10 0,10 10,0 0,-10 -10,0 z m 0,10 -10,0 0,10 10,0 0,-10 z m 0,10 0,10 10,0 0,-10 -10,0 z m 0,10 -10,0 0,10 10,0 0,-10 z m 0,10 0,10 10,0 0,-10 -10,0 z m 0,10 -10,0 0,10 10,0 0,-10 z m 0,10 0,10 10,0 0,-10 -10,0 z m 0,10 -10,0 0,10 10,0 0,-10 z m 0,10 0,10 10,0 0,-10 -10,0 z m 0,10 -10,0 0,10 10,0 0,-10 z m 0,10 0,10 10,0 0,-10 -10,0 z m 0,10 -10,0 0,10 10,0 0,-10 z m 0,10 0,10 10,0 0,-10 -10,0 z m 0,10 -10,0 0,10 10,0 0,-10 z m 0,10 0,10 10,0 0,-10 -10,0 z m 0,10 -10,0 0,10 10,0 0,-10 z m 0,10 0,10 10,0 0,-10 -10,0 z m 0,10 -10,0 0,10 10,0 0,-10 z m 0,10 0,10 10,0 0,-10 -10,0 z m 0,10 -10,0 0,10 10,0 0,-10 z m 0,10 0,10 10,0 0,-10 -10,0 z m 0,10 -10,0 0,10 10,0 0,-10 z m 0,10 0,10 10,0 0,-10 -10,0 z m 0,10 -10,0 0,10 10,0 0,-10 z m 0,10 0,10 10,0 0,-10 -10,0 z m 0,10 -10,0 0,10 10,0 0,-10 z m 0,10 0,10 10,0 0,-10 -10,0 z m 0,10 -10,0 0,10 10,0 0,-10 z m 0,10 0,10 10,0 0,-10 -10,0 z m 0,10 -10,0 0,10 10,0 0,-10 z m 0,10 0,10 10,0 0,-10 -10,0 z m 0,10 -10,0 0,10 10,0 0,-10 z m 0,10 0,10 10,0 0,-10 -10,0 z m 0,10 -10,0 0,10 10,0 0,-10 z m 0,10 0,10 10,0 0,-10 -10,0 z m 0,10 -10,0 0,10 10,0 0,-10 z m 0,10 0,10 10,0 0,-10 -10,0 z m 0,10 -10,0 0,10 10,0 0,-10 z m 0,10 0,10 10,0 0,-10 -10,0 z m 0,10 -10,0 0,10 10,0 0,-10 z m 0,10 0,10 10,0 0,-10 -10,0 z m 0,10 -10,0 0,10 10,0 0,-10 z m 0,10 0,10 10,0 0,-10 -10,0 z m 0,10 -10,0 0,10 10,0 0,-10 z m 0,10 0,10 10,0 0,-10 -10,0 z m 0,10 -10,0 0,10 10,0 0,-10 z m 0,10 0,10 10,0 0,-10 -10,0 z m -10,0 -10,0 0,10 10,0 0,-10 z m -10,0 0,-10 -10,0 0,10 10,0 z m -10,0 -10,0 0,10 10,0 0,-10 z m -10,0 0,-10 -10,0 0,10 10,0 z m -10,0 -10,0 0,10 10,0 0,-10 z m -10,0 0,-10 -10,0 0,10 10,0 z m -10,0 -10,0 0,10 10,0 0,-10 z m -10,0 0,-10 -10,0 0,10 10,0 z m -10,0 -10,0 0,10 10,0 0,-10 z m -10,0 0,-10 -10,0 0,10 10,0 z m -10,0 -10,0 0,10 10,0 0,-10 z m -10,0 0,-10 -10,0 0,10 10,0 z m -10,0 -10,0 0,10 10,0 0,-10 z m -10,0 0,-10 -10,0 0,10 10,0 z m -10,0 -10,0 0,10 10,0 0,-10 z m -10,0 0,-10 -10,0 0,10 10,0 z m -10,0 -10,0 0,10 10,0 0,-10 z m -10,0 0,-10 -10,0 0,10 10,0 z m -10,0 -10,0 0,10 10,0 0,-10 z m -10,0 0,-10 -10,0 0,10 10,0 z m -10,0 -10,0 0,10 10,0 0,-10 z m -10,0 0,-10 -10,0 0,10 10,0 z m -10,0 -10,0 0,10 10,0 0,-10 z m -10,0 0,-10 -10,0 0,10 10,0 z m -10,0 -10,0 0,10 10,0 0,-10 z m -10,0 0,-10 -10,0 0,10 10,0 z m -10,0 -10,0 0,10 10,0 0,-10 z m -10,0 0,-10 -10,0 0,10 10,0 z m -10,0 -10,0 0,10 10,0 0,-10 z m -10,0 0,-10 -10,0 0,10 10,0 z m -10,0 -10,0 0,10 10,0 0,-10 z m -10,0 0,-10 -10,0 0,10 10,0 z m -10,0 -10,0 0,10 10,0 0,-10 z m -10,0 0,-10 -10,0 0,10 10,0 z m -10,0 -10,0 0,10 10,0 0,-10 z m -10,0 0,-10 -10,0 0,10 10,0 z m -10,0 -10,0 0,10 10,0 0,-10 z m -10,0 0,-10 -10,0 0,10 10,0 z m -10,0 -10,0 0,10 10,0 0,-10 z m -10,0 0,-10 -10,0 0,10 10,0 z m -10,0 -10,0 0,10 10,0 0,-10 z m -10,0 0,-10 -10,0 0,10 10,0 z m -10,0 -10,0 0,10 10,0 0,-10 z m -10,0 0,-10 -10,0 0,10 10,0 z m -10,0 -10,0 0,10 10,0 0,-10 z m -10,0 0,-10 -10,0 0,10 10,0 z m -10,0 -10,0 0,10 10,0 0,-10 z m -10,0 0,-10 -10,0 0,10 10,0 z m -10,0 -10,0 0,10 10,0 0,-10 z m -10,0 0,-10 -10,0 0,10 10,0 z m -10,0 -10,0 0,10 10,0 0,-10 z m -10,0 0,-10 -10,0 0,10 10,0 z m -10,0 -10,0 0,10 10,0 0,-10 z m -10,0 0,-10 -10,0 0,10 10,0 z m -10,0 -10,0 0,10 10,0 0,-10 z m -10,0 0,-10 -10,0 0,10 10,0 z m -10,0 -10,0 0,10 10,0 0,-10 z m -10,0 0,-10 -10,0 0,10 10,0 z m -10,0 -10,0 0,10 10,0 0,-10 z m -10,0 0,-10 -10,0 0,10 10,0 z m -10,0 -10,0 0,10 10,0 0,-10 z m -10,0 0,-10 -10,0 0,10 10,0 z m -10,0 -10,0 0,10 10,0 0,-10 z m -10,0 0,-10 -10,0 0,10 10,0 z m -10,0 -10,0 0,10 10,0 0,-10 z m -10,0 0,-10 -10,0 0,10 10,0 z m -10,0 -10,0 0,10 10,0 0,-10 z m -10,0 0,-10 -10,0 0,10 10,0 z m -10,0 -10,0 0,10 10,0 0,-10 z m -10,0 0,-10 -10,0 0,10 10,0 z m 0,-10 10,0 0,-10 -10,0 0,10 z m 0,-10 0,-10 -10,0 0,10 10,0 z m 0,-10 10,0 0,-10 -10,0 0,10 z m 0,-10 0,-10 -10,0 0,10 10,0 z m 0,-10 10,0 0,-10 -10,0 0,10 z m 0,-10 0,-10 -10,0 0,10 10,0 z m 0,-10 10,0 0,-10 -10,0 0,10 z m 0,-10 0,-10 -10,0 0,10 10,0 z m 0,-10 10,0 0,-10 -10,0 0,10 z m 0,-10 0,-10 -10,0 0,10 10,0 z m 0,-10 10,0 0,-10 -10,0 0,10 z m 0,-10 0,-10 -10,0 0,10 10,0 z m 0,-10 10,0 0,-10 -10,0 0,10 z m 0,-10 0,-10 -10,0 0,10 10,0 z m 0,-10 10,0 0,-10 -10,0 0,10 z m 0,-10 0,-10 -10,0 0,10 10,0 z m 0,-10 10,0 0,-10 -10,0 0,10 z m 0,-10 0,-10 -10,0 0,10 10,0 z m 0,-10 10,0 0,-10 -10,0 0,10 z m 0,-10 0,-10 -10,0 0,10 10,0 z m 0,-10 10,0 0,-10 -10,0 0,10 z m 0,-10 0,-10 -10,0 0,10 10,0 z m 0,-10 10,0 0,-10 -10,0 0,10 z m 0,-10 0,-10 -10,0 0,10 10,0 z m 0,-10 10,0 0,-10 -10,0 0,10 z m 0,-10 0,-10 -10,0 0,10 10,0 z m 0,-10 10,0 0,-10 -10,0 0,10 z m 0,-10 0,-10 -10,0 0,10 10,0 z m 0,-10 10,0 0,-10 -10,0 0,10 z m 0,-10 0,-10 -10,0 0,10 10,0 z m 0,-10 10,0 0,-10 -10,0 0,10 z m 0,-10 0,-10 -10,0 0,10 10,0 z m 0,-10 10,0 0,-10 -10,0 0,10 z m 0,-10 0,-10 -10,0 0,10 10,0 z m 0,-10 10,0 0,-10 -10,0 0,10 z m 0,-10 0,-10 -10,0 0,10 10,0 z m 0,-10 10,0 0,-10 -10,0 0,10 z m 0,-10 0,-10 -10,0 0,10 10,0 z m 0,-10 10,0 0,-10 -10,0 0,10 z m 0,-10 0,-10 -10,0 0,10 10,0 z m 0,-10 10,0 0,-10 -10,0 0,10 z m 0,-10 0,-10 -10,0 0,10 10,0 z m 0,-10 10,0 0,-10 -10,0 0,10 z m 0,-10 0,-10 -10,0 0,10 10,0 z m 0,-10 10,0 0,-10 -10,0 0,10 z m 0,-10 0,-10 -10,0 0,10 10,0 z m 0,-10 10,0 0,-10 -10,0 0,10 z m 0,-10 0,-10 -10,0 0,10 10,0 z m 10,0 10,0 0,-10 -10,0 0,10 z m 10,0 0,10 10,0 0,-10 -10,0 z m 10,0 10,0 0,-10 -10,0 0,10 z m 10,0 0,10 10,0 0,-10 -10,0 z m 10,0 10,0 0,-10 -10,0 0,10 z m 10,0 0,10 10,0 0,-10 -10,0 z m 10,0 10,0 0,-10 -10,0 0,10 z m 10,0 0,10 10,0 0,-10 -10,0 z m 10,0 10,0 0,-10 -10,0 0,10 z m 10,0 0,10 10,0 0,-10 -10,0 z m 10,0 10,0 0,-10 -10,0 0,10 z m 10,0 0,10 10,0 0,-10 -10,0 z m 10,0 10,0 0,-10 -10,0 0,10 z m 10,0 0,10 10,0 0,-10 -10,0 z m 10,0 10,0 0,-10 -10,0 0,10 z m 10,0 0,10 10,0 0,-10 -10,0 z m 10,0 10,0 0,-10 -10,0 0,10 z m 10,0 0,10 10,0 0,-10 -10,0 z m 10,0 10,0 0,-10 -10,0 0,10 z m 10,0 0,10 10,0 0,-10 -10,0 z m 10,0 10,0 0,-10 -10,0 0,10 z m 10,0 0,10 10,0 0,-10 -10,0 z m 10,0 10,0 0,-10 -10,0 0,10 z m 10,0 0,10 10,0 0,-10 -10,0 z m 10,0 10,0 0,-10 -10,0 0,10 z m 10,0 0,10 10,0 0,-10 -10,0 z m 10,0 10,0 0,-10 -10,0 0,10 z m 10,0 0,10 10,0 0,-10 -10,0 z m 10,0 10,0 0,-10 -10,0 0,10 z m 10,0 0,10 10,0 0,-10 -10,0 z m 10,0 10,0 0,-10 -10,0 0,10 z m 10,0 0,10 10,0 0,-10 -10,0 z m 10,0 10,0 0,-10 -10,0 0,10 z m 10,0 0,10 10,0 0,-10 -10,0 z m 10,0 10,0 0,-10 -10,0 0,10 z m 10,0 0,10 10,0 0,-10 -10,0 z m 10,0 10,0 0,-10 -10,0 0,10 z m 10,0 0,10 10,0 0,-10 -10,0 z m 10,0 10,0 0,-10 -10,0 0,10 z m 10,0 0,10 10,0 0,-10 -10,0 z m 10,0 10,0 0,-10 -10,0 0,10 z m 10,0 0,10 10,0 0,-10 -10,0 z m 10,0 10,0 0,-10 -10,0 0,10 z m 10,0 0,10 10,0 0,-10 -10,0 z m 10,0 10,0 0,-10 -10,0 0,10 z m 10,0 0,10 10,0 0,-10 -10,0 z m 10,0 10,0 0,-10 -10,0 0,10 z m 10,0 0,10 10,0 0,-10 -10,0 z m 10,0 10,0 0,-10 -10,0 0,10 z m 10,0 0,10 10,0 0,-10 -10,0 z m 10,0 10,0 0,-10 -10,0 0,10 z m 10,0 0,10 10,0 0,-10 -10,0 z m 10,0 10,0 0,-10 -10,0 0,10 z m 10,0 0,10 10,0 0,-10 -10,0 z m 10,0 10,0 0,-10 -10,0 0,10 z m 10,0 0,10 10,0 0,-10 -10,0 z m 10,0 10,0 0,-10 -10,0 0,10 z m 10,0 0,10 10,0 0,-10 -10,0 z m 10,0 10,0 0,-10 -10,0 0,10 z m 10,0 0,10 10,0 0,-10 -10,0 z m 10,0 10,0 0,-10 -10,0 0,10 z m 10,0 0,10 10,0 0,-10 -10,0 z m 10,0 10,0 0,-10 -10,0 0,10 z m 10,0 0,10 10,0 0,-10 -10,0 z m 10,0 10,0 0,-10 -10,0 0,10 z m 10,0 0,10 10,0 0,-10 -10,0 z m 10,0 10,0 0,-10 -10,0 0,10 z m 10,0 0,10 10,0 0,-10 -10,0 z m 0,10 -10,0 0,10 10,0 0,-10 z m 0,10 0,10 10,0 0,-10 -10,0 z m 0,10 -10,0 0,10 10,0 0,-10 z m 0,10 0,10 10,0 0,-10 -10,0 z m 0,10 -10,0 0,10 10,0 0,-10 z m 0,10 0,10 10,0 0,-10 -10,0 z m 0,10 -10,0 0,10 10,0 0,-10 z m 0,10 0,10 10,0 0,-10 -10,0 z m 0,10 -10,0 0,10 10,0 0,-10 z m 0,10 0,10 10,0 0,-10 -10,0 z m 0,10 -10,0 0,10 10,0 0,-10 z m 0,10 0,10 10,0 0,-10 -10,0 z m 0,10 -10,0 0,10 10,0 0,-10 z m 0,10 0,10 10,0 0,-10 -10,0 z m 0,10 -10,0 0,10 10,0 0,-10 z m 0,10 0,10 10,0 0,-10 -10,0 z m 0,10 -10,0 0,10 10,0 0,-10 z m 0,10 0,10 10,0 0,-10 -10,0 z m 0,10 -10,0 0,10 10,0 0,-10 z m 0,10 0,10 10,0 0,-10 -10,0 z m 0,10 -10,0 0,10 10,0 0,-10 z m 0,10 0,10 10,0 0,-10 -10,0 z m 0,10 -10,0 0,10 10,0 0,-10 z m 0,10 0,10 10,0 0,-10 -10,0 z m 0,10 -10,0 0,10 10,0 0,-10 z m 0,10 0,10 10,0 0,-10 -10,0 z m 0,10 -10,0 0,10 10,0 0,-10 z m 0,10 0,10 10,0 0,-10 -10,0 z m 0,10 -10,0 0,10 10,0 0,-10 z m 0,10 0,10 10,0 0,-10 -10,0 z m 0,10 -10,0 0,10 10,0 0,-10 z m 0,10 0,10 10,0 0,-10 -10,0 z m 0,10 -10,0 0,10 10,0 0,-10 z m 0,10 0,10 10,0 0,-10 -10,0 z m 0,10 -10,0 0,10 10,0 0,-10 z m 0,10 0,10 10,0 0,-10 -10,0 z m 0,10 -10,0 0,10 10,0 0,-10 z m 0,10 0,10 10,0 0,-10 -10,0 z m 0,10 -10,0 0,10 10,0 0,-10 z m 0,10 0,10 10,0 0,-10 -10,0 z m 0,10 -10,0 0,10 10,0 0,-10 z m 0,10 0,10 10,0 0,-10 -10,0 z m 0,10 -10,0 0,10 10,0 0,-10 z m 0,10 0,10 10,0 0,-10 -10,0 z m 0,10 -10,0 0,10 10,0 0,-10 z m 0,10 0,10 10,0 0,-10 -10,0 z m -10,0 -10,0 0,10 10,0 0,-10 z m -10,0 0,-10 -10,0 0,10 10,0 z m -10,0 -10,0 0,10 10,0 0,-10 z m -10,0 0,-10 -10,0 0,10 10,0 z m -10,0 -10,0 0,10 10,0 0,-10 z m -10,0 0,-10 -10,0 0,10 10,0 z m -10,0 -10,0 0,10 10,0 0,-10 z m -10,0 0,-10 -10,0 0,10 10,0 z m -10,0 -10,0 0,10 10,0 0,-10 z m -10,0 0,-10 -10,0 0,10 10,0 z m -10,0 -10,0 0,10 10,0 0,-10 z m -10,0 0,-10 -10,0 0,10 10,0 z m -10,0 -10,0 0,10 10,0 0,-10 z m -10,0 0,-10 -10,0 0,10 10,0 z m -10,0 -10,0 0,10 10,0 0,-10 z m -10,0 0,-10 -10,0 0,10 10,0 z m -10,0 -10,0 0,10 10,0 0,-10 z m -10,0 0,-10 -10,0 0,10 10,0 z m -10,0 -10,0 0,10 10,0 0,-10 z m -10,0 0,-10 -10,0 0,10 10,0 z m -10,0 -10,0 0,10 10,0 0,-10 z m -10,0 0,-10 -10,0 0,10 10,0 z m -10,0 -10,0 0,10 10,0 0,-10 z m -10,0 0,-10 -10,0 0,10 10,0 z m -10,0 -10,0 0,10 10,0 0,-10 z m -10,0 0,-10 -10,0 0,10 10,0 z m -10,0 -10,0 0,10 10,0 0,-10 z m -10,0 0,-10 -10,0 0,10 10,0 z m -10,0 -10,0 0,10 10,0 0,-10 z m -10,0 0,-10 -10,0 0,10 10,0 z m -10,0 -10,0 0,10 10,0 0,-10 z m -10,0 0,-10 -10,0 0,10 10,0 z m -10,0 -10,0 0,10 10,0 0,-10 z m -10,0 0,-10 -10,0 0,10 10,0 z m -10,0 -10,0 0,10 10,0 0,-10 z m -10,0 0,-10 -10,0 0,10 10,0 z m -10,0 -10,0 0,10 10,0 0,-10 z m -10,0 0,-10 -10,0 0,10 10,0 z m -10,0 -10,0 0,10 10,0 0,-10 z m -10,0 0,-10 -10,0 0,10 10,0 z m -10,0 -10,0 0,10 10,0 0,-10 z m -10,0 0,-10 -10,0 0,10 10,0 z m -10,0 -10,0 0,10 10,0 0,-10 z m -10,0 0,-10 -10,0 0,10 10,0 z m -10,0 -10,0 0,10 10,0 0,-10 z m -10,0 0,-10 -10,0 0,10 10,0 z m -10,0 -10,0 0,10 10,0 0,-10 z m -10,0 0,-10 -10,0 0,10 10,0 z m -10,0 -10,0 0,10 10,0 0,-10 z m -10,0 0,-10 -10,0 0,10 10,0 z m -10,0 -10,0 0,10 10,0 0,-10 z m -10,0 0,-10 -10,0 0,10 10,0 z m -10,0 -10,0 0,10 10,0 0,-10 z m -10,0 0,-10 -10,0 0,10 10,0 z m -10,0 -10,0 0,10 10,0 0,-10 z m -10,0 0,-10 -10,0 0,10 10,0 z m -10,0 -10,0 0,10 10,0 0,-10 z m -10,0 0,-10 -10,0 0,10 10,0 z m -10,0 -10,0 0,10 10,0 0,-10 z m -10,0 0,-10 -10,0 0,10 10,0 z m -10,0 -10,0 0,10 10,0 0,-10 z m -10,0 0,-10 -10,0 0,10 10,0 z m -10,0 -10,0 0,10 10,0 0,-10 z m -10,0 0,-10 -10,0 0,10 10,0 z m -10,0 -10,0 0,10 10,0 0,-10 z m -10,0 0,-10 -10,0 0,10 10,0 z m 0,-10 10,0 0,-10 -10,0 0,10 z m 0,-10 0,-10 -10,0 0,10 10,0 z m 0,-10 10,0 0,-10 -10,0 0,10 z m 0,-10 0,-10 -10,0 0,10 10,0 z m 0,-10 10,0 0,-10 -10,0 0,10 z m 0,-10 0,-10 -10,0 0,10 10,0 z m 0,-10 10,0 0,-10 -10,0 0,10 z m 0,-10 0,-10 -10,0 0,10 10,0 z m 0,-10 10,0 0,-10 -10,0 0,10 z m 0,-10 0,-10 -10,0 0,10 10,0 z m 0,-10 10,0 0,-10 -10,0 0,10 z m 0,-10 0,-10 -10,0 0,10 10,0 z m 0,-10 10,0 0,-10 -10,0 0,10 z m 0,-10 0,-10 -10,0 0,10 10,0 z m 0,-10 10,0 0,-10 -10,0 0,10 z m 0,-10 0,-10 -10,0 0,10 10,0 z m 0,-10 10,0 0,-10 -10,0 0,10 z m 0,-10 0,-10 -10,0 0,10 10,0 z m 0,-10 10,0 0,-10 -10,0 0,10 z m 0,-10 0,-10 -10,0 0,10 10,0 z m 0,-10 10,0 0,-10 -10,0 0,10 z m 0,-10 0,-10 -10,0 0,10 10,0 z m 0,-10 10,0 0,-10 -10,0 0,10 z m 0,-10 0,-10 -10,0 0,10 10,0 z m 0,-10 10,0 0,-10 -10,0 0,10 z m 0,-10 0,-10 -10,0 0,10 10,0 z m 0,-10 10,0 0,-10 -10,0 0,10 z m 0,-10 0,-10 -10,0 0,10 10,0 z m 0,-10 10,0 0,-10 -10,0 0,10 z m 0,-10 0,-10 -10,0 0,10 10,0 z m 0,-10 10,0 0,-10 -10,0 0,10 z m 0,-10 0,-10 -10,0 0,10 10,0 z m 0,-10 10,0 0,-10 -10,0 0,10 z m 0,-10 0,-10 -10,0 0,10 10,0 z m 0,-10 10,0 0,-10 -10,0 0,10 z m 0,-10 0,-10 -10,0 0,10 10,0 z m 0,-10 10,0 0,-10 -10,0 0,10 z m 0,-10 0,-10 -10,0 0,10 10,0 z m 0,-10 10,0 0,-10 -10,0 0,10 z m 0,-10 0,-10 -10,0 0,10 10,0 z m 0,-10 10,0 0,-10 -10,0 0,10 z m 0,-10 0,-10 -10,0 0,10 10,0 z m 0,-10 10,0 0,-10 -10,0 0,10 z m 0,-10 0,-10 -10,0 0,10 10,0 z m 10,0 10,0 0,-10 -10,0 0,10 z m 10,0 0,10 10,0 0,-10 -10,0 z m 10,0 10,0 0,-10 -10,0 0,10 z m 10,0 0,10 10,0 0,-10 -10,0 z m 10,0 10,0 0,-10 -10,0 0,10 z m 10,0 0,10 10,0 0,-10 -10,0 z m 10,0 10,0 0,-10 -10,0 0,10 z m 10,0 0,10 10,0 0,-10 -10,0 z m 10,0 10,0 0,-10 -10,0 0,10 z m 10,0 0,10 10,0 0,-10 -10,0 z m 10,0 10,0 0,-10 -10,0 0,10 z m 10,0 0,10 10,0 0,-10 -10,0 z m 10,0 10,0 0,-10 -10,0 0,10 z m 10,0 0,10 10,0 0,-10 -10,0 z m 10,0 10,0 0,-10 -10,0 0,10 z m 10,0 0,10 10,0 0,-10 -10,0 z m 10,0 10,0 0,-10 -10,0 0,10 z m 10,0 0,10 10,0 0,-10 -10,0 z m 10,0 10,0 0,-10 -10,0 0,10 z m 10,0 0,10 10,0 0,-10 -10,0 z m 10,0 10,0 0,-10 -10,0 0,10 z m 10,0 0,10 10,0 0,-10 -10,0 z m 10,0 10,0 0,-10 -10,0 0,10 z m 10,0 0,10 10,0 0,-10 -10,0 z m 10,0 10,0 0,-10 -10,0 0,10 z m 10,0 0,10 10,0 0,-10 -10,0 z m 10,0 10,0 0,-10 -10,0 0,10 z m 10,0 0,10 10,0 0,-10 -10,0 z m 10,0 10,0 0,-10 -10,0 0,10 z m 10,0 0,10 10,0 0,-10 -10,0 z m 10,0 10,0 0,-10 -10,0 0,10 z m 10,0 0,10 10,0 0,-10 -10,0 z m 10,0 10,0 0,-10 -10,0 0,10 z m 10,0 0,10 10,0 0,-10 -10,0 z m 10,0 10,0 0,-10 -10,0 0,10 z m 10,0 0,10 10,0 0,-10 -10,0 z m 10,0 10,0 0,-10 -10,0 0,10 z m 10,0 0,10 10,0 0,-10 -10,0 z m 10,0 10,0 0,-10 -10,0 0,10 z m 10,0 0,10 10,0 0,-10 -10,0 z m 10,0 10,0 0,-10 -10,0 0,10 z m 10,0 0,10 10,0 0,-10 -10,0 z m 10,0 10,0 0,-10 -10,0 0,10 z m 10,0 0,10 10,0 0,-10 -10,0 z m 10,0 10,0 0,-10 -10,0 0,10 z m 10,0 0,10 10,0 0,-10 -10,0 z m 10,0 10,0 0,-10 -10,0 0,10 z m 10,0 0,10 10,0 0,-10 -10,0 z m 10,0 10,0 0,-10 -10,0 0,10 z m 10,0 0,10 10,0 0,-10 -10,0 z m 10,0 10,0 0,-10 -10,0 0,10 z m 10,0 0,10 10,0 0,-10 -10,0 z m 10,0 10,0 0,-10 -10,0 0,10 z m 10,0 0,10 10,0 0,-10 -10,0 z m 10,0 10,0 0,-10 -10,0 0,10 z m 10,0 0,10 10,0 0,-10 -10,0 z m 10,0 10,0 0,-10 -10,0 0,10 z m 10,0 0,10 10,0 0,-10 -10,0 z m 10,0 10,0 0,-10 -10,0 0,10 z m 10,0 0,10 10,0 0,-10 -10,0 z m 10,0 10,0 0,-10 -10,0 0,10 z m 10,0 0,10 10,0 0,-10 -10,0 z m 10,0 10,0 0,-10 -10,0 0,10 z m 10,0 0,10 10,0 0,-10 -10,0 z m 0,10 -10,0 0,10 10,0 0,-10 z m 0,10 0,10 10,0 0,-10 -10,0 z m 0,10 -10,0 0,10 10,0 0,-10 z m 0,10 0,10 10,0 0,-10 -10,0 z m 0,10 -10,0 0,10 10,0 0,-10 z m 0,10 0,10 10,0 0,-10 -10,0 z m 0,10 -10,0 0,10 10,0 0,-10 z m 0,10 0,10 10,0 0,-10 -10,0 z m 0,10 -10,0 0,10 10,0 0,-10 z m 0,10 0,10 10,0 0,-10 -10,0 z m 0,10 -10,0 0,10 10,0 0,-10 z m 0,10 0,10 10,0 0,-10 -10,0 z m 0,10 -10,0 0,10 10,0 0,-10 z m 0,10 0,10 10,0 0,-10 -10,0 z m 0,10 -10,0 0,10 10,0 0,-10 z m 0,10 0,10 10,0 0,-10 -10,0 z m 0,10 -10,0 0,10 10,0 0,-10 z m 0,10 0,10 10,0 0,-10 -10,0 z m 0,10 -10,0 0,10 10,0 0,-10 z m 0,10 0,10 10,0 0,-10 -10,0 z m 0,10 -10,0 0,10 10,0 0,-10 z m 0,10 0,10 10,0 0,-10 -10,0 z m 0,10 -10,0 0,10 10,0 0,-10 z m 0,10 0,10 10,0 0,-10 -10,0 z m 0,10 -10,0 0,10 10,0 0,-10 z m 0,10 0,10 10,0 0,-10 -10,0 z m 0,10 -10,0 0,10 10,0 0,-10 z m 0,10 0,10 10,0 0,-10 -10,0 z m 0,10 -10,0 0,10 10,0 0,-10 z m 0,10 0,10 10,0 0,-10 -10,0 z m 0,10 -10,0 0,10 10,0 0,-10 z m 0,10 0,10 10,0 0,-10 -10,0 z m 0,10 -10,0 0,10 10,0 0,-10 z m 0,10 0,10 10,0 0,-10 -10,0 z m 0,10 -10,0 0,10 10,0 0,-10 z m 0,10 0,10 10,0 0,-10 -10,0 z m 0,10 -10,0 0,10 10,0 0,-10 z m 0,10 0,10 10,0 0,-10 -10,0 z m 0,10 -10,0 0,10 10,0 0,-10 z m 0,10 0,10 10,0 0,-10 -10,0 z m 0,10 -10,0 0,10 10,0 0,-10 z m 0,10 0,10 10,0 0,-10 -10,0 z m -10,0 -10,0 0,10 10,0 0,-10 z m -10,0 0,-10 -10,0 0,10 10,0 z m -10,0 -10,0 0,10 10,0 0,-10 z m -10,0 0,-10 -10,0 0,10 10,0 z m -10,0 -10,0 0,10 10,0 0,-10 z m -10,0 0,-10 -10,0 0,10 10,0 z m -10,0 -10,0 0,10 10,0 0,-10 z m -10,0 0,-10 -10,0 0,10 10,0 z m -10,0 -10,0 0,10 10,0 0,-10 z m -10,0 0,-10 -10,0 0,10 10,0 z m -10,0 -10,0 0,10 10,0 0,-10 z m -10,0 0,-10 -10,0 0,10 10,0 z m -10,0 -10,0 0,10 10,0 0,-10 z m -10,0 0,-10 -10,0 0,10 10,0 z m -10,0 -10,0 0,10 10,0 0,-10 z m -10,0 0,-10 -10,0 0,10 10,0 z m -10,0 -10,0 0,10 10,0 0,-10 z m -10,0 0,-10 -10,0 0,10 10,0 z m -10,0 -10,0 0,10 10,0 0,-10 z m -10,0 0,-10 -10,0 0,10 10,0 z m -10,0 -10,0 0,10 10,0 0,-10 z m -10,0 0,-10 -10,0 0,10 10,0 z m -10,0 -10,0 0,10 10,0 0,-10 z m -10,0 0,-10 -10,0 0,10 10,0 z m -10,0 -10,0 0,10 10,0 0,-10 z m -10,0 0,-10 -10,0 0,10 10,0 z m -10,0 -10,0 0,10 10,0 0,-10 z m -10,0 0,-10 -10,0 0,10 10,0 z m -10,0 -10,0 0,10 10,0 0,-10 z m -10,0 0,-10 -10,0 0,10 10,0 z m -10,0 -10,0 0,10 10,0 0,-10 z m -10,0 0,-10 -10,0 0,10 10,0 z m -10,0 -10,0 0,10 10,0 0,-10 z m -10,0 0,-10 -10,0 0,10 10,0 z m -10,0 -10,0 0,10 10,0 0,-10 z m -10,0 0,-10 -10,0 0,10 10,0 z m -10,0 -10,0 0,10 10,0 0,-10 z m -10,0 0,-10 -10,0 0,10 10,0 z m -10,0 -10,0 0,10 10,0 0,-10 z m -10,0 0,-10 -10,0 0,10 10,0 z m -10,0 -10,0 0,10 10,0 0,-10 z m -10,0 0,-10 -10,0 0,10 10,0 z m -10,0 -10,0 0,10 10,0 0,-10 z m -10,0 0,-10 -10,0 0,10 10,0 z m -10,0 -10,0 0,10 10,0 0,-10 z m -10,0 0,-10 -10,0 0,10 10,0 z m -10,0 -10,0 0,10 10,0 0,-10 z m -10,0 0,-10 -10,0 0,10 10,0 z m -10,0 -10,0 0,10 10,0 0,-10 z m -10,0 0,-10 -10,0 0,10 10,0 z m -10,0 -10,0 0,10 10,0 0,-10 z m -10,0 0,-10 -10,0 0,10 10,0 z m -10,0 -10,0 0,10 10,0 0,-10 z m -10,0 0,-10 -10,0 0,10 10,0 z m -10,0 -10,0 0,10 10,0 0,-10 z m -10,0 0,-10 -10,0 0,10 10,0 z m -10,0 -10,0 0,10 10,0 0,-10 z m -10,0 0,-10 -10,0 0,10 10,0 z m -10,0 -10,0 0,10 10,0 0,-10 z m -10,0 0,-10 -10,0 0,10 10,0 z m -10,0 -10,0 0,10 10,0 0,-10 z m -10,0 0,-10 -10,0 0,10 10,0 z m 0,-10 10,0 0,-10 -10,0 0,10 z m 0,-10 0,-10 -10,0 0,10 10,0 z m 0,-10 10,0 0,-10 -10,0 0,10 z m 0,-10 0,-10 -10,0 0,10 10,0 z m 0,-10 10,0 0,-10 -10,0 0,10 z m 0,-10 0,-10 -10,0 0,10 10,0 z m 0,-10 10,0 0,-10 -10,0 0,10 z m 0,-10 0,-10 -10,0 0,10 10,0 z m 0,-10 10,0 0,-10 -10,0 0,10 z m 0,-10 0,-10 -10,0 0,10 10,0 z m 0,-10 10,0 0,-10 -10,0 0,10 z m 0,-10 0,-10 -10,0 0,10 10,0 z m 0,-10 10,0 0,-10 -10,0 0,10 z m 0,-10 0,-10 -10,0 0,10 10,0 z m 0,-10 10,0 0,-10 -10,0 0,10 z m 0,-10 0,-10 -10,0 0,10 10,0 z m 0,-10 10,0 0,-10 -10,0 0,10 z m 0,-10 0,-10 -10,0 0,10 10,0 z m 0,-10 10,0 0,-10 -10,0 0,10 z m 0,-10 0,-10 -10,0 0,10 10,0 z m 0,-10 10,0 0,-10 -10,0 0,10 z m 0,-10 0,-10 -10,0 0,10 10,0 z m 0,-10 10,0 0,-10 -10,0 0,10 z m 0,-10 0,-10 -10,0 0,10 10,0 z m 0,-10 10,0 0,-10 -10,0 0,10 z m 0,-10 0,-10 -10,0 0,10 10,0 z m 0,-10 10,0 0,-10 -10,0 0,10 z m 0,-10 0,-10 -10,0 0,10 10,0 z m 0,-10 10,0 0,-10 -10,0 0,10 z m 0,-10 0,-10 -10,0 0,10 10,0 z m 0,-10 10,0 0,-10 -10,0 0,10 z m 0,-10 0,-10 -10,0 0,10 10,0 z m 0,-10 10,0 0,-10 -10,0 0,10 z m 0,-10 0,-10 -10,0 0,10 10,0 z m 0,-10 10,0 0,-10 -10,0 0,10 z m 0,-10 0,-10 -10,0 0,10 10,0 z m 0,-10 10,0 0,-10 -10,0 0,10 z m 0,-10 0,-10 -10,0 0,10 10,0 z m 0,-10 10,0 0,-10 -10,0 0,10 z m 0,-10 0,-10 -10,0 0,10 10,0 z m 10,0 10,0 0,-10 -10,0 0,10 z m 10,0 0,10 10,0 0,-10 -10,0 z m 10,0 10,0 0,-10 -10,0 0,10 z m 10,0 0,10 10,0 0,-10 -10,0 z m 10,0 10,0 0,-10 -10,0 0,10 z m 10,0 0,10 10,0 0,-10 -10,0 z m 10,0 10,0 0,-10 -10,0 0,10 z m 10,0 0,10 10,0 0,-10 -10,0 z m 10,0 10,0 0,-10 -10,0 0,10 z m 10,0 0,10 10,0 0,-10 -10,0 z m 10,0 10,0 0,-10 -10,0 0,10 z m 10,0 0,10 10,0 0,-10 -10,0 z m 10,0 10,0 0,-10 -10,0 0,10 z m 10,0 0,10 10,0 0,-10 -10,0 z m 10,0 10,0 0,-10 -10,0 0,10 z m 10,0 0,10 10,0 0,-10 -10,0 z m 10,0 10,0 0,-10 -10,0 0,10 z m 10,0 0,10 10,0 0,-10 -10,0 z m 10,0 10,0 0,-10 -10,0 0,10 z m 10,0 0,10 10,0 0,-10 -10,0 z m 10,0 10,0 0,-10 -10,0 0,10 z m 10,0 0,10 10,0 0,-10 -10,0 z m 10,0 10,0 0,-10 -10,0 0,10 z m 10,0 0,10 10,0 0,-10 -10,0 z m 10,0 10,0 0,-10 -10,0 0,10 z m 10,0 0,10 10,0 0,-10 -10,0 z m 10,0 10,0 0,-10 -10,0 0,10 z m 10,0 0,10 10,0 0,-10 -10,0 z m 10,0 10,0 0,-10 -10,0 0,10 z m 10,0 0,10 10,0 0,-10 -10,0 z m 10,0 10,0 0,-10 -10,0 0,10 z m 10,0 0,10 10,0 0,-10 -10,0 z m 10,0 10,0 0,-10 -10,0 0,10 z m 10,0 0,10 10,0 0,-10 -10,0 z m 10,0 10,0 0,-10 -10,0 0,10 z m 10,0 0,10 10,0 0,-10 -10,0 z m 10,0 10,0 0,-10 -10,0 0,10 z m 10,0 0,10 10,0 0,-10 -10,0 z m 10,0 10,0 0,-10 -10,0 0,10 z m 10,0 0,10 10,0 0,-10 -10,0 z m 10,0 10,0 0,-10 -10,0 0,10 z m 10,0 0,10 10,0 0,-10 -10,0 z m 10,0 10,0 0,-10 -10,0 0,10 z m 10,0 0,10 10,0 0,-10 -10,0 z m 10,0 10,0 0,-10 -10,0 0,10 z m 10,0 0,10 10,0 0,-10 -10,0 z m 10,0 10,0 0,-10 -10,0 0,10 z m 10,0 0,10 10,0 0,-10 -10,0 z m 10,0 10,0 0,-10 -10,0 0,10 z m 10,0 0,10 10,0 0,-10 -10,0 z m 10,0 10,0 0,-10 -10,0 0,10 z m 10,0 0,10 10,0 0,-10 -10,0 z m 10,0 10,0 0,-10 -10,0 0,10 z m 10,0 0,10 10,0 0,-10 -10,0 z m 10,0 10,0 0,-10 -10,0 0,10 z m 10,0 0,10 10,0 0,-10 -10,0 z m 10,0 10,0 0,-10 -10,0 0,10 z m 10,0 0,10 10,0 0,-10 -10,0 z m 10,0 10,0 0,-10 -10,0 0,10 z m 10,0 0,10 10,0 0,-10 -10,0 z m 0,10 -10,0 0,10 10,0 0,-10 z m 0,10 0,10 10,0 0,-10 -10,0 z m 0,10 -10,0 0,10 10,0 0,-10 z m 0,10 0,10 10,0 0,-10 -10,0 z m 0,10 -10,0 0,10 10,0 0,-10 z m 0,10 0,10 10,0 0,-10 -10,0 z m 0,10 -10,0 0,10 10,0 0,-10 z m 0,10 0,10 10,0 0,-10 -10,0 z m 0,10 -10,0 0,10 10,0 0,-10 z m 0,10 0,10 10,0 0,-10 -10,0 z m 0,10 -10,0 0,10 10,0 0,-10 z m 0,10 0,10 10,0 0,-10 -10,0 z m 0,10 -10,0 0,10 10,0 0,-10 z m 0,10 0,10 10,0 0,-10 -10,0 z m 0,10 -10,0 0,10 10,0 0,-10 z m 0,10 0,10 10,0 0,-10 -10,0 z m 0,10 -10,0 0,10 10,0 0,-10 z m 0,10 0,10 10,0 0,-10 -10,0 z m 0,10 -10,0 0,10 10,0 0,-10 z m 0,10 0,10 10,0 0,-10 -10,0 z m 0,10 -10,0 0,10 10,0 0,-10 z m 0,10 0,10 10,0 0,-10 -10,0 z m 0,10 -10,0 0,10 10,0 0,-10 z m 0,10 0,10 10,0 0,-10 -10,0 z m 0,10 -10,0 0,10 10,0 0,-10 z m 0,10 0,10 10,0 0,-10 -10,0 z m 0,10 -10,0 0,10 10,0 0,-10 z m 0,10 0,10 10,0 0,-10 -10,0 z m 0,10 -10,0 0,10 10,0 0,-10 z m 0,10 0,10 10,0 0,-10 -10,0 z m 0,10 -10,0 0,10 10,0 0,-10 z m 0,10 0,10 10,0 0,-10 -10,0 z m 0,10 -10,0 0,10 10,0 0,-10 z m 0,10 0,10 10,0 0,-10 -10,0 z m 0,10 -10,0 0,10 10,0 0,-10 z m 0,10 0,10 10,0 0,-10 -10,0 z m 0,10 -10,0 0,10 10,0 0,-10 z m 0,10 0,10 10,0 0,-10 -10,0 z m -10,0 -10,0 0,10 10,0 0,-10 z m -10,0 0,-10 -10,0 0,10 10,0 z m -10,0 -10,0 0,10 10,0 0,-10 z m -10,0 0,-10 -10,0 0,10 10,0 z m -10,0 -10,0 0,10 10,0 0,-10 z m -10,0 0,-10 -10,0 0,10 10,0 z m -10,0 -10,0 0,10 10,0 0,-10 z m -10,0 0,-10 -10,0 0,10 10,0 z m -10,0 -10,0 0,10 10,0 0,-10 z m -10,0 0,-10 -10,0 0,10 10,0 z m -10,0 -10,0 0,10 10,0 0,-10 z m -10,0 0,-10 -10,0 0,10 10,0 z m -10,0 -10,0 0,10 10,0 0,-10 z m -10,0 0,-10 -10,0 0,10 10,0 z m -10,0 -10,0 0,10 10,0 0,-10 z m -10,0 0,-10 -10,0 0,10 10,0 z m -10,0 -10,0 0,10 10,0 0,-10 z m -10,0 0,-10 -10,0 0,10 10,0 z m -10,0 -10,0 0,10 10,0 0,-10 z m -10,0 0,-10 -10,0 0,10 10,0 z m -10,0 -10,0 0,10 10,0 0,-10 z m -10,0 0,-10 -10,0 0,10 10,0 z m -10,0 -10,0 0,10 10,0 0,-10 z m -10,0 0,-10 -10,0 0,10 10,0 z m -10,0 -10,0 0,10 10,0 0,-10 z m -10,0 0,-10 -10,0 0,10 10,0 z m -10,0 -10,0 0,10 10,0 0,-10 z m -10,0 0,-10 -10,0 0,10 10,0 z m -10,0 -10,0 0,10 10,0 0,-10 z m -10,0 0,-10 -10,0 0,10 10,0 z m -10,0 -10,0 0,10 10,0 0,-10 z m -10,0 0,-10 -10,0 0,10 10,0 z m -10,0 -10,0 0,10 10,0 0,-10 z m -10,0 0,-10 -10,0 0,10 10,0 z m -10,0 -10,0 0,10 10,0 0,-10 z m -10,0 0,-10 -10,0 0,10 10,0 z m -10,0 -10,0 0,10 10,0 0,-10 z m -10,0 0,-10 -10,0 0,10 10,0 z m -10,0 -10,0 0,10 10,0 0,-10 z m -10,0 0,-10 -10,0 0,10 10,0 z m -10,0 -10,0 0,10 10,0 0,-10 z m -10,0 0,-10 -10,0 0,10 10,0 z m -10,0 -10,0 0,10 10,0 0,-10 z m -10,0 0,-10 -10,0 0,10 10,0 z m -10,0 -10,0 0,10 10,0 0,-10 z m -10,0 0,-10 -10,0 0,10 10,0 z m -10,0 -10,0 0,10 10,0 0,-10 z m -10,0 0,-10 -10,0 0,10 10,0 z m -10,0 -10,0 0,10 10,0 0,-10 z m -10,0 0,-10 -10,0 0,10 10,0 z m -10,0 -10,0 0,10 10,0 0,-10 z m -10,0 0,-10 -10,0 0,10 10,0 z m -10,0 -10,0 0,10 10,0 0,-10 z m -10,0 0,-10 -10,0 0,10 10,0 z m -10,0 -10,0 0,10 10,0 0,-10 z m -10,0 0,-10 -10,0 0,10 10,0 z m -10,0 -10,0 0,10 10,0 0,-10 z m -10,0 0,-10 -10,0 0,10 10,0 z m 0,-10 10,0 0,-10 -10,0 0,10 z m 0,-10 0,-10 -10,0 0,10 10,0 z m 0,-10 10,0 0,-10 -10,0 0,10 z m 0,-10 0,-10 -10,0 0,10 10,0 z m 0,-10 10,0 0,-10 -10,0 0,10 z m 0,-10 0,-10 -10,0 0,10 10,0 z m 0,-10 10,0 0,-10 -10,0 0,10 z m 0,-10 0,-10 -10,0 0,10 10,0 z m 0,-10 10,0 0,-10 -10,0 0,10 z m 0,-10 0,-10 -10,0 0,10 10,0 z m 0,-10 10,0 0,-10 -10,0 0,10 z m 0,-10 0,-10 -10,0 0,10 10,0 z m 0,-10 10,0 0,-10 -10,0 0,10 z m 0,-10 0,-10 -10,0 0,10 10,0 z m 0,-10 10,0 0,-10 -10,0 0,10 z m 0,-10 0,-10 -10,0 0,10 10,0 z m 0,-10 10,0 0,-10 -10,0 0,10 z m 0,-10 0,-10 -10,0 0,10 10,0 z m 0,-10 10,0 0,-10 -10,0 0,10 z m 0,-10 0,-10 -10,0 0,10 10,0 z m 0,-10 10,0 0,-10 -10,0 0,10 z m 0,-10 0,-10 -10,0 0,10 10,0 z m 0,-10 10,0 0,-10 -10,0 0,10 z m 0,-10 0,-10 -10,0 0,10 10,0 z m 0,-10 10,0 0,-10 -10,0 0,10 z m 0,-10 0,-10 -10,0 0,10 10,0 z m 0,-10 10,0 0,-10 -10,0 0,10 z m 0,-10 0,-10 -10,0 0,10 10,0 z m 0,-10 10,0 0,-10 -10,0 0,10 z m 0,-10 0,-10 -10,0 0,10 10,0 z m 0,-10 10,0 0,-10 -10,0 0,10 z m 0,-10 0,-10 -10,0 0,10 10,0 z m 0,-10 10,0 0,-10 -10,0 0,10 z m 0,-10 0,-10 -10,0 0,10 10,0 z m 0,-10 10,0 0,-10 -10,0 0,10 z m 0,-10 0,-10 -10,0 0,10 10,0 z m 10,0 10,0 0,-10 -10,0 0,10 z m 10,0 0,10 10,0 0,-10 -10,0 z m 10,0 10,0 0,-10 -10,0 0,10 z m 10,0 0,10 10,0 0,-10 -10,0 z m 10,0 10,0 0,-10 -10,0 0,10 z m 10,0 0,10 10,0 0,-10 -10,0 z m 10,0 10,0 0,-10 -10,0 0,10 z m 10,0 0,10 10,0 0,-10 -10,0 z m 10,0 10,0 0,-10 -10,0 0,10 z m 10,0 0,10 10,0 0,-10 -10,0 z m 10,0 10,0 0,-10 -10,0 0,10 z m 10,0 0,10 10,0 0,-10 -10,0 z m 10,0 10,0 0,-10 -10,0 0,10 z m 10,0 0,10 10,0 0,-10 -10,0 z m 10,0 10,0 0,-10 -10,0 0,10 z m 10,0 0,10 10,0 0,-10 -10,0 z m 10,0 10,0 0,-10 -10,0 0,10 z m 10,0 0,10 10,0 0,-10 -10,0 z m 10,0 10,0 0,-10 -10,0 0,10 z m 10,0 0,10 10,0 0,-10 -10,0 z m 10,0 10,0 0,-10 -10,0 0,10 z m 10,0 0,10 10,0 0,-10 -10,0 z m 10,0 10,0 0,-10 -10,0 0,10 z m 10,0 0,10 10,0 0,-10 -10,0 z m 10,0 10,0 0,-10 -10,0 0,10 z m 10,0 0,10 10,0 0,-10 -10,0 z m 10,0 10,0 0,-10 -10,0 0,10 z m 10,0 0,10 10,0 0,-10 -10,0 z m 10,0 10,0 0,-10 -10,0 0,10 z m 10,0 0,10 10,0 0,-10 -10,0 z m 10,0 10,0 0,-10 -10,0 0,10 z m 10,0 0,10 10,0 0,-10 -10,0 z m 10,0 10,0 0,-10 -10,0 0,10 z m 10,0 0,10 10,0 0,-10 -10,0 z m 10,0 10,0 0,-10 -10,0 0,10 z m 10,0 0,10 10,0 0,-10 -10,0 z m 10,0 10,0 0,-10 -10,0 0,10 z m 10,0 0,10 10,0 0,-10 -10,0 z m 10,0 10,0 0,-10 -10,0 0,10 z m 10,0 0,10 10,0 0,-10 -10,0 z m 10,0 10,0 0,-10 -10,0 0,10 z m 10,0 0,10 10,0 0,-10 -10,0 z m 10,0 10,0 0,-10 -10,0 0,10 z m 10,0 0,10 10,0 0,-10 -10,0 z m 10,0 10,0 0,-10 -10,0 0,10 z m 10,0 0,10 10,0 0,-10 -10,0 z m 10,0 10,0 0,-10 -10,0 0,10 z m 10,0 0,10 10,0 0,-10 -10,0 z m 10,0 10,0 0,-10 -10,0 0,10 z m 10,0 0,10 10,0 0,-10 -10,0 z m 10,0 10,0 0,-10 -10,0 0,10 z m 10,0 0,10 10,0 0,-10 -10,0 z m 10,0 10,0 0,-10 -10,0 0,10 z m 10,0 0,10 10,0 0,-10 -10,0 z m 10,0 10,0 0,-10 -10,0 0,10 z m 10,0 0,10 10,0 0,-10 -10,0 z m 0,10 -10,0 0,10 10,0 0,-10 z m 0,10 0,10 10,0 0,-10 -10,0 z m 0,10 -10,0 0,10 10,0 0,-10 z m 0,10 0,10 10,0 0,-10 -10,0 z m 0,10 -10,0 0,10 10,0 0,-10 z m 0,10 0,10 10,0 0,-10 -10,0 z m 0,10 -10,0 0,10 10,0 0,-10 z m 0,10 0,10 10,0 0,-10 -10,0 z m 0,10 -10,0 0,10 10,0 0,-10 z m 0,10 0,10 10,0 0,-10 -10,0 z m 0,10 -10,0 0,10 10,0 0,-10 z m 0,10 0,10 10,0 0,-10 -10,0 z m 0,10 -10,0 0,10 10,0 0,-10 z m 0,10 0,10 10,0 0,-10 -10,0 z m 0,10 -10,0 0,10 10,0 0,-10 z m 0,10 0,10 10,0 0,-10 -10,0 z m 0,10 -10,0 0,10 10,0 0,-10 z m 0,10 0,10 10,0 0,-10 -10,0 z m 0,10 -10,0 0,10 10,0 0,-10 z m 0,10 0,10 10,0 0,-10 -10,0 z m 0,10 -10,0 0,10 10,0 0,-10 z m 0,10 0,10 10,0 0,-10 -10,0 z m 0,10 -10,0 0,10 10,0 0,-10 z m 0,10 0,10 10,0 0,-10 -10,0 z m 0,10 -10,0 0,10 10,0 0,-10 z m 0,10 0,10 10,0 0,-10 -10,0 z m 0,10 -10,0 0,10 10,0 0,-10 z m 0,10 0,10 10,0 0,-10 -10,0 z m 0,10 -10,0 0,10 10,0 0,-10 z m 0,10 0,10 10,0 0,-10 -10,0 z m 0,10 -10,0 0,10 10,0 0,-10 z m 0,10 0,10 10,0 0,-10 -10,0 z m 0,10 -10,0 0,10 10,0 0,-10 z m 0,10 0,10 10,0 0,-10 -10,0 z m -10,0 -10,0 0,10 10,0 0,-10 z m -10,0 0,-10 -10,0 0,10 10,0 z m -10,0 -10,0 0,10 10,0 0,-10 z m -10,0 0,-10 -10,0 0,10 10,0 z m -10,0 -10,0 0,10 10,0 0,-10 z m -10,0 0,-10 -10,0 0,10 10,0 z m -10,0 -10,0 0,10 10,0 0,-10 z m -10,0 0,-10 -10,0 0,10 10,0 z m -10,0 -10,0 0,10 10,0 0,-10 z m -10,0 0,-10 -10,0 0,10 10,0 z m -10,0 -10,0 0,10 10,0 0,-10 z m -10,0 0,-10 -10,0 0,10 10,0 z m -10,0 -10,0 0,10 10,0 0,-10 z m -10,0 0,-10 -10,0 0,10 10,0 z m -10,0 -10,0 0,10 10,0 0,-10 z m -10,0 0,-10 -10,0 0,10 10,0 z m -10,0 -10,0 0,10 10,0 0,-10 z m -10,0 0,-10 -10,0 0,10 10,0 z m -10,0 -10,0 0,10 10,0 0,-10 z m -10,0 0,-10 -10,0 0,10 10,0 z m -10,0 -10,0 0,10 10,0 0,-10 z m -10,0 0,-10 -10,0 0,10 10,0 z m -10,0 -10,0 0,10 10,0 0,-10 z m -10,0 0,-10 -10,0 0,10 10,0 z m -10,0 -10,0 0,10 10,0 0,-10 z m -10,0 0,-10 -10,0 0,10 10,0 z m -10,0 -10,0 0,10 10,0 0,-10 z m -10,0 0,-10 -10,0 0,10 10,0 z m -10,0 -10,0 0,10 10,0 0,-10 z m -10,0 0,-10 -10,0 0,10 10,0 z m -10,0 -10,0 0,10 10,0 0,-10 z m -10,0 0,-10 -10,0 0,10 10,0 z m -10,0 -10,0 0,10 10,0 0,-10 z m -10,0 0,-10 -10,0 0,10 10,0 z m -10,0 -10,0 0,10 10,0 0,-10 z m -10,0 0,-10 -10,0 0,10 10,0 z m -10,0 -10,0 0,10 10,0 0,-10 z m -10,0 0,-10 -10,0 0,10 10,0 z m -10,0 -10,0 0,10 10,0 0,-10 z m -10,0 0,-10 -10,0 0,10 10,0 z m -10,0 -10,0 0,10 10,0 0,-10 z m -10,0 0,-10 -10,0 0,10 10,0 z m -10,0 -10,0 0,10 10,0 0,-10 z m -10,0 0,-10 -10,0 0,10 10,0 z m -10,0 -10,0 0,10 10,0 0,-10 z m -10,0 0,-10 -10,0 0,10 10,0 z m -10,0 -10,0 0,10 10,0 0,-10 z m -10,0 0,-10 -10,0 0,10 10,0 z m -10,0 -10,0 0,10 10,0 0,-10 z m -10,0 0,-10 -10,0 0,10 10,0 z m -10,0 -10,0 0,10 10,0 0,-10 z m -10,0 0,-10 -10,0 0,10 10,0 z m -10,0 -10,0 0,10 10,0 0,-10 z m -10,0 0,-10 -10,0 0,10 10,0 z m 0,-10 10,0 0,-10 -10,0 0,10 z m 0,-10 0,-10 -10,0 0,10 10,0 z m 0,-10 10,0 0,-10 -10,0 0,10 z m 0,-10 0,-10 -10,0 0,10 10,0 z m 0,-10 10,0 0,-10 -10,0 0,10 z m 0,-10 0,-10 -10,0 0,10 10,0 z m 0,-10 10,0 0,-10 -10,0 0,10 z m 0,-10 0,-10 -10,0 0,10 10,0 z m 0,-10 10,0 0,-10 -10,0 0,10 z m 0,-10 0,-10 -10,0 0,10 10,0 z m 0,-10 10,0 0,-10 -10,0 0,10 z m 0,-10 0,-10 -10,0 0,10 10,0 z m 0,-10 10,0 0,-10 -10,0 0,10 z m 0,-10 0,-10 -10,0 0,10 10,0 z m 0,-10 10,0 0,-10 -10,0 0,10 z m 0,-10 0,-10 -10,0 0,10 10,0 z m 0,-10 10,0 0,-10 -10,0 0,10 z m 0,-10 0,-10 -10,0 0,10 10,0 z m 0,-10 10,0 0,-10 -10,0 0,10 z m 0,-10 0,-10 -10,0 0,10 10,0 z m 0,-10 10,0 0,-10 -10,0 0,10 z m 0,-10 0,-10 -10,0 0,10 10,0 z m 0,-10 10,0 0,-10 -10,0 0,10 z m 0,-10 0,-10 -10,0 0,10 10,0 z m 0,-10 10,0 0,-10 -10,0 0,10 z m 0,-10 0,-10 -10,0 0,10 10,0 z m 0,-10 10,0 0,-10 -10,0 0,10 z m 0,-10 0,-10 -10,0 0,10 10,0 z m 0,-10 10,0 0,-10 -10,0 0,10 z m 0,-10 0,-10 -10,0 0,10 10,0 z m 0,-10 10,0 0,-10 -10,0 0,10 z m 0,-10 0,-10 -10,0 0,10 10,0 z m 10,0 10,0 0,-10 -10,0 0,10 z m 10,0 0,10 10,0 0,-10 -10,0 z m 10,0 10,0 0,-10 -10,0 0,10 z m 10,0 0,10 10,0 0,-10 -10,0 z m 10,0 10,0 0,-10 -10,0 0,10 z m 10,0 0,10 10,0 0,-10 -10,0 z m 10,0 10,0 0,-10 -10,0 0,10 z m 10,0 0,10 10,0 0,-10 -10,0 z m 10,0 10,0 0,-10 -10,0 0,10 z m 10,0 0,10 10,0 0,-10 -10,0 z m 10,0 10,0 0,-10 -10,0 0,10 z m 10,0 0,10 10,0 0,-10 -10,0 z m 10,0 10,0 0,-10 -10,0 0,10 z m 10,0 0,10 10,0 0,-10 -10,0 z m 10,0 10,0 0,-10 -10,0 0,10 z m 10,0 0,10 10,0 0,-10 -10,0 z m 10,0 10,0 0,-10 -10,0 0,10 z m 10,0 0,10 10,0 0,-10 -10,0 z m 10,0 10,0 0,-10 -10,0 0,10 z m 10,0 0,10 10,0 0,-10 -10,0 z m 10,0 10,0 0,-10 -10,0 0,10 z m 10,0 0,10 10,0 0,-10 -10,0 z m 10,0 10,0 0,-10 -10,0 0,10 z m 10,0 0,10 10,0 0,-10 -10,0 z m 10,0 10,0 0,-10 -10,0 0,10 z m 10,0 0,10 10,0 0,-10 -10,0 z m 10,0 10,0 0,-10 -10,0 0,10 z m 10,0 0,10 10,0 0,-10 -10,0 z m 10,0 10,0 0,-10 -10,0 0,10 z m 10,0 0,10 10,0 0,-10 -10,0 z m 10,0 10,0 0,-10 -10,0 0,10 z m 10,0 0,10 10,0 0,-10 -10,0 z m 10,0 10,0 0,-10 -10,0 0,10 z m 10,0 0,10 10,0 0,-10 -10,0 z m 10,0 10,0 0,-10 -10,0 0,10 z m 10,0 0,10 10,0 0,-10 -10,0 z m 10,0 10,0 0,-10 -10,0 0,10 z m 10,0 0,10 10,0 0,-10 -10,0 z m 10,0 10,0 0,-10 -10,0 0,10 z m 10,0 0,10 10,0 0,-10 -10,0 z m 10,0 10,0 0,-10 -10,0 0,10 z m 10,0 0,10 10,0 0,-10 -10,0 z m 10,0 10,0 0,-10 -10,0 0,10 z m 10,0 0,10 10,0 0,-10 -10,0 z m 10,0 10,0 0,-10 -10,0 0,10 z m 10,0 0,10 10,0 0,-10 -10,0 z m 10,0 10,0 0,-10 -10,0 0,10 z m 10,0 0,10 10,0 0,-10 -10,0 z m 10,0 10,0 0,-10 -10,0 0,10 z m 10,0 0,10 10,0 0,-10 -10,0 z m 10,0 10,0 0,-10 -10,0 0,10 z m 10,0 0,10 10,0 0,-10 -10,0 z m 0,10 -10,0 0,10 10,0 0,-10 z m 0,10 0,10 10,0 0,-10 -10,0 z m 0,10 -10,0 0,10 10,0 0,-10 z m 0,10 0,10 10,0 0,-10 -10,0 z m 0,10 -10,0 0,10 10,0 0,-10 z m 0,10 0,10 10,0 0,-10 -10,0 z m 0,10 -10,0 0,10 10,0 0,-10 z m 0,10 0,10 10,0 0,-10 -10,0 z m 0,10 -10,0 0,10 10,0 0,-10 z m 0,10 0,10 10,0 0,-10 -10,0 z m 0,10 -10,0 0,10 10,0 0,-10 z m 0,10 0,10 10,0 0,-10 -10,0 z m 0,10 -10,0 0,10 10,0 0,-10 z m 0,10 0,10 10,0 0,-10 -10,0 z m 0,10 -10,0 0,10 10,0 0,-10 z m 0,10 0,10 10,0 0,-10 -10,0 z m 0,10 -10,0 0,10 10,0 0,-10 z m 0,10 0,10 10,0 0,-10 -10,0 z m 0,10 -10,0 0,10 10,0 0,-10 z m 0,10 0,10 10,0 0,-10 -10,0 z m 0,10 -10,0 0,10 10,0 0,-10 z m 0,10 0,10 10,0 0,-10 -10,0 z m 0,10 -10,0 0,10 10,0 0,-10 z m 0,10 0,10 10,0 0,-10 -10,0 z m 0,10 -10,0 0,10 10,0 0,-10 z m 0,10 0,10 10,0 0,-10 -10,0 z m 0,10 -10,0 0,10 10,0 0,-10 z m 0,10 0,10 10,0 0,-10 -10,0 z m 0,10 -10,0 0,10 10,0 0,-10 z m 0,10 0,10 10,0 0,-10 -10,0 z m -10,0 -10,0 0,10 10,0 0,-10 z m -10,0 0,-10 -10,0 0,10 10,0 z m -10,0 -10,0 0,10 10,0 0,-10 z m -10,0 0,-10 -10,0 0,10 10,0 z m -10,0 -10,0 0,10 10,0 0,-10 z m -10,0 0,-10 -10,0 0,10 10,0 z m -10,0 -10,0 0,10 10,0 0,-10 z m -10,0 0,-10 -10,0 0,10 10,0 z m -10,0 -10,0 0,10 10,0 0,-10 z m -10,0 0,-10 -10,0 0,10 10,0 z m -10,0 -10,0 0,10 10,0 0,-10 z m -10,0 0,-10 -10,0 0,10 10,0 z m -10,0 -10,0 0,10 10,0 0,-10 z m -10,0 0,-10 -10,0 0,10 10,0 z m -10,0 -10,0 0,10 10,0 0,-10 z m -10,0 0,-10 -10,0 0,10 10,0 z m -10,0 -10,0 0,10 10,0 0,-10 z m -10,0 0,-10 -10,0 0,10 10,0 z m -10,0 -10,0 0,10 10,0 0,-10 z m -10,0 0,-10 -10,0 0,10 10,0 z m -10,0 -10,0 0,10 10,0 0,-10 z m -10,0 0,-10 -10,0 0,10 10,0 z m -10,0 -10,0 0,10 10,0 0,-10 z m -10,0 0,-10 -10,0 0,10 10,0 z m -10,0 -10,0 0,10 10,0 0,-10 z m -10,0 0,-10 -10,0 0,10 10,0 z m -10,0 -10,0 0,10 10,0 0,-10 z m -10,0 0,-10 -10,0 0,10 10,0 z m -10,0 -10,0 0,10 10,0 0,-10 z m -10,0 0,-10 -10,0 0,10 10,0 z m -10,0 -10,0 0,10 10,0 0,-10 z m -10,0 0,-10 -10,0 0,10 10,0 z m -10,0 -10,0 0,10 10,0 0,-10 z m -10,0 0,-10 -10,0 0,10 10,0 z m -10,0 -10,0 0,10 10,0 0,-10 z m -10,0 0,-10 -10,0 0,10 10,0 z m -10,0 -10,0 0,10 10,0 0,-10 z m -10,0 0,-10 -10,0 0,10 10,0 z m -10,0 -10,0 0,10 10,0 0,-10 z m -10,0 0,-10 -10,0 0,10 10,0 z m -10,0 -10,0 0,10 10,0 0,-10 z m -10,0 0,-10 -10,0 0,10 10,0 z m -10,0 -10,0 0,10 10,0 0,-10 z m -10,0 0,-10 -10,0 0,10 10,0 z m -10,0 -10,0 0,10 10,0 0,-10 z m -10,0 0,-10 -10,0 0,10 10,0 z m -10,0 -10,0 0,10 10,0 0,-10 z m -10,0 0,-10 -10,0 0,10 10,0 z m -10,0 -10,0 0,10 10,0 0,-10 z m -10,0 0,-10 -10,0 0,10 10,0 z m 0,-10 10,0 0,-10 -10,0 0,10 z m 0,-10 0,-10 -10,0 0,10 10,0 z m 0,-10 10,0 0,-10 -10,0 0,10 z m 0,-10 0,-10 -10,0 0,10 10,0 z m 0,-10 10,0 0,-10 -10,0 0,10 z m 0,-10 0,-10 -10,0 0,10 10,0 z m 0,-10 10,0 0,-10 -10,0 0,10 z m 0,-10 0,-10 -10,0 0,10 10,0 z m 0,-10 10,0 0,-10 -10,0 0,10 z m 0,-10 0,-10 -10,0 0,10 10,0 z m 0,-10 10,0 0,-10 -10,0 0,10 z m 0,-10 0,-10 -10,0 0,10 10,0 z m 0,-10 10,0 0,-10 -10,0 0,10 z m 0,-10 0,-10 -10,0 0,10 10,0 z m 0,-10 10,0 0,-10 -10,0 0,10 z m 0,-10 0,-10 -10,0 0,10 10,0 z m 0,-10 10,0 0,-10 -10,0 0,10 z m 0,-10 0,-10 -10,0 0,10 10,0 z m 0,-10 10,0 0,-10 -10,0 0,10 z m 0,-10 0,-10 -10,0 0,10 10,0 z m 0,-10 10,0 0,-10 -10,0 0,10 z m 0,-10 0,-10 -10,0 0,10 10,0 z m 0,-10 10,0 0,-10 -10,0 0,10 z m 0,-10 0,-10 -10,0 0,10 10,0 z m 0,-10 10,0 0,-10 -10,0 0,10 z m 0,-10 0,-10 -10,0 0,10 10,0 z m 0,-10 10,0 0,-10 -10,0 0,10 z m 0,-10 0,-10 -10,0 0,10 10,0 z m 10,0 10,0 0,-10 -10,0 0,10 z m 10,0 0,10 10,0 0,-10 -10,0 z m 10,0 10,0 0,-10 -10,0 0,10 z m 10,0 0,10 10,0 0,-10 -10,0 z m 10,0 10,0 0,-10 -10,0 0,10 z m 10,0 0,10 10,0 0,-10 -10,0 z m 10,0 10,0 0,-10 -10,0 0,10 z m 10,0 0,10 10,0 0,-10 -10,0 z m 10,0 10,0 0,-10 -10,0 0,10 z m 10,0 0,10 10,0 0,-10 -10,0 z m 10,0 10,0 0,-10 -10,0 0,10 z m 10,0 0,10 10,0 0,-10 -10,0 z m 10,0 10,0 0,-10 -10,0 0,10 z m 10,0 0,10 10,0 0,-10 -10,0 z m 10,0 10,0 0,-10 -10,0 0,10 z m 10,0 0,10 10,0 0,-10 -10,0 z m 10,0 10,0 0,-10 -10,0 0,10 z m 10,0 0,10 10,0 0,-10 -10,0 z m 10,0 10,0 0,-10 -10,0 0,10 z m 10,0 0,10 10,0 0,-10 -10,0 z m 10,0 10,0 0,-10 -10,0 0,10 z m 10,0 0,10 10,0 0,-10 -10,0 z m 10,0 10,0 0,-10 -10,0 0,10 z m 10,0 0,10 10,0 0,-10 -10,0 z m 10,0 10,0 0,-10 -10,0 0,10 z m 10,0 0,10 10,0 0,-10 -10,0 z m 10,0 10,0 0,-10 -10,0 0,10 z m 10,0 0,10 10,0 0,-10 -10,0 z m 10,0 10,0 0,-10 -10,0 0,10 z m 10,0 0,10 10,0 0,-10 -10,0 z m 10,0 10,0 0,-10 -10,0 0,10 z m 10,0 0,10 10,0 0,-10 -10,0 z m 10,0 10,0 0,-10 -10,0 0,10 z m 10,0 0,10 10,0 0,-10 -10,0 z m 10,0 10,0 0,-10 -10,0 0,10 z m 10,0 0,10 10,0 0,-10 -10,0 z m 10,0 10,0 0,-10 -10,0 0,10 z m 10,0 0,10 10,0 0,-10 -10,0 z m 10,0 10,0 0,-10 -10,0 0,10 z m 10,0 0,10 10,0 0,-10 -10,0 z m 10,0 10,0 0,-10 -10,0 0,10 z m 10,0 0,10 10,0 0,-10 -10,0 z m 10,0 10,0 0,-10 -10,0 0,10 z m 10,0 0,10 10,0 0,-10 -10,0 z m 10,0 10,0 0,-10 -10,0 0,10 z m 10,0 0,10 10,0 0,-10 -10,0 z m 10,0 10,0 0,-10 -10,0 0,10 z m 10,0 0,10 10,0 0,-10 -10,0 z m 0,10 -10,0 0,10 10,0 0,-10 z m 0,10 0,10 10,0 0,-10 -10,0 z m 0,10 -10,0 0,10 10,0 0,-10 z m 0,10 0,10 10,0 0,-10 -10,0 z m 0,10 -10,0 0,10 10,0 0,-10 z m 0,10 0,10 10,0 0,-10 -10,0 z m 0,10 -10,0 0,10 10,0 0,-10 z m 0,10 0,10 10,0 0,-10 -10,0 z m 0,10 -10,0 0,10 10,0 0,-10 z m 0,10 0,10 10,0 0,-10 -10,0 z m 0,10 -10,0 0,10 10,0 0,-10 z m 0,10 0,10 10,0 0,-10 -10,0 z m 0,10 -10,0 0,10 10,0 0,-10 z m 0,10 0,10 10,0 0,-10 -10,0 z m 0,10 -10,0 0,10 10,0 0,-10 z m 0,10 0,10 10,0 0,-10 -10,0 z m 0,10 -10,0 0,10 10,0 0,-10 z m 0,10 0,10 10,0 0,-10 -10,0 z m 0,10 -10,0 0,10 10,0 0,-10 z m 0,10 0,10 10,0 0,-10 -10,0 z m 0,10 -10,0 0,10 10,0 0,-10 z m 0,10 0,10 10,0 0,-10 -10,0 z m 0,10 -10,0 0,10 10,0 0,-10 z m 0,10 0,10 10,0 0,-10 -10,0 z m 0,10 -10,0 0,10 10,0 0,-10 z m 0,10 0,10 10,0 0,-10 -10,0 z m -10,0 -10,0 0,10 10,0 0,-10 z m -10,0 0,-10 -10,0 0,10 10,0 z m -10,0 -10,0 0,10 10,0 0,-10 z m -10,0 0,-10 -10,0 0,10 10,0 z m -10,0 -10,0 0,10 10,0 0,-10 z m -10,0 0,-10 -10,0 0,10 10,0 z m -10,0 -10,0 0,10 10,0 0,-10 z m -10,0 0,-10 -10,0 0,10 10,0 z m -10,0 -10,0 0,10 10,0 0,-10 z m -10,0 0,-10 -10,0 0,10 10,0 z m -10,0 -10,0 0,10 10,0 0,-10 z m -10,0 0,-10 -10,0 0,10 10,0 z m -10,0 -10,0 0,10 10,0 0,-10 z m -10,0 0,-10 -10,0 0,10 10,0 z m -10,0 -10,0 0,10 10,0 0,-10 z m -10,0 0,-10 -10,0 0,10 10,0 z m -10,0 -10,0 0,10 10,0 0,-10 z m -10,0 0,-10 -10,0 0,10 10,0 z m -10,0 -10,0 0,10 10,0 0,-10 z m -10,0 0,-10 -10,0 0,10 10,0 z m -10,0 -10,0 0,10 10,0 0,-10 z m -10,0 0,-10 -10,0 0,10 10,0 z m -10,0 -10,0 0,10 10,0 0,-10 z m -10,0 0,-10 -10,0 0,10 10,0 z m -10,0 -10,0 0,10 10,0 0,-10 z m -10,0 0,-10 -10,0 0,10 10,0 z m -10,0 -10,0 0,10 10,0 0,-10 z m -10,0 0,-10 -10,0 0,10 10,0 z m -10,0 -10,0 0,10 10,0 0,-10 z m -10,0 0,-10 -10,0 0,10 10,0 z m -10,0 -10,0 0,10 10,0 0,-10 z m -10,0 0,-10 -10,0 0,10 10,0 z m -10,0 -10,0 0,10 10,0 0,-10 z m -10,0 0,-10 -10,0 0,10 10,0 z m -10,0 -10,0 0,10 10,0 0,-10 z m -10,0 0,-10 -10,0 0,10 10,0 z m -10,0 -10,0 0,10 10,0 0,-10 z m -10,0 0,-10 -10,0 0,10 10,0 z m -10,0 -10,0 0,10 10,0 0,-10 z m -10,0 0,-10 -10,0 0,10 10,0 z m -10,0 -10,0 0,10 10,0 0,-10 z m -10,0 0,-10 -10,0 0,10 10,0 z m -10,0 -10,0 0,10 10,0 0,-10 z m -10,0 0,-10 -10,0 0,10 10,0 z m -10,0 -10,0 0,10 10,0 0,-10 z m -10,0 0,-10 -10,0 0,10 10,0 z m 0,-10 10,0 0,-10 -10,0 0,10 z m 0,-10 0,-10 -10,0 0,10 10,0 z m 0,-10 10,0 0,-10 -10,0 0,10 z m 0,-10 0,-10 -10,0 0,10 10,0 z m 0,-10 10,0 0,-10 -10,0 0,10 z m 0,-10 0,-10 -10,0 0,10 10,0 z m 0,-10 10,0 0,-10 -10,0 0,10 z m 0,-10 0,-10 -10,0 0,10 10,0 z m 0,-10 10,0 0,-10 -10,0 0,10 z m 0,-10 0,-10 -10,0 0,10 10,0 z m 0,-10 10,0 0,-10 -10,0 0,10 z m 0,-10 0,-10 -10,0 0,10 10,0 z m 0,-10 10,0 0,-10 -10,0 0,10 z m 0,-10 0,-10 -10,0 0,10 10,0 z m 0,-10 10,0 0,-10 -10,0 0,10 z m 0,-10 0,-10 -10,0 0,10 10,0 z m 0,-10 10,0 0,-10 -10,0 0,10 z m 0,-10 0,-10 -10,0 0,10 10,0 z m 0,-10 10,0 0,-10 -10,0 0,10 z m 0,-10 0,-10 -10,0 0,10 10,0 z m 0,-10 10,0 0,-10 -10,0 0,10 z m 0,-10 0,-10 -10,0 0,10 10,0 z m 0,-10 10,0 0,-10 -10,0 0,10 z m 0,-10 0,-10 -10,0 0,10 10,0 z m 10,0 10,0 0,-10 -10,0 0,10 z m 10,0 0,10 10,0 0,-10 -10,0 z m 10,0 10,0 0,-10 -10,0 0,10 z m 10,0 0,10 10,0 0,-10 -10,0 z m 10,0 10,0 0,-10 -10,0 0,10 z m 10,0 0,10 10,0 0,-10 -10,0 z m 10,0 10,0 0,-10 -10,0 0,10 z m 10,0 0,10 10,0 0,-10 -10,0 z m 10,0 10,0 0,-10 -10,0 0,10 z m 10,0 0,10 10,0 0,-10 -10,0 z m 10,0 10,0 0,-10 -10,0 0,10 z m 10,0 0,10 10,0 0,-10 -10,0 z m 10,0 10,0 0,-10 -10,0 0,10 z m 10,0 0,10 10,0 0,-10 -10,0 z m 10,0 10,0 0,-10 -10,0 0,10 z m 10,0 0,10 10,0 0,-10 -10,0 z m 10,0 10,0 0,-10 -10,0 0,10 z m 10,0 0,10 10,0 0,-10 -10,0 z m 10,0 10,0 0,-10 -10,0 0,10 z m 10,0 0,10 10,0 0,-10 -10,0 z m 10,0 10,0 0,-10 -10,0 0,10 z m 10,0 0,10 10,0 0,-10 -10,0 z m 10,0 10,0 0,-10 -10,0 0,10 z m 10,0 0,10 10,0 0,-10 -10,0 z m 10,0 10,0 0,-10 -10,0 0,10 z m 10,0 0,10 10,0 0,-10 -10,0 z m 10,0 10,0 0,-10 -10,0 0,10 z m 10,0 0,10 10,0 0,-10 -10,0 z m 10,0 10,0 0,-10 -10,0 0,10 z m 10,0 0,10 10,0 0,-10 -10,0 z m 10,0 10,0 0,-10 -10,0 0,10 z m 10,0 0,10 10,0 0,-10 -10,0 z m 10,0 10,0 0,-10 -10,0 0,10 z m 10,0 0,10 10,0 0,-10 -10,0 z m 10,0 10,0 0,-10 -10,0 0,10 z m 10,0 0,10 10,0 0,-10 -10,0 z m 10,0 10,0 0,-10 -10,0 0,10 z m 10,0 0,10 10,0 0,-10 -10,0 z m 10,0 10,0 0,-10 -10,0 0,10 z m 10,0 0,10 10,0 0,-10 -10,0 z m 10,0 10,0 0,-10 -10,0 0,10 z m 10,0 0,10 10,0 0,-10 -10,0 z m 10,0 10,0 0,-10 -10,0 0,10 z m 10,0 0,10 10,0 0,-10 -10,0 z m 0,10 -10,0 0,10 10,0 0,-10 z m 0,10 0,10 10,0 0,-10 -10,0 z m 0,10 -10,0 0,10 10,0 0,-10 z m 0,10 0,10 10,0 0,-10 -10,0 z m 0,10 -10,0 0,10 10,0 0,-10 z m 0,10 0,10 10,0 0,-10 -10,0 z m 0,10 -10,0 0,10 10,0 0,-10 z m 0,10 0,10 10,0 0,-10 -10,0 z m 0,10 -10,0 0,10 10,0 0,-10 z m 0,10 0,10 10,0 0,-10 -10,0 z m 0,10 -10,0 0,10 10,0 0,-10 z m 0,10 0,10 10,0 0,-10 -10,0 z m 0,10 -10,0 0,10 10,0 0,-10 z m 0,10 0,10 10,0 0,-10 -10,0 z m 0,10 -10,0 0,10 10,0 0,-10 z m 0,10 0,10 10,0 0,-10 -10,0 z m 0,10 -10,0 0,10 10,0 0,-10 z m 0,10 0,10 10,0 0,-10 -10,0 z m 0,10 -10,0 0,10 10,0 0,-10 z m 0,10 0,10 10,0 0,-10 -10,0 z m 0,10 -10,0 0,10 10,0 0,-10 z m 0,10 0,10 10,0 0,-10 -10,0 z m -10,0 -10,0 0,10 10,0 0,-10 z m -10,0 0,-10 -10,0 0,10 10,0 z m -10,0 -10,0 0,10 10,0 0,-10 z m -10,0 0,-10 -10,0 0,10 10,0 z m -10,0 -10,0 0,10 10,0 0,-10 z m -10,0 0,-10 -10,0 0,10 10,0 z m -10,0 -10,0 0,10 10,0 0,-10 z m -10,0 0,-10 -10,0 0,10 10,0 z m -10,0 -10,0 0,10 10,0 0,-10 z m -10,0 0,-10 -10,0 0,10 10,0 z m -10,0 -10,0 0,10 10,0 0,-10 z m -10,0 0,-10 -10,0 0,10 10,0 z m -10,0 -10,0 0,10 10,0 0,-10 z m -10,0 0,-10 -10,0 0,10 10,0 z m -10,0 -10,0 0,10 10,0 0,-10 z m -10,0 0,-10 -10,0 0,10 10,0 z m -10,0 -10,0 0,10 10,0 0,-10 z m -10,0 0,-10 -10,0 0,10 10,0 z m -10,0 -10,0 0,10 10,0 0,-10 z m -10,0 0,-10 -10,0 0,10 10,0 z m -10,0 -10,0 0,10 10,0 0,-10 z m -10,0 0,-10 -10,0 0,10 10,0 z m -10,0 -10,0 0,10 10,0 0,-10 z m -10,0 0,-10 -10,0 0,10 10,0 z m -10,0 -10,0 0,10 10,0 0,-10 z m -10,0 0,-10 -10,0 0,10 10,0 z m -10,0 -10,0 0,10 10,0 0,-10 z m -10,0 0,-10 -10,0 0,10 10,0 z m -10,0 -10,0 0,10 10,0 0,-10 z m -10,0 0,-10 -10,0 0,10 10,0 z m -10,0 -10,0 0,10 10,0 0,-10 z m -10,0 0,-10 -10,0 0,10 10,0 z m -10,0 -10,0 0,10 10,0 0,-10 z m -10,0 0,-10 -10,0 0,10 10,0 z m -10,0 -10,0 0,10 10,0 0,-10 z m -10,0 0,-10 -10,0 0,10 10,0 z m -10,0 -10,0 0,10 10,0 0,-10 z m -10,0 0,-10 -10,0 0,10 10,0 z m -10,0 -10,0 0,10 10,0 0,-10 z m -10,0 0,-10 -10,0 0,10 10,0 z m -10,0 -10,0 0,10 10,0 0,-10 z m -10,0 0,-10 -10,0 0,10 10,0 z m 0,-10 10,0 0,-10 -10,0 0,10 z m 0,-10 0,-10 -10,0 0,10 10,0 z m 0,-10 10,0 0,-10 -10,0 0,10 z m 0,-10 0,-10 -10,0 0,10 10,0 z m 0,-10 10,0 0,-10 -10,0 0,10 z m 0,-10 0,-10 -10,0 0,10 10,0 z m 0,-10 10,0 0,-10 -10,0 0,10 z m 0,-10 0,-10 -10,0 0,10 10,0 z m 0,-10 10,0 0,-10 -10,0 0,10 z m 0,-10 0,-10 -10,0 0,10 10,0 z m 0,-10 10,0 0,-10 -10,0 0,10 z m 0,-10 0,-10 -10,0 0,10 10,0 z m 0,-10 10,0 0,-10 -10,0 0,10 z m 0,-10 0,-10 -10,0 0,10 10,0 z m 0,-10 10,0 0,-10 -10,0 0,10 z m 0,-10 0,-10 -10,0 0,10 10,0 z m 0,-10 10,0 0,-10 -10,0 0,10 z m 0,-10 0,-10 -10,0 0,10 10,0 z m 0,-10 10,0 0,-10 -10,0 0,10 z m 0,-10 0,-10 -10,0 0,10 10,0 z m 10,0 10,0 0,-10 -10,0 0,10 z m 10,0 0,10 10,0 0,-10 -10,0 z m 10,0 10,0 0,-10 -10,0 0,10 z m 10,0 0,10 10,0 0,-10 -10,0 z m 10,0 10,0 0,-10 -10,0 0,10 z m 10,0 0,10 10,0 0,-10 -10,0 z m 10,0 10,0 0,-10 -10,0 0,10 z m 10,0 0,10 10,0 0,-10 -10,0 z m 10,0 10,0 0,-10 -10,0 0,10 z m 10,0 0,10 10,0 0,-10 -10,0 z m 10,0 10,0 0,-10 -10,0 0,10 z m 10,0 0,10 10,0 0,-10 -10,0 z m 10,0 10,0 0,-10 -10,0 0,10 z m 10,0 0,10 10,0 0,-10 -10,0 z m 10,0 10,0 0,-10 -10,0 0,10 z m 10,0 0,10 10,0 0,-10 -10,0 z m 10,0 10,0 0,-10 -10,0 0,10 z m 10,0 0,10 10,0 0,-10 -10,0 z m 10,0 10,0 0,-10 -10,0 0,10 z m 10,0 0,10 10,0 0,-10 -10,0 z m 10,0 10,0 0,-10 -10,0 0,10 z m 10,0 0,10 10,0 0,-10 -10,0 z m 10,0 10,0 0,-10 -10,0 0,10 z m 10,0 0,10 10,0 0,-10 -10,0 z m 10,0 10,0 0,-10 -10,0 0,10 z m 10,0 0,10 10,0 0,-10 -10,0 z m 10,0 10,0 0,-10 -10,0 0,10 z m 10,0 0,10 10,0 0,-10 -10,0 z m 10,0 10,0 0,-10 -10,0 0,10 z m 10,0 0,10 10,0 0,-10 -10,0 z m 10,0 10,0 0,-10 -10,0 0,10 z m 10,0 0,10 10,0 0,-10 -10,0 z m 10,0 10,0 0,-10 -10,0 0,10 z m 10,0 0,10 10,0 0,-10 -10,0 z m 10,0 10,0 0,-10 -10,0 0,10 z m 10,0 0,10 10,0 0,-10 -10,0 z m 10,0 10,0 0,-10 -10,0 0,10 z m 10,0 0,10 10,0 0,-10 -10,0 z m 10,0 10,0 0,-10 -10,0 0,10 z m 10,0 0,10 10,0 0,-10 -10,0 z m 0,10 -10,0 0,10 10,0 0,-10 z m 0,10 0,10 10,0 0,-10 -10,0 z m 0,10 -10,0 0,10 10,0 0,-10 z m 0,10 0,10 10,0 0,-10 -10,0 z m 0,10 -10,0 0,10 10,0 0,-10 z m 0,10 0,10 10,0 0,-10 -10,0 z m 0,10 -10,0 0,10 10,0 0,-10 z m 0,10 0,10 10,0 0,-10 -10,0 z m 0,10 -10,0 0,10 10,0 0,-10 z m 0,10 0,10 10,0 0,-10 -10,0 z m 0,10 -10,0 0,10 10,0 0,-10 z m 0,10 0,10 10,0 0,-10 -10,0 z m 0,10 -10,0 0,10 10,0 0,-10 z m 0,10 0,10 10,0 0,-10 -10,0 z m 0,10 -10,0 0,10 10,0 0,-10 z m 0,10 0,10 10,0 0,-10 -10,0 z m 0,10 -10,0 0,10 10,0 0,-10 z m 0,10 0,10 10,0 0,-10 -10,0 z m -10,0 -10,0 0,10 10,0 0,-10 z m -10,0 0,-10 -10,0 0,10 10,0 z m -10,0 -10,0 0,10 10,0 0,-10 z m -10,0 0,-10 -10,0 0,10 10,0 z m -10,0 -10,0 0,10 10,0 0,-10 z m -10,0 0,-10 -10,0 0,10 10,0 z m -10,0 -10,0 0,10 10,0 0,-10 z m -10,0 0,-10 -10,0 0,10 10,0 z m -10,0 -10,0 0,10 10,0 0,-10 z m -10,0 0,-10 -10,0 0,10 10,0 z m -10,0 -10,0 0,10 10,0 0,-10 z m -10,0 0,-10 -10,0 0,10 10,0 z m -10,0 -10,0 0,10 10,0 0,-10 z m -10,0 0,-10 -10,0 0,10 10,0 z m -10,0 -10,0 0,10 10,0 0,-10 z m -10,0 0,-10 -10,0 0,10 10,0 z m -10,0 -10,0 0,10 10,0 0,-10 z m -10,0 0,-10 -10,0 0,10 10,0 z m -10,0 -10,0 0,10 10,0 0,-10 z m -10,0 0,-10 -10,0 0,10 10,0 z m -10,0 -10,0 0,10 10,0 0,-10 z m -10,0 0,-10 -10,0 0,10 10,0 z m -10,0 -10,0 0,10 10,0 0,-10 z m -10,0 0,-10 -10,0 0,10 10,0 z m -10,0 -10,0 0,10 10,0 0,-10 z m -10,0 0,-10 -10,0 0,10 10,0 z m -10,0 -10,0 0,10 10,0 0,-10 z m -10,0 0,-10 -10,0 0,10 10,0 z m -10,0 -10,0 0,10 10,0 0,-10 z m -10,0 0,-10 -10,0 0,10 10,0 z m -10,0 -10,0 0,10 10,0 0,-10 z m -10,0 0,-10 -10,0 0,10 10,0 z m -10,0 -10,0 0,10 10,0 0,-10 z m -10,0 0,-10 -10,0 0,10 10,0 z m -10,0 -10,0 0,10 10,0 0,-10 z m -10,0 0,-10 -10,0 0,10 10,0 z m -10,0 -10,0 0,10 10,0 0,-10 z m -10,0 0,-10 -10,0 0,10 10,0 z m 0,-10 10,0 0,-10 -10,0 0,10 z m 0,-10 0,-10 -10,0 0,10 10,0 z m 0,-10 10,0 0,-10 -10,0 0,10 z m 0,-10 0,-10 -10,0 0,10 10,0 z m 0,-10 10,0 0,-10 -10,0 0,10 z m 0,-10 0,-10 -10,0 0,10 10,0 z m 0,-10 10,0 0,-10 -10,0 0,10 z m 0,-10 0,-10 -10,0 0,10 10,0 z m 0,-10 10,0 0,-10 -10,0 0,10 z m 0,-10 0,-10 -10,0 0,10 10,0 z m 0,-10 10,0 0,-10 -10,0 0,10 z m 0,-10 0,-10 -10,0 0,10 10,0 z m 0,-10 10,0 0,-10 -10,0 0,10 z m 0,-10 0,-10 -10,0 0,10 10,0 z m 0,-10 10,0 0,-10 -10,0 0,10 z m 0,-10 0,-10 -10,0 0,10 10,0 z m 10,0 10,0 0,-10 -10,0 0,10 z m 10,0 0,10 10,0 0,-10 -10,0 z m 10,0 10,0 0,-10 -10,0 0,10 z m 10,0 0,10 10,0 0,-10 -10,0 z m 10,0 10,0 0,-10 -10,0 0,10 z m 10,0 0,10 10,0 0,-10 -10,0 z m 10,0 10,0 0,-10 -10,0 0,10 z m 10,0 0,10 10,0 0,-10 -10,0 z m 10,0 10,0 0,-10 -10,0 0,10 z m 10,0 0,10 10,0 0,-10 -10,0 z m 10,0 10,0 0,-10 -10,0 0,10 z m 10,0 0,10 10,0 0,-10 -10,0 z m 10,0 10,0 0,-10 -10,0 0,10 z m 10,0 0,10 10,0 0,-10 -10,0 z m 10,0 10,0 0,-10 -10,0 0,10 z m 10,0 0,10 10,0 0,-10 -10,0 z m 10,0 10,0 0,-10 -10,0 0,10 z m 10,0 0,10 10,0 0,-10 -10,0 z m 10,0 10,0 0,-10 -10,0 0,10 z m 10,0 0,10 10,0 0,-10 -10,0 z m 10,0 10,0 0,-10 -10,0 0,10 z m 10,0 0,10 10,0 0,-10 -10,0 z m 10,0 10,0 0,-10 -10,0 0,10 z m 10,0 0,10 10,0 0,-10 -10,0 z m 10,0 10,0 0,-10 -10,0 0,10 z m 10,0 0,10 10,0 0,-10 -10,0 z m 10,0 10,0 0,-10 -10,0 0,10 z m 10,0 0,10 10,0 0,-10 -10,0 z m 10,0 10,0 0,-10 -10,0 0,10 z m 10,0 0,10 10,0 0,-10 -10,0 z m 10,0 10,0 0,-10 -10,0 0,10 z m 10,0 0,10 10,0 0,-10 -10,0 z m 10,0 10,0 0,-10 -10,0 0,10 z m 10,0 0,10 10,0 0,-10 -10,0 z m 10,0 10,0 0,-10 -10,0 0,10 z m 10,0 0,10 10,0 0,-10 -10,0 z m 0,10 -10,0 0,10 10,0 0,-10 z m 0,10 0,10 10,0 0,-10 -10,0 z m 0,10 -10,0 0,10 10,0 0,-10 z m 0,10 0,10 10,0 0,-10 -10,0 z m 0,10 -10,0 0,10 10,0 0,-10 z m 0,10 0,10 10,0 0,-10 -10,0 z m 0,10 -10,0 0,10 10,0 0,-10 z m 0,10 0,10 10,0 0,-10 -10,0 z m 0,10 -10,0 0,10 10,0 0,-10 z m 0,10 0,10 10,0 0,-10 -10,0 z m 0,10 -10,0 0,10 10,0 0,-10 z m 0,10 0,10 10,0 0,-10 -10,0 z m 0,10 -10,0 0,10 10,0 0,-10 z m 0,10 0,10 10,0 0,-10 -10,0 z m -10,0 -10,0 0,10 10,0 0,-10 z m -10,0 0,-10 -10,0 0,10 10,0 z m -10,0 -10,0 0,10 10,0 0,-10 z m -10,0 0,-10 -10,0 0,10 10,0 z m -10,0 -10,0 0,10 10,0 0,-10 z m -10,0 0,-10 -10,0 0,10 10,0 z m -10,0 -10,0 0,10 10,0 0,-10 z m -10,0 0,-10 -10,0 0,10 10,0 z m -10,0 -10,0 0,10 10,0 0,-10 z m -10,0 0,-10 -10,0 0,10 10,0 z m -10,0 -10,0 0,10 10,0 0,-10 z m -10,0 0,-10 -10,0 0,10 10,0 z m -10,0 -10,0 0,10 10,0 0,-10 z m -10,0 0,-10 -10,0 0,10 10,0 z m -10,0 -10,0 0,10 10,0 0,-10 z m -10,0 0,-10 -10,0 0,10 10,0 z m -10,0 -10,0 0,10 10,0 0,-10 z m -10,0 0,-10 -10,0 0,10 10,0 z m -10,0 -10,0 0,10 10,0 0,-10 z m -10,0 0,-10 -10,0 0,10 10,0 z m -10,0 -10,0 0,10 10,0 0,-10 z m -10,0 0,-10 -10,0 0,10 10,0 z m -10,0 -10,0 0,10 10,0 0,-10 z m -10,0 0,-10 -10,0 0,10 10,0 z m -10,0 -10,0 0,10 10,0 0,-10 z m -10,0 0,-10 -10,0 0,10 10,0 z m -10,0 -10,0 0,10 10,0 0,-10 z m -10,0 0,-10 -10,0 0,10 10,0 z m -10,0 -10,0 0,10 10,0 0,-10 z m -10,0 0,-10 -10,0 0,10 10,0 z m -10,0 -10,0 0,10 10,0 0,-10 z m -10,0 0,-10 -10,0 0,10 10,0 z m -10,0 -10,0 0,10 10,0 0,-10 z m -10,0 0,-10 -10,0 0,10 10,0 z m 0,-10 10,0 0,-10 -10,0 0,10 z m 0,-10 0,-10 -10,0 0,10 10,0 z m 0,-10 10,0 0,-10 -10,0 0,10 z m 0,-10 0,-10 -10,0 0,10 10,0 z m 0,-10 10,0 0,-10 -10,0 0,10 z m 0,-10 0,-10 -10,0 0,10 10,0 z m 0,-10 10,0 0,-10 -10,0 0,10 z m 0,-10 0,-10 -10,0 0,10 10,0 z m 0,-10 10,0 0,-10 -10,0 0,10 z m 0,-10 0,-10 -10,0 0,10 10,0 z m 0,-10 10,0 0,-10 -10,0 0,10 z m 0,-10 0,-10 -10,0 0,10 10,0 z m 10,0 10,0 0,-10 -10,0 0,10 z m 10,0 0,10 10,0 0,-10 -10,0 z m 10,0 10,0 0,-10 -10,0 0,10 z m 10,0 0,10 10,0 0,-10 -10,0 z m 10,0 10,0 0,-10 -10,0 0,10 z m 10,0 0,10 10,0 0,-10 -10,0 z m 10,0 10,0 0,-10 -10,0 0,10 z m 10,0 0,10 10,0 0,-10 -10,0 z m 10,0 10,0 0,-10 -10,0 0,10 z m 10,0 0,10 10,0 0,-10 -10,0 z m 10,0 10,0 0,-10 -10,0 0,10 z m 10,0 0,10 10,0 0,-10 -10,0 z m 10,0 10,0 0,-10 -10,0 0,10 z m 10,0 0,10 10,0 0,-10 -10,0 z m 10,0 10,0 0,-10 -10,0 0,10 z m 10,0 0,10 10,0 0,-10 -10,0 z m 10,0 10,0 0,-10 -10,0 0,10 z m 10,0 0,10 10,0 0,-10 -10,0 z m 10,0 10,0 0,-10 -10,0 0,10 z m 10,0 0,10 10,0 0,-10 -10,0 z m 10,0 10,0 0,-10 -10,0 0,10 z m 10,0 0,10 10,0 0,-10 -10,0 z m 10,0 10,0 0,-10 -10,0 0,10 z m 10,0 0,10 10,0 0,-10 -10,0 z m 10,0 10,0 0,-10 -10,0 0,10 z m 10,0 0,10 10,0 0,-10 -10,0 z m 10,0 10,0 0,-10 -10,0 0,10 z m 10,0 0,10 10,0 0,-10 -10,0 z m 10,0 10,0 0,-10 -10,0 0,10 z m 10,0 0,10 10,0 0,-10 -10,0 z m 10,0 10,0 0,-10 -10,0 0,10 z m 10,0 0,10 10,0 0,-10 -10,0 z m 0,10 -10,0 0,10 10,0 0,-10 z m 0,10 0,10 10,0 0,-10 -10,0 z m 0,10 -10,0 0,10 10,0 0,-10 z m 0,10 0,10 10,0 0,-10 -10,0 z m 0,10 -10,0 0,10 10,0 0,-10 z m 0,10 0,10 10,0 0,-10 -10,0 z m 0,10 -10,0 0,10 10,0 0,-10 z m 0,10 0,10 10,0 0,-10 -10,0 z m 0,10 -10,0 0,10 10,0 0,-10 z m 0,10 0,10 10,0 0,-10 -10,0 z m -10,0 -10,0 0,10 10,0 0,-10 z m -10,0 0,-10 -10,0 0,10 10,0 z m -10,0 -10,0 0,10 10,0 0,-10 z m -10,0 0,-10 -10,0 0,10 10,0 z m -10,0 -10,0 0,10 10,0 0,-10 z m -10,0 0,-10 -10,0 0,10 10,0 z m -10,0 -10,0 0,10 10,0 0,-10 z m -10,0 0,-10 -10,0 0,10 10,0 z m -10,0 -10,0 0,10 10,0 0,-10 z m -10,0 0,-10 -10,0 0,10 10,0 z m -10,0 -10,0 0,10 10,0 0,-10 z m -10,0 0,-10 -10,0 0,10 10,0 z m -10,0 -10,0 0,10 10,0 0,-10 z m -10,0 0,-10 -10,0 0,10 10,0 z m -10,0 -10,0 0,10 10,0 0,-10 z m -10,0 0,-10 -10,0 0,10 10,0 z m -10,0 -10,0 0,10 10,0 0,-10 z m -10,0 0,-10 -10,0 0,10 10,0 z m -10,0 -10,0 0,10 10,0 0,-10 z m -10,0 0,-10 -10,0 0,10 10,0 z m -10,0 -10,0 0,10 10,0 0,-10 z m -10,0 0,-10 -10,0 0,10 10,0 z m -10,0 -10,0 0,10 10,0 0,-10 z m -10,0 0,-10 -10,0 0,10 10,0 z m -10,0 -10,0 0,10 10,0 0,-10 z m -10,0 0,-10 -10,0 0,10 10,0 z m -10,0 -10,0 0,10 10,0 0,-10 z m -10,0 0,-10 -10,0 0,10 10,0 z m -10,0 -10,0 0,10 10,0 0,-10 z m -10,0 0,-10 -10,0 0,10 10,0 z m 0,-10 10,0 0,-10 -10,0 0,10 z m 0,-10 0,-10 -10,0 0,10 10,0 z m 0,-10 10,0 0,-10 -10,0 0,10 z m 0,-10 0,-10 -10,0 0,10 10,0 z m 0,-10 10,0 0,-10 -10,0 0,10 z m 0,-10 0,-10 -10,0 0,10 10,0 z m 0,-10 10,0 0,-10 -10,0 0,10 z m 0,-10 0,-10 -10,0 0,10 10,0 z m 10,0 10,0 0,-10 -10,0 0,10 z m 10,0 0,10 10,0 0,-10 -10,0 z m 10,0 10,0 0,-10 -10,0 0,10 z m 10,0 0,10 10,0 0,-10 -10,0 z m 10,0 10,0 0,-10 -10,0 0,10 z m 10,0 0,10 10,0 0,-10 -10,0 z m 10,0 10,0 0,-10 -10,0 0,10 z m 10,0 0,10 10,0 0,-10 -10,0 z m 10,0 10,0 0,-10 -10,0 0,10 z m 10,0 0,10 10,0 0,-10 -10,0 z m 10,0 10,0 0,-10 -10,0 0,10 z m 10,0 0,10 10,0 0,-10 -10,0 z m 10,0 10,0 0,-10 -10,0 0,10 z m 10,0 0,10 10,0 0,-10 -10,0 z m 10,0 10,0 0,-10 -10,0 0,10 z m 10,0 0,10 10,0 0,-10 -10,0 z m 10,0 10,0 0,-10 -10,0 0,10 z m 10,0 0,10 10,0 0,-10 -10,0 z m 10,0 10,0 0,-10 -10,0 0,10 z m 10,0 0,10 10,0 0,-10 -10,0 z m 10,0 10,0 0,-10 -10,0 0,10 z m 10,0 0,10 10,0 0,-10 -10,0 z m 10,0 10,0 0,-10 -10,0 0,10 z m 10,0 0,10 10,0 0,-10 -10,0 z m 10,0 10,0 0,-10 -10,0 0,10 z m 10,0 0,10 10,0 0,-10 -10,0 z m 10,0 10,0 0,-10 -10,0 0,10 z m 10,0 0,10 10,0 0,-10 -10,0 z m 0,10 -10,0 0,10 10,0 0,-10 z m 0,10 0,10 10,0 0,-10 -10,0 z m 0,10 -10,0 0,10 10,0 0,-10 z m 0,10 0,10 10,0 0,-10 -10,0 z m 0,10 -10,0 0,10 10,0 0,-10 z m 0,10 0,10 10,0 0,-10 -10,0 z m -10,0 -10,0 0,10 10,0 0,-10 z m -10,0 0,-10 -10,0 0,10 10,0 z m -10,0 -10,0 0,10 10,0 0,-10 z m -10,0 0,-10 -10,0 0,10 10,0 z m -10,0 -10,0 0,10 10,0 0,-10 z m -10,0 0,-10 -10,0 0,10 10,0 z m -10,0 -10,0 0,10 10,0 0,-10 z m -10,0 0,-10 -10,0 0,10 10,0 z m -10,0 -10,0 0,10 10,0 0,-10 z m -10,0 0,-10 -10,0 0,10 10,0 z m -10,0 -10,0 0,10 10,0 0,-10 z m -10,0 0,-10 -10,0 0,10 10,0 z m -10,0 -10,0 0,10 10,0 0,-10 z m -10,0 0,-10 -10,0 0,10 10,0 z m -10,0 -10,0 0,10 10,0 0,-10 z m -10,0 0,-10 -10,0 0,10 10,0 z m -10,0 -10,0 0,10 10,0 0,-10 z m -10,0 0,-10 -10,0 0,10 10,0 z m -10,0 -10,0 0,10 10,0 0,-10 z m -10,0 0,-10 -10,0 0,10 10,0 z m -10,0 -10,0 0,10 10,0 0,-10 z m -10,0 0,-10 -10,0 0,10 10,0 z m -10,0 -10,0 0,10 10,0 0,-10 z m -10,0 0,-10 -10,0 0,10 10,0 z m -10,0 -10,0 0,10 10,0 0,-10 z m -10,0 0,-10 -10,0 0,10 10,0 z m 0,-10 10,0 0,-10 -10,0 0,10 z m 0,-10 0,-10 -10,0 0,10 10,0 z m 0,-10 10,0 0,-10 -10,0 0,10 z m 0,-10 0,-10 -10,0 0,10 10,0 z m 10,0 10,0 0,-10 -10,0 0,10 z m 10,0 0,10 10,0 0,-10 -10,0 z m 10,0 10,0 0,-10 -10,0 0,10 z m 10,0 0,10 10,0 0,-10 -10,0 z m 10,0 10,0 0,-10 -10,0 0,10 z m 10,0 0,10 10,0 0,-10 -10,0 z m 10,0 10,0 0,-10 -10,0 0,10 z m 10,0 0,10 10,0 0,-10 -10,0 z m 10,0 10,0 0,-10 -10,0 0,10 z m 10,0 0,10 10,0 0,-10 -10,0 z m 10,0 10,0 0,-10 -10,0 0,10 z m 10,0 0,10 10,0 0,-10 -10,0 z m 10,0 10,0 0,-10 -10,0 0,10 z m 10,0 0,10 10,0 0,-10 -10,0 z m 10,0 10,0 0,-10 -10,0 0,10 z m 10,0 0,10 10,0 0,-10 -10,0 z m 10,0 10,0 0,-10 -10,0 0,10 z m 10,0 0,10 10,0 0,-10 -10,0 z m 10,0 10,0 0,-10 -10,0 0,10 z m 10,0 0,10 10,0 0,-10 -10,0 z m 10,0 10,0 0,-10 -10,0 0,10 z m 10,0 0,10 10,0 0,-10 -10,0 z m 10,0 10,0 0,-10 -10,0 0,10 z m 10,0 0,10 10,0 0,-10 -10,0 z m 0,10 -10,0 0,10 10,0 0,-10 z m 0,10 0,10 10,0 0,-10 -10,0 z m -10,0 -10,0 0,10 10,0 0,-10 z m -10,0 0,-10 -10,0 0,10 10,0 z m -10,0 -10,0 0,10 10,0 0,-10 z m -10,0 0,-10 -10,0 0,10 10,0 z m -10,0 -10,0 0,10 10,0 0,-10 z m -10,0 0,-10 -10,0 0,10 10,0 z m -10,0 -10,0 0,10 10,0 0,-10 z m -10,0 0,-10 -10,0 0,10 10,0 z m -10,0 -10,0 0,10 10,0 0,-10 z m -10,0 0,-10 -10,0 0,10 10,0 z m -10,0 -10,0 0,10 10,0 0,-10 z m -10,0 0,-10 -10,0 0,10 10,0 z m -10,0 -10,0 0,10 10,0 0,-10 z m -10,0 0,-10 -10,0 0,10 10,0 z m -10,0 -10,0 0,10 10,0 0,-10 z m -10,0 0,-10 -10,0 0,10 10,0 z m -10,0 -10,0 0,10 10,0 0,-10 z m -10,0 0,-10 -10,0 0,10 10,0 z m -10,0 -10,0 0,10 10,0 0,-10 z m -10,0 0,-10 -10,0 0,10 10,0 z m -10,0 -10,0 0,10 10,0 0,-10 z m -10,0 0,-10 -10,0 0,10 10,0 z"
       id="rect24018"
       inkscape:connector-curvature="0" />
    <use
       x="0"
       y="0"
       xlink:href="#g4730"
       id="use4734"
       transform="translate(0,140)"
       width="800"
       height="600" />
    <g
       id="g4738"
       style="display:none">
      <g
         id="g4730">
        <rect
           style="color:#000000;fill:#ff0000;fill-opacity:1;fill-rule:nonzero;stroke:#000000;stroke-width:10;stroke-linecap:round;stroke-linejoin:miter;stroke-miterlimit:4;stroke-opacity:1;stroke-dasharray:none;stroke-dashoffset:0;marker:none;visibility:visible;display:inline;overflow:visible;enable-background:accumulate"
           id="rect4726"
           width="60"
           height="60"
           x="20"
           y="20" />
        <rect
           style="color:#000000;fill:#ffff00;fill-opacity:1;fill-rule:nonzero;stroke:#000000;stroke-width:10;stroke-linecap:round;stroke-linejoin:miter;stroke-miterlimit:4;stroke-opacity:1;stroke-dasharray:none;stroke-dashoffset:0;marker:none;visibility:visible;display:inline;overflow:visible;enable-background:accumulate"
           id="rect4728"
           width="60"
           height="60"
           x="100"
           y="20" />
      </g>
      <rect
         y="20"
         x="50"
         height="60"
         width="80"
         id="rect4736"
         style="color:#000000;fill:#00ff00;fill-opacity:1;fill-rule:nonzero;stroke:#000000;stroke-width:10;stroke-linecap:round;stroke-linejoin:miter;stroke-miterlimit:4;stroke-opacity:1;stroke-dasharray:none;stroke-dashoffset:0;marker:none;visibility:visible;display:inline;overflow:visible;enable-background:accumulate" />
    </g>
    <g
       id="g4750"
       style="opacity:0.5">
      <rect
         y="20"
         x="190"
         height="80"
         width="80"
         id="rect4744"
         style="color:#000000;fill:#00ff00;fill-opacity:1;fill-rule:nonzero;stroke:#000000;stroke-width:10;stroke-linecap:round;stroke-linejoin:miter;stroke-miterlimit:4;stroke-opacity:1;stroke-dasharray:none;stroke-dashoffset:0;marker:none;visibility:visible;display:inline;overflow:visible;enable-background:accumulate" />
      <rect
         y="50"
         x="230"
         height="100"
         width="100"
         id="rect4748"
         style="color:#000000;fill:#0000ff;fill-opacity:1;fill-rule:nonzero;stroke:#000000;stroke-width:10;stroke-linecap:round;stroke-linejoin:miter;stroke-miterlimit:4;stroke-opacity:1;stroke-dasharray:none;stroke-dashoffset:0;marker:none;visibility:visible;display:inline;overflow:visible;enable-background:accumulate" />
    </g>
    <g
       id="g4764"
       transform="translate(2.3817007,7.081087e-8)">
      <use
         height="600"
         width="800"
         transform="translate(60,0)"
         id="use4762"
         inkscape:transform-center-y="30.000002"
         inkscape:transform-center-x="79.039431"
         xlink:href="#use4760"
         y="0"
         x="0" />
      <use
         height="600"
         width="800"
         transform="translate(57.618299,0)"
         id="use4760"
         inkscape:transform-center-y="30.000002"
         inkscape:transform-center-x="79.039431"
         xlink:href="#use4758"
         y="0"
         x="0" />
      <use
         height="600"
         width="800"
         transform="translate(52.381701,1.4162185e-7)"
         id="use4758"
         inkscape:transform-center-y="30.000002"
         inkscape:transform-center-x="79.039431"
         xlink:href="#path4756"
         y="0"
         x="0" />
      <path
         transform="translate(39.039431,-20.000002)"
         inkscape:transform-center-y="30.000002"
         inkscape:transform-center-x="79.039431"
         d="M 98.078862,415.95453 60.000001,370 -16.15773,350 42.679492,340 98.078868,284.04547 77.320508,340 z"
         inkscape:randomized="0"
         inkscape:rounded="0"
         inkscape:flatsided="false"
         sodipodi:arg2="1.5707963"
         sodipodi:arg1="1.0471976"
         sodipodi:r2="20"
         sodipodi:r1="76.15773"
         sodipodi:cy="350"
         sodipodi:cx="60"
         sodipodi:sides="3"
         id="path4756"
         style="color:#000000;fill:#0000ff;fill-opacity:1;fill-rule:nonzero;stroke:#000000;stroke-width:1;stroke-linecap:round;stroke-linejoin:miter;stroke-miterlimit:4;stroke-opacity:1;stroke-dasharray:none;stroke-dashoffset:0;marker:none;visibility:visible;display:inline;overflow:visible;enable-background:accumulate"
         sodipodi:type="star" />
    </g>
  </g>
</svg>
