<?xml version="1.0" encoding="UTF-8" standalone="no"?>
<!-- Created with Inkscape (http://www.inkscape.org/) -->

<svg
   xmlns:dc="http://purl.org/dc/elements/1.1/"
   xmlns:cc="http://creativecommons.org/ns#"
   xmlns:rdf="http://www.w3.org/1999/02/22-rdf-syntax-ns#"
   xmlns:svg="http://www.w3.org/2000/svg"
   xmlns="http://www.w3.org/2000/svg"
   xmlns:sodipodi="http://sodipodi.sourceforge.net/DTD/sodipodi-0.dtd"
   xmlns:inkscape="http://www.inkscape.org/namespaces/inkscape"
   width="800px"
   height="600px"
   id="svg3025"
   version="1.1"
   inkscape:version="0.48.4 r9939"
   sodipodi:docname="stroke-miterlimit.svg">
  <defs
     id="defs3027" />
  <sodipodi:namedview
     id="base"
     pagecolor="#ffffff"
     bordercolor="#666666"
     borderopacity="1.0"
     inkscape:pageopacity="0.0"
     inkscape:pageshadow="2"
     inkscape:zoom="0.84852814"
     inkscape:cx="387.893"
     inkscape:cy="205.62909"
     inkscape:current-layer="layer1"
     inkscape:document-units="px"
     showgrid="true"
     inkscape:window-width="1280"
     inkscape:window-height="972"
     inkscape:window-x="-8"
     inkscape:window-y="-8"
     inkscape:window-maximized="1">
    <inkscape:grid
       type="xygrid"
       id="grid3033" />
  </sodipodi:namedview>
  <metadata
     id="metadata3030">
    <rdf:RDF>
      <cc:Work
         rdf:about="">
        <dc:format>image/svg+xml</dc:format>
        <dc:type
           rdf:resource="http://purl.org/dc/dcmitype/StillImage" />
        <dc:title />
      </cc:Work>
    </rdf:RDF>
  </metadata>
  <g
     id="layer1"
     inkscape:label="Layer 1"
     inkscape:groupmode="layer">
    <path
       style="fill:none;stroke:#000000;stroke-width:10;stroke-linecap:butt;stroke-linejoin:miter;stroke-miterlimit:1;stroke-opacity:1;stroke-dasharray:none"
       d="m 24.107445,220.48543 20,-90 20,90 30,-90 39.999995,90 40,-90 50,90 70,-90 80,90 40,-90 250,90 0,10 -639.999994,0 z"
       id="path3837"
       inkscape:connector-curvature="0"
       sodipodi:nodetypes="cccccccccccccc" />
    <path
       sodipodi:nodetypes="cccccccccccccc"
       inkscape:connector-curvature="0"
       id="path3839"
       d="m 24.107444,576.69047 20,-90 20,90 30,-90 40.000006,90 40,-90 50,90 70,-90 80,90 40,-90 250,90 0,10 -640.000007,0 z"
       style="fill:none;stroke:#000000;stroke-width:10;stroke-linecap:butt;stroke-linejoin:miter;stroke-miterlimit:4;stroke-opacity:1;stroke-dasharray:none" />
    <path
       style="fill:none;stroke:#000000;stroke-width:10;stroke-linecap:butt;stroke-linejoin:miter;stroke-miterlimit:3;stroke-opacity:1;stroke-dasharray:none"
       d="m 24.107446,457.95545 20,-90 20,90 30,-90 39.999994,90 40,-90 50,90 70,-90 80,90 40,-90 250,90 0,10 -639.999994,0 z"
       id="path3841"
       inkscape:connector-curvature="0"
       sodipodi:nodetypes="cccccccccccccc" />
    <path
       sodipodi:nodetypes="cccccccccccccc"
       inkscape:connector-curvature="0"
       id="path3843"
       d="m 24.107445,339.22045 20,-90 20,90 30,-90 39.999995,90 40,-90 50,90 70,-90 80,90 40,-90 250,90 0,10 -639.999994,0 z"
       style="fill:none;stroke:#000000;stroke-width:10;stroke-linecap:butt;stroke-linejoin:miter;stroke-miterlimit:2;stroke-opacity:1;stroke-dasharray:none" />
    <path
       sodipodi:nodetypes="cccccccccccccc"
       inkscape:connector-curvature="0"
       id="path3845"
       d="m 24.107445,101.75043 20,-89.999999 20,89.999999 29.999997,-89.999999 39.999998,89.999999 40,-89.999999 50,89.999999 70,-89.999999 80,89.999999 40,-89.999999 250,89.999999 0,10 -639.999995,0 z"
       style="fill:none;stroke:#000000;stroke-width:10;stroke-linecap:butt;stroke-linejoin:miter;stroke-miterlimit:0;stroke-opacity:1;stroke-dasharray:none" />
  </g>
</svg>
